<?xml version="1.0" encoding="UTF-8"?>
<svg width="55px" height="46px" viewBox="0 0 55 46" xmlns="http://www.w3.org/2000/svg" xmlns:xlink="http://www.w3.org/1999/xlink" version="1.1">
 <!-- Generated by Pixelmator Pro 2.1.2 -->
 <g id="group">
  <g id="group-1">
   <g id="group-2">
    <path id="Path" d="M31.628 45.548 C43.868 45.548 54.041 35.375 54.041 23.136 54.041 10.875 43.845 0.724 31.607 0.724 20.159 0.724 10.601 9.534 9.37 20.674 10.447 20.477 12.007 20.389 13.171 20.521 14.38 11.402 22.114 4.459 31.607 4.459 41.956 4.459 50.305 12.765 50.305 23.136 50.305 27.97 48.503 32.364 45.493 35.638 43.34 33.068 38.243 30.606 31.607 30.606 29.497 30.606 27.564 30.87 25.827 31.288 26.091 32.342 26.223 33.485 26.223 34.605 26.223 38.033 24.971 41.219 22.861 43.702 25.564 44.889 28.531 45.548 31.628 45.548 Z M31.607 26.871 C35.825 26.915 39.143 23.311 39.143 18.587 39.143 14.149 35.803 10.479 31.607 10.479 27.387 10.479 24.026 14.149 24.07 18.587 24.092 23.312 27.366 26.827 31.607 26.871 Z M12.05 45.79 C18.092 45.79 23.212 40.736 23.212 34.627 23.212 28.497 18.18 23.465 12.05 23.465 5.942 23.465 0.889 28.52 0.889 34.627 0.889 40.78 5.942 45.79 12.051 45.79 Z M12.05 41.615 C11.237 41.615 10.71 41.087 10.71 40.275 L10.71 35.968 6.404 35.968 C5.613 35.968 5.064 35.44 5.064 34.628 5.064 33.814 5.613 33.288 6.404 33.288 L10.711 33.288 10.711 28.98 C10.711 28.19 11.238 27.64 12.051 27.64 12.864 27.64 13.391 28.19 13.391 28.98 L13.391 33.287 17.698 33.287 C18.488 33.287 19.038 33.814 19.038 34.627 19.038 35.44 18.488 35.967 17.698 35.967 L13.39 35.967 13.39 40.274 C13.39 41.087 12.863 41.614 12.05 41.614 Z" fill="#0096c6" fill-opacity="1" stroke="none"/>
   </g>
  </g>
 </g>
</svg>
