<svg xmlns="http://www.w3.org/2000/svg" width="12.578" height="15.461">
                                    <path fill="black" fill-rule="nonzero" d="M8.57 2.469c.477-.578.813-1.367.813-2.164 0-.11-.008-.22-.024-.305-.78.031-1.718.516-2.273 1.172-.445.5-.852 1.297-.852 2.094 0 .125.024.242.032.28.046.009.125.024.21.024.696 0 1.57-.468 2.094-1.101Zm.547 1.265c-1.164 0-2.117.711-2.726.711-.649 0-1.493-.664-2.508-.664C1.953 3.781 0 5.375 0 8.375c0 1.875.719 3.852 1.617 5.125.766 1.078 1.438 1.96 2.406 1.96.954 0 1.375-.632 2.563-.632 1.203 0 1.476.617 2.531.617 1.047 0 1.742-.96 2.406-1.906.735-1.086 1.047-2.14 1.055-2.195-.062-.016-2.062-.836-2.062-3.125 0-1.985 1.57-2.875 1.664-2.946-1.04-1.492-2.625-1.539-3.063-1.539Z"></path>
                                </svg>