<?xml version="1.0" encoding="UTF-8"?>
<svg width="53px" height="42px" viewBox="0 0 53 42" version="1.1" xmlns="http://www.w3.org/2000/svg" xmlns:xlink="http://www.w3.org/1999/xlink">
    <title>projectsSub2</title>
    <g id="Home-Revamp-2021-V3" stroke="none" stroke-width="1" fill="none" fill-rule="evenodd">
        <g id="Home-Assets" transform="translate(-1272.000000, -7808.000000)" fill="#FF9F0A" fill-rule="nonzero">
            <g id="projectsSub2" transform="translate(1272.869687, 7808.942871)">
                <path d="M44.9121094,40.4516602 C49.5263672,40.4516602 51.8115234,38.1665039 51.8115234,33.6401367 L51.8115234,6.81152344 C51.8115234,2.28515625 49.5263672,0 44.9121094,0 L6.89941406,0 C2.30712891,0 0,2.26318359 0,6.81152344 L0,33.6401367 C0,38.1884766 2.30712891,40.4516602 6.89941406,40.4516602 L44.9121094,40.4516602 Z M44.8681641,36.9140625 L6.94335938,36.9140625 C4.74609375,36.9140625 3.53759766,35.7495117 3.53759766,33.4643555 L3.53759766,6.98730469 C3.53759766,4.70214844 4.74609375,3.53759766 6.94335938,3.53759766 L44.8681641,3.53759766 C47.043457,3.53759766 48.2739258,4.70214844 48.2739258,6.98730469 L48.2739258,33.4643555 C48.2739258,35.7495117 47.043457,36.9140625 44.8681641,36.9140625 Z M9.58007812,25.0488281 C9.95361328,25.0488281 10.3271484,24.8730469 10.7446289,24.4555664 L20.0390625,15.1831055 L21.5991211,13.4692383 L21.4013672,18.6108398 L21.4013672,20.7421875 C21.4013672,21.7089844 22.0166016,22.3461914 22.9394531,22.3461914 C23.8623047,22.3461914 24.4995117,21.7089844 24.4995117,20.7421875 L24.4995117,10.1513672 C24.4995117,9.20654297 23.840332,8.56933594 22.8735352,8.56933594 L11.9750977,8.56933594 C11.0083008,8.56933594 10.3710938,9.18457031 10.3710938,10.1074219 C10.3710938,11.0302734 11.0522461,11.6674805 11.9750977,11.6674805 L14.128418,11.6674805 L19.5336914,11.4477539 L17.8417969,13.0078125 L8.56933594,22.2802734 C8.15185547,22.6977539 7.97607422,23.0712891 7.97607422,23.4667969 C7.97607422,24.3017578 8.72314453,25.0488281 9.58007812,25.0488281 Z M40.1660156,31.8603516 C41.1108398,31.8603516 41.7700195,31.2231445 41.7700195,30.300293 C41.7700195,29.3774414 41.0668945,28.762207 40.1660156,28.762207 L38.0126953,28.762207 L32.6074219,28.9599609 L34.2773438,27.421875 L43.5717773,18.1274414 C43.9892578,17.7099609 44.1430664,17.3364258 44.1430664,16.940918 C44.1430664,16.105957 43.4179688,15.3588867 42.5610352,15.3588867 C42.1875,15.3588867 41.8139648,15.534668 41.3745117,15.9521484 L32.1020508,25.2246094 L30.5419922,26.9384766 L30.7397461,21.796875 L30.7397461,19.6655273 C30.7397461,18.6987305 30.1245117,18.0615234 29.2016602,18.0615234 C28.2788086,18.0615234 27.6416016,18.6987305 27.6416016,19.6655273 L27.6416016,30.2563477 C27.6416016,31.2011719 28.3007812,31.8603516 29.2675781,31.8603516 L40.1660156,31.8603516 Z" id="􀢿"></path>
            </g>
        </g>
    </g>
</svg>