<svg xmlns="http://www.w3.org/2000/svg" xmlns:xlink="http://www.w3.org/1999/xlink" width="50" height="43" viewBox="0 0 50 43" version="1.1">
    <title>iconSection1</title>
    <g id="Final" stroke="none" stroke-width="1" fill="none" fill-rule="evenodd">
        <g id="CloseDeals-1281" transform="translate(-74.000000, -5005.000000)" fill="#00BF4A" fill-rule="nonzero">
            <g id="􀊞" transform="translate(74.603027, 5005.580566)">
                <path d="M2.57080078,22.3901367 C3.99902344,22.3901367 5.11962891,21.2475586 5.11962891,19.8193359 L5.11962891,17.9736328 C5.11962891,14.128418 7.69042969,11.7333984 11.7993164,11.7333984 L28.6523438,11.7333984 L28.6523438,16.7211914 C28.6523438,17.9077148 29.3774414,18.6108398 30.5639648,18.6108398 C31.1132812,18.6108398 31.574707,18.4130859 31.9702148,18.1054688 L40.8251953,10.6787109 C41.7260742,9.93164062 41.7480469,8.70117188 40.8251953,7.95410156 L31.9702148,0.52734375 C31.574707,0.197753906 31.1132812,0 30.5639648,0 C29.3774414,0 28.6523438,0.703125 28.6523438,1.88964844 L28.6523438,6.72363281 L12.1289062,6.72363281 C4.68017578,6.72363281 0,10.7666016 0,17.4023438 L0,19.8193359 C0,21.2475586 1.12060547,22.3901367 2.57080078,22.3901367 Z M46.8457031,19.8852539 C45.3955078,19.8852539 44.296875,21.0058594 44.296875,22.4560547 L44.296875,24.3017578 C44.296875,28.1469727 41.7041016,30.5419922 37.6171875,30.5419922 L20.7421875,30.5419922 L20.7421875,25.5541992 C20.7421875,24.3676758 20.0390625,23.6645508 18.8525391,23.6645508 C18.3032227,23.6645508 17.8198242,23.8623047 17.4462891,24.1699219 L8.56933594,31.5966797 C7.66845703,32.3657227 7.64648438,33.5742188 8.56933594,34.3212891 L17.4462891,41.7480469 C17.8198242,42.0776367 18.3032227,42.2753906 18.8525391,42.2753906 C20.0390625,42.2753906 20.7421875,41.5722656 20.7421875,40.3637695 L20.7421875,35.5517578 L37.2875977,35.5517578 C44.7143555,35.5517578 49.3945312,31.5087891 49.3945312,24.8730469 L49.3945312,22.4560547 C49.3945312,21.0058594 48.2739258,19.8852539 46.8457031,19.8852539 Z" id="Shape"/>
            </g>
        </g>
    </g>
</svg>