<svg xmlns="http://www.w3.org/2000/svg" xmlns:xlink="http://www.w3.org/1999/xlink" width="43" height="42" viewBox="0 0 43 42" version="1.1">
    <title>iconSection2</title>
    <g id="Final" stroke="none" stroke-width="1" fill="none" fill-rule="evenodd">
        <g id="CloseDeals-1281" transform="translate(-76.000000, -2868.000000)" fill="#00A33F" fill-rule="nonzero">
            <g id="􀰔" transform="translate(76.603027, 2868.393555)">
                <path d="M7.49267578,41.550293 L34.0356445,41.550293 C36.4819336,41.550293 38.3422852,40.916748 39.6166992,39.6496582 C40.8911133,38.3825684 41.5283203,36.5332031 41.5283203,34.1015625 L41.5283203,7.44873047 C41.5283203,5.01708984 40.8911133,3.16772461 39.6166992,1.90063477 C38.3422852,0.633544922 36.4819336,0 34.0356445,0 L7.49267578,0 C5.04638672,0 3.18603516,0.633544922 1.91162109,1.90063477 C0.637207031,3.16772461 0,5.01708984 0,7.44873047 L0,34.1015625 C0,36.5332031 0.637207031,38.3825684 1.91162109,39.6496582 C3.18603516,40.916748 5.04638672,41.550293 7.49267578,41.550293 Z M7.95410156,36.5185547 C7.00195312,36.5185547 6.27685547,36.2768555 5.77880859,35.793457 C5.28076172,35.3100586 5.03173828,34.5703125 5.03173828,33.5742188 L5.03173828,7.97607422 C5.03173828,6.97998047 5.28076172,6.24023438 5.77880859,5.75683594 C6.27685547,5.2734375 7.00195312,5.03173828 7.95410156,5.03173828 L33.5961914,5.03173828 C34.5336914,5.03173828 35.255127,5.2734375 35.760498,5.75683594 C36.2658691,6.24023438 36.5185547,6.97998047 36.5185547,7.97607422 L36.5185547,33.5742188 C36.5185547,34.5703125 36.2658691,35.3100586 35.760498,35.793457 C35.255127,36.2768555 34.5336914,36.5185547 33.5961914,36.5185547 L7.95410156,36.5185547 Z M32.1679688,20.7202148 C32.1679688,20.0610352 31.8969727,19.4677734 31.3549805,18.9404297 L23.8842773,11.6674805 C23.4741211,11.2719727 22.9760742,11.0742188 22.3901367,11.0742188 C21.8481445,11.0742188 21.394043,11.2573242 21.027832,11.6235352 C20.6616211,11.9897461 20.4785156,12.4658203 20.4785156,13.0517578 C20.4785156,13.6230469 20.690918,14.1064453 21.1157227,14.5019531 L23.6865234,16.9189453 L26.0375977,18.7426758 L21.6430664,18.5009766 L11.4916992,18.5009766 C10.8618164,18.5009766 10.3491211,18.717041 9.95361328,19.1491699 C9.55810547,19.5812988 9.36035156,20.1049805 9.36035156,20.7202148 C9.36035156,21.3500977 9.55810547,21.8774414 9.95361328,22.3022461 C10.3491211,22.7270508 10.8618164,22.9394531 11.4916992,22.9394531 L21.6430664,22.9394531 L26.0595703,22.7197266 L23.7304688,24.5214844 L21.1157227,26.9384766 C20.690918,27.3046875 20.4785156,27.7954102 20.4785156,28.4106445 C20.4785156,28.9819336 20.6616211,29.4543457 21.027832,29.8278809 C21.394043,30.201416 21.8481445,30.3881836 22.3901367,30.3881836 C22.9760742,30.3881836 23.4741211,30.1904297 23.8842773,29.7949219 L31.3549805,22.5219727 C31.8969727,21.9946289 32.1679688,21.394043 32.1679688,20.7202148 Z" id="Shape"/>
            </g>
        </g>
    </g>
</svg>