<?xml version="1.0" encoding="UTF-8"?>
<svg width="42px" height="42px" viewBox="0 0 42 42" version="1.1" xmlns="http://www.w3.org/2000/svg" xmlns:xlink="http://www.w3.org/1999/xlink">
    <title>relationshipsSub2</title>
    <g id="Home-Revamp-2021-V3" stroke="none" stroke-width="1" fill="none" fill-rule="evenodd">
        <g id="Home-Assets" transform="translate(-1263.000000, -7416.000000)" fill="#0096C6" fill-rule="nonzero">
            <g id="relationshipsSub2" transform="translate(1263.603027, 7416.942871)">
                <path d="M33.5522461,40.4516602 C38.1665039,40.4516602 40.4516602,38.1665039 40.4516602,33.6401367 L40.4516602,6.81152344 C40.4516602,2.28515625 38.1665039,0 33.5522461,0 L6.89941406,0 C2.30712891,0 0,2.26318359 0,6.81152344 L0,33.6401367 C0,38.1884766 2.30712891,40.4516602 6.89941406,40.4516602 L33.5522461,40.4516602 Z M33.5083008,36.9140625 L6.94335938,36.9140625 C4.74609375,36.9140625 3.53759766,35.7495117 3.53759766,33.4643555 L3.53759766,6.98730469 C3.53759766,4.70214844 4.74609375,3.53759766 6.94335938,3.53759766 L33.5083008,3.53759766 C35.6835938,3.53759766 36.9140625,4.70214844 36.9140625,6.98730469 L36.9140625,33.4643555 C36.9140625,35.7495117 35.6835938,36.9140625 33.5083008,36.9140625 Z M13.425293,30.9155273 C14.2602539,30.9155273 14.8754883,30.3222656 14.8754883,29.53125 L14.8754883,15.2709961 L14.8095703,14.2163086 L15.6665039,15.1171875 L17.9296875,17.4902344 C18.1933594,17.7539062 18.5449219,17.9077148 18.918457,17.9077148 C19.7314453,17.9077148 20.324707,17.3144531 20.324707,16.4794922 C20.324707,16.1279297 20.1269531,15.7104492 19.8852539,15.46875 L14.4799805,9.93164062 C13.9526367,9.38232422 13.0297852,9.29443359 12.3925781,9.93164062 L6.96533203,15.46875 C6.72363281,15.7543945 6.52587891,16.171875 6.52587891,16.4794922 C6.52587891,17.2924805 7.14111328,17.9077148 7.95410156,17.9077148 C8.32763672,17.9077148 8.67919922,17.7319336 8.94287109,17.4682617 L11.2060547,15.1171875 L12.0410156,14.2163086 L11.9970703,15.2929688 L11.9970703,29.53125 C11.9970703,30.3222656 12.6123047,30.9155273 13.425293,30.9155273 Z M28.1030273,30.4980469 L33.4863281,24.9829102 C33.75,24.6972656 33.9477539,24.3017578 33.9477539,23.9501953 C33.9477539,23.1152344 33.3764648,22.5439453 32.5415039,22.5439453 C32.1459961,22.5439453 31.7724609,22.6977539 31.5307617,22.9614258 L29.2675781,25.2905273 L28.4326172,26.1914062 L28.4765625,25.1586914 L28.4765625,10.8984375 C28.4765625,10.0854492 27.8613281,9.4921875 27.0483398,9.4921875 C26.2353516,9.4921875 25.6201172,10.0854492 25.6201172,10.8984375 L25.6201172,25.1806641 L25.6640625,26.2133789 L24.8291016,25.2905273 L22.565918,22.9614258 C22.2802734,22.6757812 21.9506836,22.5439453 21.5551758,22.5439453 C20.7202148,22.5439453 20.1708984,23.1152344 20.1708984,23.9501953 C20.1708984,24.2797852 20.324707,24.675293 20.5883789,24.9829102 L25.9936523,30.4980469 C26.4990234,31.0253906 27.5097656,31.1132812 28.1030273,30.4980469 Z" id="􀄎"></path>
            </g>
        </g>
    </g>
</svg>