<svg xmlns="http://www.w3.org/2000/svg" width="103" height="64" viewBox="0 0 103 64">
    <g fill="none" fill-rule="evenodd">
        <g fill="#00AEE6">
            <g transform="translate(-74.000000, -3355.000000) translate(74.000000, 3355.000000)">
                <path fill-rule="nonzero" d="M21.137 33.575c1.816 0 3.468-.48 4.955-1.439 1.486-.96 2.673-2.241 3.56-3.845.885-1.604 1.328-3.388 1.328-5.35 0-1.92-.443-3.67-1.329-5.252-.886-1.582-2.073-2.838-3.56-3.768-1.486-.93-3.138-1.396-4.954-1.396-1.802 0-3.446.47-4.933 1.407-1.487.937-2.677 2.197-3.57 3.779-.894 1.582-1.334 3.332-1.32 5.251 0 1.949.444 3.728 1.33 5.34.887 1.611 2.07 2.893 3.549 3.845 1.48.952 3.127 1.428 4.944 1.428zm25.356 0c1.817 0 3.468-.48 4.955-1.439 1.487-.96 2.67-2.241 3.549-3.845.878-1.604 1.318-3.388 1.318-5.35 0-1.92-.443-3.67-1.33-5.252-.886-1.582-2.072-2.838-3.559-3.768-1.487-.93-3.131-1.396-4.933-1.396s-3.45.47-4.944 1.407c-1.494.937-2.684 2.197-3.57 3.779-.886 1.582-1.33 3.332-1.33 5.251.015 1.949.462 3.728 1.34 5.34.88 1.611 2.059 2.893 3.538 3.845 1.48.952 3.135 1.428 4.966 1.428zm25.335 0c1.83 0 3.49-.48 4.976-1.439 1.487-.96 2.67-2.241 3.549-3.845s1.318-3.388 1.318-5.35c0-1.92-.443-3.67-1.329-5.252-.886-1.582-2.073-2.838-3.56-3.768-1.486-.93-3.138-1.396-4.954-1.396-1.802 0-3.446.47-4.933 1.407-1.487.937-2.674 2.197-3.56 3.779-.886 1.582-1.33 3.332-1.33 5.251.016 1.949.462 3.728 1.341 5.34.88 1.611 2.058 2.893 3.538 3.845 1.48.952 3.127 1.428 4.944 1.428zm-50.67-4.658c-.922 0-1.768-.264-2.537-.791-.77-.527-1.384-1.241-1.846-2.142-.461-.901-.692-1.916-.692-3.044 0-1.069.23-2.04.692-2.91.462-.873 1.077-1.568 1.846-2.088.769-.52 1.615-.78 2.538-.78.908 0 1.747.256 2.516.769.769.512 1.384 1.204 1.845 2.076.462.872.692 1.85.692 2.933 0 1.114-.23 2.124-.692 3.033-.461.908-1.073 1.626-1.834 2.153-.762.527-1.604.791-2.527.791zm25.335 0c-.923 0-1.769-.264-2.538-.791-.769-.527-1.384-1.241-1.845-2.142-.462-.901-.693-1.916-.693-3.044 0-1.069.231-2.04.693-2.91.461-.873 1.08-1.568 1.856-2.088.777-.52 1.619-.78 2.527-.78.923 0 1.765.256 2.527.769.762.512 1.373 1.204 1.835 2.076.461.872.692 1.85.692 2.933 0 1.114-.23 2.124-.692 3.033-.462.908-1.073 1.626-1.835 2.153-.762.527-1.604.791-2.527.791zm25.357 0c-.909 0-1.747-.264-2.516-.791-.77-.527-1.388-1.241-1.857-2.142-.469-.901-.703-1.916-.703-3.044 0-1.069.234-2.04.703-2.91.469-.873 1.088-1.568 1.857-2.088.769-.52 1.607-.78 2.516-.78.922 0 1.768.256 2.537.769.77.512 1.381 1.204 1.835 2.076.454.872.681 1.85.681 2.933 0 1.114-.227 2.124-.68 3.033-.455.908-1.067 1.626-1.836 2.153-.769.527-1.615.791-2.537.791zM34.672 54.339c3.999 0 5.998-1.406 5.998-4.218 0-1.626-.472-3.263-1.417-4.911-.945-1.648-2.281-3.168-4.01-4.56-1.728-1.391-3.786-2.512-6.174-3.361-2.388-.85-5.032-1.275-7.932-1.275-2.886 0-5.523.425-7.91 1.275-2.388.85-4.45 1.97-6.186 3.361-1.736 1.392-3.076 2.912-4.02 4.56-.946 1.648-1.418 3.285-1.418 4.91 0 2.813 2.007 4.22 6.02 4.22h27.049zm25.312 0c4.014 0 6.02-1.406 6.02-4.218 0-1.626-.472-3.263-1.416-4.911-.945-1.648-2.282-3.168-4.01-4.56-1.729-1.391-3.787-2.512-6.175-3.361-2.387-.85-5.031-1.275-7.932-1.275-1.714 0-3.343.161-4.889.484-1.545.322-2.992.769-4.34 1.34.718.542 1.381 1.124 1.99 1.747.607.622 1.153 1.27 1.636 1.944.82-.263 1.7-.472 2.637-.626.937-.154 1.926-.23 2.966-.23 2.27 0 4.289.3 6.054.9 1.765.6 3.259 1.355 4.482 2.263 1.223.909 2.15 1.846 2.78 2.813.63.967.944 1.824.944 2.57 0 .162-.044.283-.131.363-.088.08-.235.121-.44.121H44.054c.044.835-.01 1.64-.165 2.417-.153.776-.472 1.516-.955 2.22h17.05zm25.379 0c4.013 0 6.02-1.406 6.02-4.218 0-1.626-.472-3.263-1.417-4.911-.945-1.648-2.285-3.168-4.02-4.56-1.737-1.391-3.799-2.512-6.186-3.361-2.388-.85-5.032-1.275-7.932-1.275-1.729 0-3.366.165-4.911.495-1.546.33-2.985.772-4.318 1.329.703.557 1.359 1.142 1.967 1.758.608.615 1.153 1.267 1.637 1.955.82-.278 1.703-.494 2.647-.648.945-.154 1.938-.23 2.978-.23 2.27 0 4.288.3 6.053.9 1.765.6 3.256 1.355 4.472 2.263 1.215.909 2.142 1.846 2.78 2.813.636.967.955 1.824.955 2.57 0 .162-.04.283-.121.363-.08.08-.23.121-.45.121H69.41c.029.835-.033 1.64-.187 2.417-.154.776-.473 1.516-.956 2.22h17.095zm-50.537-4.636H7.47c-.22 0-.37-.04-.45-.12-.081-.081-.122-.202-.122-.363 0-.747.315-1.604.945-2.571.63-.967 1.557-1.904 2.78-2.813 1.223-.908 2.717-1.662 4.482-2.263 1.765-.6 3.776-.9 6.032-.9 2.27 0 4.288.3 6.053.9 1.765.6 3.256 1.355 4.472 2.263 1.215.909 2.142 1.846 2.78 2.813.636.967.955 1.824.955 2.57 0 .162-.044.283-.132.363-.088.08-.234.121-.44.121z"/>
                <ellipse cx="46.5" cy="23.5" rx="5.5" ry="6.5"/>
                <path d="M40.865 41.515c1.742 2.687 2.807 5.422 3.198 8.205.39 2.783 6.234 2.872 17.53.27-1.895-5.021-4.607-8.332-8.138-9.934-3.531-1.602-7.728-1.116-12.59 1.46z"/>
            </g>
        </g>
    </g>
</svg>
