<?xml version="1.0" encoding="UTF-8"?>
<svg width="46px" height="48px" viewBox="0 0 46 48" version="1.1" xmlns="http://www.w3.org/2000/svg" xmlns:xlink="http://www.w3.org/1999/xlink">
    <title>relationshipsSub3</title>
    <g id="Home-Revamp-2021-V3" stroke="none" stroke-width="1" fill="none" fill-rule="evenodd">
        <g id="Home-Assets" transform="translate(-1687.000000, -7412.000000)" fill="#0096C6" fill-rule="nonzero">
            <g id="relationshipsSub3" transform="translate(1687.354004, 7412.346191)">
                <path d="M36.2392578,2.70849609 C36.1132812,0.923828125 35.1054688,0 33.1738281,0 L11.862793,0 C9.93115234,0 8.92333984,0.923828125 8.79736328,2.70849609 L36.2392578,2.70849609 Z M40.3544922,8.52441406 C40.0395508,6.61376953 39.1367188,5.56396484 37.0371094,5.56396484 L7.99951172,5.56396484 C5.89990234,5.56396484 4.99707031,6.61376953 4.68212891,8.52441406 L40.3544922,8.52441406 Z M38.4228516,47.2412109 C42.8110352,47.2412109 45.015625,45.0576172 45.015625,40.7324219 L45.015625,18.4135742 C45.015625,14.109375 42.8110352,11.9257812 38.4228516,11.9257812 L6.59277344,11.9257812 C2.18359375,11.9257812 0,14.0883789 0,18.4135742 L0,40.7324219 C0,45.0576172 2.18359375,47.2412109 6.59277344,47.2412109 L38.4228516,47.2412109 Z M9.76318359,43.8608398 L6.63476562,43.8608398 C4.53515625,43.8608398 3.38037109,42.7270508 3.38037109,40.543457 L3.38037109,18.6025391 C3.38037109,16.4189453 4.53515625,15.3061523 6.63476562,15.3061523 L38.3808594,15.3061523 C40.4384766,15.3061523 41.6352539,16.4189453 41.6352539,18.6025391 L41.6352539,40.543457 C41.6352539,42.7270508 40.4384766,43.8608398 38.3808594,43.8608398 L35.2524414,43.8608398 C33.59375,39.199707 28.5756836,35.9243164 22.5078125,35.9243164 C16.4399414,35.9243164 11.421875,39.199707 9.76318359,43.8608398 Z M22.5078125,32.7329102 C26.1611328,32.7749023 29.0166016,29.6884766 29.0166016,25.6152344 C29.0166016,21.7729492 26.1611328,18.6235352 22.5078125,18.6235352 C18.8754883,18.6235352 15.9780273,21.7729492 15.99891,25.6152344 C16.0200195,29.6884766 18.8754883,32.690918 22.5078125,32.7329102 Z" id="ô€»"></path>
            </g>
        </g>
    </g>
</svg>