<svg xmlns="http://www.w3.org/2000/svg" xmlns:xlink="http://www.w3.org/1999/xlink" width="62" height="42" viewBox="0 0 62 42" version="1.1">
    <title>iconSection4.2</title>
    <g id="Final" stroke="none" stroke-width="1" fill="none" fill-rule="evenodd">
        <g id="CloseDeals-1281" transform="translate(-541.000000, -2191.000000)" fill="#00A33F" fill-rule="nonzero">
            <g id="Group-4" transform="translate(540.000000, 2191.854980)">
                <g id="ô€ˆ" transform="translate(1.603027, 0.000000)">
                    <path d="M42.0117188,20.3686523 C47.2192383,20.3686523 51.5039062,15.7104492 51.5039062,10.0415039 C51.5039062,4.43847656 47.2631836,0 42.0117188,0 C36.7822266,0 32.4975586,4.50439453 32.5194471,10.0854492 C32.5194471,15.7324219 36.7822266,20.3686523 42.0117188,20.3686523 Z M16.6992188,20.8520508 C21.2255859,20.8520508 24.9389648,16.7871094 24.9389648,11.7993164 C24.9389648,6.92138672 21.2695312,2.98828125 16.6992188,2.98828125 C12.1728516,2.98828125 8.4375,6.98730469 8.45937621,11.8432617 C8.45937621,16.809082 12.1728516,20.8520508 16.6992188,20.8520508 Z M42.0117187,17.0507812 C38.7817383,17.0507812 36.0571289,13.9746094 36.0571289,10.0854492 C36.0351562,6.26220703 38.737793,3.31787109 42.0117187,3.31787109 C45.2856445,3.31787109 47.9663086,6.21826172 47.9663086,10.0415039 C47.9663086,13.9306641 45.2416992,17.0507812 42.0117187,17.0507812 Z M16.6992188,17.578125 C13.996582,17.578125 11.7333984,15.0073242 11.7333984,11.8432617 C11.7333984,8.74511719 13.9746094,6.26220703 16.6992188,6.26220703 C19.4677734,6.26220703 21.6870117,8.70117188 21.6870117,11.7993164 C21.6870117,15.0073242 19.4018555,17.578125 16.6992188,17.578125 Z M4.46044922,41.0009766 L21.7089844,41.0009766 C20.6542969,40.4077148 19.8632812,39.0893555 20.0170898,37.7490234 L3.93310547,37.7490234 C3.47167969,37.7490234 3.27392578,37.5732422 3.27392578,37.1557617 C3.27392578,31.706543 9.4921875,26.6088867 16.6772461,26.6088867 C19.4238281,26.6088867 21.9287109,27.2680664 24.0600586,28.5205078 C24.7412109,27.6416016 25.5541992,26.8725586 26.5429688,26.1914062 C23.7084961,24.3237305 20.3027344,23.3569336 16.6772461,23.3569336 C7.47070312,23.3569336 0,30.0366211 0,37.3535156 C0,39.7924805 1.49414062,41.0009766 4.46044922,41.0009766 Z M28.190918,41.0009766 L55.7885742,41.0009766 C59.4580078,41.0009766 61.1938477,39.9023438 61.1938477,37.4853516 C61.1938477,31.7285156 53.9208984,23.4008789 41.9897461,23.4008789 C30.0585938,23.4008789 22.7856445,31.7285156 22.7856445,37.4853516 C22.7856445,39.9023438 24.543457,41.0009766 28.190918,41.0009766 Z M27.1362305,37.6831055 C26.5649414,37.6831055 26.3232422,37.5292969 26.3232422,37.0678711 C26.3232422,33.4643555 31.9042969,26.71875 41.9897461,26.71875 C52.0751953,26.71875 57.65625,33.4643555 57.65625,37.0678711 C57.65625,37.5292969 57.4145508,37.6831055 56.8432617,37.6831055 L27.1362305,37.6831055 Z" id="Shape"/>
                </g>
            </g>
        </g>
    </g>
</svg>