<svg xmlns="http://www.w3.org/2000/svg" width="69" height="64" viewBox="0 0 69 64">
    <g fill="none" fill-rule="evenodd">
        <g fill="#0096C6" fill-rule="nonzero">
            <g>
                <path d="M28.102 46.803c.988 0 1.648-.681 1.648-1.648V41.88c0-5.296 7.822-8.591 7.822-18.435 0-10.437-7.12-17.49-17.688-17.49-10.57 0-17.71 7.053-17.71 17.49 0 9.844 7.822 13.14 7.822 18.435v3.274c0 .967.681 1.648 1.648 1.648h16.458zm-2.527-4.131H14.193v-.923c0-6.812-7.778-10.063-7.778-18.303 0-7.954 5.383-13.25 13.469-13.25 8.086 0 13.469 5.296 13.469 13.25 0 8.24-7.778 11.491-7.778 18.303v.923zm2.021 10.371c1.23 0 2.241-1.01 2.241-2.241 0-1.209-1.01-2.241-2.24-2.241H12.192c-1.252 0-2.24 1.032-2.24 2.24 0 1.231.988 2.242 2.24 2.242h15.403zm-7.712 5.647c3.34 0 5.735-1.538 5.954-3.867H13.93c.22 2.329 2.593 3.867 5.955 3.867z" transform="translate(-288.000000, -836.000000) translate(288.000000, 836.000000)"/>
            </g>
        </g>
    </g>
</svg>
