<?xml version="1.0" encoding="UTF-8"?>
<svg width="48px" height="49px" viewBox="0 0 48 49" version="1.1" xmlns="http://www.w3.org/2000/svg" xmlns:xlink="http://www.w3.org/1999/xlink">
    <title>growIcon</title>
    <g id="Home-Revamp-2021-V3" stroke="none" stroke-width="1" fill="none" fill-rule="evenodd">
        <g id="Home-Assets" transform="translate(-1402.000000, -8694.000000)">
            <g id="growIcon" transform="translate(1402.000000, 8694.949219)">
                <rect id="Rectangle" x="0" y="0" width="48" height="48"></rect>
                <path d="M24.2213438,25.7949219 C24.8365781,25.7949219 25.4107969,25.5625 26.1764219,25.125 L36.7447813,19 C37.9479063,18.2890625 38.522125,17.6601562 38.522125,16.6894531 C38.522125,15.7050781 37.9479063,15.0761719 36.7447813,14.3652344 L26.1764219,8.24023438 C25.4107969,7.80273438 24.8365781,7.5703125 24.2213438,7.5703125 C23.6061094,7.5703125 23.0318906,7.80273438 22.2525938,8.24023438 L11.6979063,14.3652344 C10.4947813,15.0761719 9.9205625,15.7050781 9.9205625,16.6894531 C9.9205625,17.6601562 10.4947813,18.2890625 11.6979063,19 L22.2525938,25.125 C23.0318906,25.5625 23.6061094,25.7949219 24.2213438,25.7949219 Z M24.2213438,22.5 C24.0572813,22.5 23.9068906,22.4453125 23.7154844,22.3359375 L13.9674375,16.8125 C13.91275,16.7851562 13.8717344,16.7441406 13.8717344,16.6894531 C13.8717344,16.6210938 13.91275,16.5800781 13.9674375,16.5527344 L23.7154844,11.0292969 C23.9068906,10.9199219 24.0572813,10.8652344 24.2213438,10.8652344 C24.3854063,10.8652344 24.5357969,10.9199219 24.7272031,11.0292969 L34.47525,16.5527344 C34.5299375,16.5800781 34.5572813,16.6210938 34.5572813,16.6894531 C34.5572813,16.7441406 34.5299375,16.7851562 34.47525,16.8125 L24.7272031,22.3359375 C24.5357969,22.4453125 24.3854063,22.5 24.2213438,22.5 Z M24.2213438,32.6035156 C24.7955625,32.6035156 25.3014219,32.34375 26.0123594,31.9199219 L37.2916563,25.3027344 C38.0982969,24.8242188 38.5357969,24.2226562 38.5357969,23.4707031 C38.5357969,22.71875 38.084625,22.1308594 37.5240781,21.7753906 L25.2330625,28.9121094 C24.8365781,29.1445312 24.522125,29.2949219 24.2213438,29.2949219 C23.9068906,29.2949219 23.6061094,29.1445312 23.1959531,28.9121094 L10.9186094,21.7753906 C10.3580625,22.1308594 9.90689063,22.71875 9.90689063,23.4707031 C9.90689063,24.2226562 10.3580625,24.8378906 11.1510313,25.3027344 L22.4303281,31.9199219 C23.1412656,32.34375 23.647125,32.6035156 24.2213438,32.6035156 Z M24.2213438,39.0703125 C24.7955625,39.0703125 25.3014219,38.8105469 26.0123594,38.3867188 L37.2916563,31.7695312 C38.084625,31.3046875 38.5357969,30.6894531 38.5357969,29.9238281 C38.5357969,29.1855469 38.084625,28.5976562 37.5240781,28.2421875 L25.2330625,35.3789062 C24.8365781,35.6113281 24.522125,35.7617188 24.2213438,35.7617188 C23.9068906,35.7617188 23.6061094,35.6113281 23.1959531,35.3789062 L10.9186094,28.2421875 C10.3580625,28.5976562 9.90689063,29.1855469 9.90689063,29.9238281 C9.90689063,30.6894531 10.3580625,31.3046875 11.1510313,31.7695312 L22.4303281,38.3867188 C23.1412656,38.8105469 23.647125,39.0703125 24.2213438,39.0703125 Z" id="ô€ž" fill="#742FD8" fill-rule="nonzero"></path>
            </g>
        </g>
    </g>
</svg>