<svg xmlns="http://www.w3.org/2000/svg" xmlns:xlink="http://www.w3.org/1999/xlink" width="36" height="45" viewBox="0 0 36 45" version="1.1">
    <title>Combined Shape</title>
    <g id="Final" stroke="none" stroke-width="1" fill="none" fill-rule="evenodd">
        <g id="CloseDeals-1281" transform="translate(-288.000000, -7985.000000)" fill="#00BF4A" fill-rule="nonzero">
            <g id="Group-10" transform="translate(288.000000, 7985.000000)">
                <path d="M28.7220383,0 C30.9149551,0 32.5637627,0.56224823 33.6684608,1.68674469 C34.773159,2.81124115 35.3255081,4.47727203 35.3255081,6.68483734 L35.3255081,38.1242752 C35.3255081,40.3318405 34.773159,41.9946098 33.6684608,43.1125832 C32.5637627,44.2305565 30.9149551,44.7895432 28.7220383,44.7895432 L6.60346985,44.7895432 C4.42382812,44.7895432 2.77833939,44.2305565 1.66700363,43.1125832 C0.555667877,41.9946098 0,40.3318405 0,38.1242752 L0,6.68483734 C0,4.47727203 0.555667877,2.81124115 1.66700363,1.68674469 C2.77833939,0.56224823 4.42382812,0 6.60346985,0 Z M28.5,34 C26.5670034,34 25,35.5670034 25,37.5 C25,39.4329966 26.5670034,41 28.5,41 C30.4329966,41 32,39.4329966 32,37.5 C32,35.5670034 30.4329966,34 28.5,34 Z M17.5,34 L7.5,34 C5.56700338,34 4,35.5670034 4,37.5 C4,39.4329966 5.56700338,41 7.5,41 L17.5,41 C19.4329966,41 21,39.4329966 21,37.5 C21,35.5670034 19.4329966,34 17.5,34 Z M7.5,25 C5.56700338,25 4,26.5670034 4,28.5 C4,30.4329966 5.56700338,32 7.5,32 C9.43299662,32 11,30.4329966 11,28.5 C11,26.5670034 9.43299662,25 7.5,25 Z M18,25 C16.0670034,25 14.5,26.5670034 14.5,28.5 C14.5,30.4329966 16.0670034,32 18,32 C19.9329966,32 21.5,30.4329966 21.5,28.5 C21.5,26.5670034 19.9329966,25 18,25 Z M28.5,25 C26.5670034,25 25,26.5670034 25,28.5 C25,30.4329966 26.5670034,32 28.5,32 C30.4329966,32 32,30.4329966 32,28.5 C32,26.5670034 30.4329966,25 28.5,25 Z M7.5,16 C5.56700338,16 4,17.5670034 4,19.5 C4,21.4329966 5.56700338,23 7.5,23 C9.43299662,23 11,21.4329966 11,19.5 C11,17.5670034 9.43299662,16 7.5,16 Z M18,16 C16.0670034,16 14.5,17.5670034 14.5,19.5 C14.5,21.4329966 16.0670034,23 18,23 C19.9329966,23 21.5,21.4329966 21.5,19.5 C21.5,17.5670034 19.9329966,16 18,16 Z M28.5,16 C26.5670034,16 25,17.5670034 25,19.5 C25,21.4329966 26.5670034,23 28.5,23 C30.4329966,23 32,21.4329966 32,19.5 C32,17.5670034 30.4329966,16 28.5,16 Z M29.15,3.000136 L6.15,3.000136 C4.49314575,3.000136 3.15,4.34328175 3.15,6.000136 L3.15,10.000136 C3.15,11.6569902 4.49314575,13.000136 6.15,13.000136 L29.15,13.000136 C30.8068542,13.000136 32.15,11.6569902 32.15,10.000136 L32.15,6.000136 C32.15,4.34328175 30.8068542,3.000136 29.15,3.000136 Z" id="Combined-Shape"/>
            </g>
        </g>
    </g>
</svg>