<?xml version="1.0" encoding="UTF-8"?>
<svg width="53px" height="44px" viewBox="0 0 53 44" version="1.1" xmlns="http://www.w3.org/2000/svg" xmlns:xlink="http://www.w3.org/1999/xlink">
    <title>projectsSub3</title>
    <g id="Home-Revamp-2021-V3" stroke="none" stroke-width="1" fill="none" fill-rule="evenodd">
        <g id="Home-Assets" transform="translate(-1697.000000, -7807.000000)" fill="#FF9F0A" fill-rule="nonzero">
            <g id="projectsSub3" transform="translate(1697.714912, 7807.657227)">
                <path d="M44.7787405,28.8832114 C45.2621389,28.8903809 45.6869436,28.6376953 46.0531545,28.125 L50.8871389,21.3134766 C51.326592,20.6982422 51.4474416,20.1525879 51.2496877,19.6765137 C51.0519338,19.2004395 50.5648733,18.9624023 49.7885061,18.9624023 L46.9120881,18.9627734 L46.8672586,18.5674095 C46.6211534,16.6526985 46.1154104,14.8141479 45.3500295,13.0517578 C44.2367483,10.4882812 42.6950002,8.22875977 40.7247854,6.27319336 C38.7545705,4.31762695 36.4840627,2.78320312 33.9132619,1.66992187 C31.3424612,0.556640625 28.592217,0 25.6625295,0 C22.5570608,0 19.6493459,0.637207031 16.939385,1.91162109 C14.2294241,3.18603516 11.9076467,4.89990234 9.97405296,7.05322266 C9.5199514,7.52197266 9.30022484,8.02734375 9.31487327,8.56933594 C9.32952171,9.11132812 9.54924827,9.55810547 9.97405296,9.90966797 C10.3842092,10.2612305 10.845635,10.4150391 11.3583303,10.3710937 C11.8710256,10.3271484 12.3470998,10.0854492 12.786553,9.64599609 C14.3685842,7.90283203 16.269219,6.51123047 18.4884573,5.47119141 C20.7076955,4.43115234 23.099053,3.91113281 25.6625295,3.91113281 C28.0941701,3.91113281 30.3573537,4.36523437 32.4520803,5.2734375 C34.5468069,6.18164062 36.3888479,7.42675781 37.9782034,9.00878906 C39.5675588,10.5908203 40.8090139,12.4255371 41.7025686,14.5129395 C42.2769966,15.854841 42.6698139,17.2587928 42.8810204,18.724795 L42.9110881,18.9627734 L39.7689748,18.9624023 C39.0072561,18.9624023 38.5275198,19.2004395 38.3297659,19.6765137 C38.1320119,20.1525879 38.2528616,20.690918 38.6923147,21.2915039 L43.5043264,28.125 C43.8705373,28.6230469 44.295342,28.8757324 44.7787405,28.8832114 Z M25.6625295,42.6928711 C28.7826467,42.6928711 31.7013479,42.052002 34.418633,40.7702637 C37.1359182,39.4885254 39.4613576,37.7709961 41.3949514,35.6176758 C41.8344045,35.1489258 42.0431448,34.6398926 42.0211721,34.0905762 C41.9991994,33.5412598 41.783135,33.0981445 41.3729787,32.7612305 C40.9628225,32.409668 40.4977346,32.2558594 39.9777151,32.2998047 C39.4576955,32.34375 38.9852834,32.5854492 38.5604787,33.0249023 C36.9784475,34.7973633 35.0778127,36.1999512 32.8585744,37.232666 C30.6393362,38.2653809 28.2406545,38.7817383 25.6625295,38.7817383 C23.2455373,38.7817383 20.9860159,38.3312988 18.8839651,37.4304199 C16.7819143,36.529541 14.9362112,35.2844238 13.3468557,33.6950684 C11.7575002,32.1057129 10.512383,30.267334 9.61150413,28.1799316 C9.0109182,26.7883301 8.61052757,25.3267415 8.41033226,23.795166 L8.40208812,23.7307734 L11.5341116,23.7304688 C12.3104787,23.7304688 12.7938772,23.4924316 12.9843069,23.0163574 C13.1747366,22.5402832 13.0575491,22.0019531 12.6327444,21.4013672 L7.79875999,14.5678711 C7.44719749,14.0551758 7.02971702,13.7988281 6.54631859,13.7988281 C6.06292015,13.7988281 5.63811546,14.0551758 5.27190452,14.5678711 L0.459892805,21.3793945 C0.0204396802,21.9946289 -0.104072039,22.5402832 0.086357649,23.0163574 C0.276787336,23.4924316 0.760185774,23.7304688 1.53655296,23.7304688 L4.41308812,23.7307734 L4.45887333,24.1150761 C4.70655208,26.0367107 5.21559959,27.8787231 5.98601585,29.6411133 C7.10662132,32.2045898 8.64836937,34.4641113 10.61126,36.4196777 C12.5741506,38.3752441 14.8409963,39.909668 17.4117971,41.0229492 C19.9825979,42.1362305 22.732842,42.6928711 25.6625295,42.6928711 Z" id="􀊯"></path>
            </g>
        </g>
    </g>
</svg>