<svg xmlns="http://www.w3.org/2000/svg" width="69" height="64" viewBox="0 0 69 64">
    <g fill="none" fill-rule="evenodd">
        <g fill="#00AEE6" fill-rule="nonzero">
            <g>
                <path d="M32.453 57.086c2.402 0 4.233-.63 5.493-1.89 1.26-1.26 1.89-3.105 1.89-5.537V16.634c0-2.417-.63-4.262-1.89-5.537-1.26-1.274-3.091-1.911-5.493-1.911H8.986c-2.417 0-4.252.637-5.504 1.911-1.253 1.275-1.879 3.12-1.879 5.537V49.66c0 2.432.626 4.278 1.879 5.537 1.252 1.26 3.087 1.89 5.504 1.89h23.467zm-.506-4.878H9.491c-1.01 0-1.765-.253-2.263-.758s-.747-1.242-.747-2.208v-32.19c0-.952.249-1.685.747-2.198.498-.512 1.252-.769 2.263-.769h22.456c1.011 0 1.762.257 2.252.77.491.512.737 1.245.737 2.197v32.19c0 .966-.246 1.703-.737 2.208-.49.505-1.241.758-2.252.758zm-20.412-30.08c.571 0 1.054-.202 1.45-.605.395-.403.593-.89.593-1.461 0-.557-.198-1.036-.593-1.44-.396-.402-.879-.603-1.45-.603-.557 0-1.04.201-1.45.604-.41.403-.616.882-.616 1.439s.205 1.04.615 1.45c.41.41.894.615 1.45.615zm18.962-.572c.38 0 .718-.146 1.01-.44.294-.292.44-.644.44-1.054 0-.38-.143-.721-.428-1.022-.286-.3-.626-.45-1.022-.45H17.445c-.41 0-.758.15-1.043.45-.286.3-.429.641-.429 1.022 0 .41.147.762.44 1.055.293.293.637.44 1.032.44h13.052zm-18.962 6.987c.571 0 1.054-.201 1.45-.604.395-.403.593-.882.593-1.439 0-.571-.198-1.051-.593-1.44-.396-.387-.879-.581-1.45-.581-.572 0-1.059.197-1.462.593-.402.395-.604.871-.604 1.428 0 .557.202 1.036.604 1.44.403.402.89.603 1.462.603zm18.962-.57c.396 0 .736-.144 1.022-.43.285-.285.428-.633.428-1.043 0-.41-.143-.754-.428-1.033-.286-.278-.626-.417-1.022-.417H17.445c-.41 0-.758.139-1.043.417-.286.279-.429.623-.429 1.033 0 .41.143.758.429 1.044.285.285.633.428 1.043.428h13.052zm-18.962 7.316c.571 0 1.054-.198 1.45-.593.395-.396.593-.88.593-1.45 0-.572-.198-1.055-.593-1.45-.396-.396-.879-.594-1.45-.594-.557 0-1.04.202-1.45.604-.41.403-.616.883-.616 1.44 0 .556.205 1.036.615 1.439.41.403.894.604 1.45.604zm18.962-.571c.38 0 .718-.147 1.01-.44.294-.293.44-.637.44-1.032 0-.41-.143-.758-.428-1.044-.286-.286-.626-.429-1.022-.429H17.445c-.41 0-.758.143-1.043.429-.286.286-.429.633-.429 1.044 0 .395.147.74.44 1.032.293.293.637.44 1.032.44h13.052z" transform="translate(-288.000000, -7857.000000) translate(288.000000, 7857.000000)"/>
            </g>
        </g>
    </g>
</svg>
