<?xml version="1.0" encoding="UTF-8"?>
<svg width="46px" height="46px" viewBox="0 0 46 46" xmlns="http://www.w3.org/2000/svg" xmlns:xlink="http://www.w3.org/1999/xlink" version="1.1">
 <!-- Generated by Pixelmator Pro 2.1.2 -->
 <g id="group">
  <g id="group-1">
   <g id="group-2">
    <path id="Path" d="M23.345 45.548 C35.606 45.548 45.757 35.375 45.757 23.136 45.757 10.875 35.584 0.724 23.323 0.724 11.084 0.724 0.933 10.875 0.933 23.136 0.933 35.375 11.106 45.548 23.345 45.548 Z M23.345 41.812 C12.975 41.812 4.69 33.507 4.69 23.136 4.69 12.765 12.952 4.459 23.323 4.459 33.694 4.459 42 12.765 42.022 23.136 42.044 33.506 33.716 41.812 23.345 41.812 Z M23.323 25.509 C24.18 25.509 24.861 24.849 24.861 23.971 L24.861 9.16 C24.861 8.303 24.181 7.644 23.323 7.644 22.466 7.644 21.807 8.304 21.807 9.16 L21.807 22.454 11.854 22.454 C10.974 22.454 10.315 23.113 10.315 23.97 10.315 24.849 10.975 25.508 11.854 25.508 L23.324 25.508 Z" fill="#0096c6" fill-opacity="1" stroke="none"/>
   </g>
  </g>
 </g>
</svg>
