<?xml version="1.0" encoding="UTF-8"?>
<svg width="28px" height="28px" viewBox="0 0 28 28" version="1.1" xmlns="http://www.w3.org/2000/svg" xmlns:xlink="http://www.w3.org/1999/xlink">
    <title>connect-icon</title>
    <g id="Desktop-Nav---Final" stroke="none" stroke-width="1" fill="none" fill-rule="evenodd">
        <g id="Nav-Assets" transform="translate(-69.000000, -82.000000)" fill="#0096C6" fill-rule="nonzero">
            <g id="connect-icon" transform="translate(69.000000, 82.000000)">
                <g id="Outlined-version" transform="translate(0.000000, 0.000000)">
                    <path d="M12.8932758,17.7421875 L14.7194477,15.9326172 C14.0968891,15.8330078 13.416225,15.5424805 13.0260883,15.1523438 C11.7726703,13.8989258 11.7643695,12.1640625 13.0094867,10.9106445 L15.9396625,7.98876953 C17.1930805,6.74365234 18.919643,6.74365234 20.173061,7.99707031 C21.4347797,9.25878906 21.4430805,10.9936523 20.1896625,12.2470703 L19.5006977,12.9360352 C19.8825336,13.8076172 20.0817524,14.9863281 19.7248188,15.9990234 L21.916225,13.8325195 C24.1408344,11.6411133 24.115932,8.48681641 21.9079242,6.27880859 C19.6916156,4.05419922 16.5539203,4.0625 14.3542133,6.26220703 L11.291225,9.32519531 C9.0832172,11.5249023 9.0832172,14.6708984 11.2995258,16.8789062 C11.6564594,17.2358398 12.2873188,17.6010742 12.8932758,17.7421875 Z M14.0553852,21.6601562 L17.1183735,18.6054688 C19.3263813,16.3974609 19.3263813,13.2597656 17.1100727,11.043457 C16.7531391,10.6865234 16.1222797,10.3295898 15.5163227,10.1801758 L13.68185,11.9980469 C14.3127094,12.0893555 14.9933735,12.3881836 15.3752094,12.7700195 C16.6369281,14.0317383 16.6452289,15.7666016 15.4001117,17.0117188 L12.469936,19.9335938 C11.216518,21.1870117 9.4816547,21.1787109 8.23653751,19.925293 C6.96651798,18.6635742 6.96651798,16.9287109 8.21163517,15.6835937 L8.9089008,14.9946289 C8.52706486,14.1147461 8.32784611,12.9360352 8.6847797,11.9233398 L6.49337345,14.0898438 C4.26876408,16.28125 4.29366642,19.4355469 6.50167423,21.6518555 C8.71798283,23.8681641 11.8556781,23.8681641 14.0553852,21.6601562 Z"></path>
                </g>
            </g>
        </g>
    </g>
</svg>