<?xml version="1.0" encoding="UTF-8"?>
<svg width="64px" height="64px" viewBox="0 0 64 64" version="1.1" xmlns="http://www.w3.org/2000/svg" xmlns:xlink="http://www.w3.org/1999/xlink">
    <title>industrySub5</title>
    <g id="Home-Revamp-2021-V3" stroke="none" stroke-width="1" fill="none" fill-rule="evenodd">
        <g id="Desktop-HD" transform="translate(-1336.000000, -6971.000000)">
            <g id="industrySub5" transform="translate(1336.000000, 6971.000000)">
                <rect id="Rectangle" x="0" y="0" width="64" height="64"></rect>
                <path d="M35.895102,55.5805664 C38.1363129,55.5805664 39.5425629,54.0205078 39.5425629,51.581543 L39.5425629,12.7338867 C39.5425629,10.2949219 38.1363129,8.73486328 35.895102,8.73486328 L9.70369571,8.73486328 C7.46248477,8.73486328 6.05623477,10.2949219 6.05623477,12.7338867 L6.05623477,51.581543 C6.05623477,54.0205078 7.46248477,55.5805664 9.70369571,55.5805664 L35.895102,55.5805664 Z M19.7671723,21.4790039 L15.372641,21.4790039 C14.8233246,21.4790039 14.4717621,21.1054688 14.4717621,20.5341797 L14.4717621,16.2714844 C14.4717621,15.722168 14.8233246,15.3266602 15.372641,15.3266602 L19.7671723,15.3266602 C20.3164887,15.3266602 20.7119965,15.722168 20.7119965,16.2714844 L20.7119965,20.5341797 C20.7119965,21.1054688 20.3164887,21.4790039 19.7671723,21.4790039 Z M30.3799652,21.4790039 L26.0074066,21.4790039 C25.4361176,21.4790039 25.0845551,21.1054688 25.0845551,20.5341797 L25.0845551,16.2714844 C25.0845551,15.722168 25.4361176,15.3266602 26.0074066,15.3266602 L30.3799652,15.3266602 C30.9292816,15.3266602 31.3247895,15.722168 31.3247895,16.2714844 L31.3247895,20.5341797 C31.3247895,21.1054688 30.9292816,21.4790039 30.3799652,21.4790039 Z M54.1543793,55.5805664 C56.3736176,55.5805664 57.7798676,54.0205078 57.7798676,51.581543 L57.7798676,23.5444336 C57.7798676,21.1054688 56.3736176,19.5454102 54.1543793,19.5454102 L42.5528168,19.5454102 L42.5528168,51.581543 C42.5528168,53.0537109 42.2012543,54.394043 41.4761566,55.5805664 L54.1543793,55.5805664 Z M19.7671723,30.4438477 L15.372641,30.4438477 C14.8233246,30.4438477 14.4717621,30.0703125 14.4717621,29.4990234 L14.4717621,25.2363281 C14.4717621,24.6870117 14.8233246,24.2915039 15.372641,24.2915039 L19.7671723,24.2915039 C20.3164887,24.2915039 20.7119965,24.6870117 20.7119965,25.2363281 L20.7119965,29.4990234 C20.7119965,30.0703125 20.3164887,30.4438477 19.7671723,30.4438477 Z M30.3799652,30.4438477 L26.0074066,30.4438477 C25.4361176,30.4438477 25.0845551,30.0703125 25.0845551,29.4990234 L25.0845551,25.2363281 C25.0845551,24.6870117 25.4361176,24.2915039 26.0074066,24.2915039 L30.3799652,24.2915039 C30.9292816,24.2915039 31.3247895,24.6870117 31.3247895,25.2363281 L31.3247895,29.4990234 C31.3247895,30.0703125 30.9292816,30.4438477 30.3799652,30.4438477 Z M51.9571137,31.4545898 L48.3096527,31.4545898 C47.8262543,31.4545898 47.5406098,31.125 47.5406098,30.6635742 L47.5406098,27.1479492 C47.5406098,26.6865234 47.8262543,26.3789062 48.3096527,26.3789062 L51.9571137,26.3789062 C52.4185395,26.3789062 52.7261566,26.6865234 52.7261566,27.1479492 L52.7261566,30.6635742 C52.7261566,31.125 52.4185395,31.4545898 51.9571137,31.4545898 Z M19.7671723,39.4086914 L15.372641,39.4086914 C14.8233246,39.4086914 14.4717621,39.0131836 14.4717621,38.4638672 L14.4717621,34.2011719 C14.4717621,33.6298828 14.8233246,33.2563477 15.372641,33.2563477 L19.7671723,33.2563477 C20.3164887,33.2563477 20.7119965,33.6298828 20.7119965,34.2011719 L20.7119965,38.4638672 C20.7119965,39.0131836 20.3164887,39.4086914 19.7671723,39.4086914 Z M30.3799652,39.4086914 L26.0074066,39.4086914 C25.4361176,39.4086914 25.0845551,39.0131836 25.0845551,38.4638672 L25.0845551,34.2011719 C25.0845551,33.6298828 25.4361176,33.2563477 26.0074066,33.2563477 L30.3799652,33.2563477 C30.9292816,33.2563477 31.3247895,33.6298828 31.3247895,34.2011719 L31.3247895,38.4638672 C31.3247895,39.0131836 30.9292816,39.4086914 30.3799652,39.4086914 Z M51.9571137,40.0898438 L48.3096527,40.0898438 C47.8262543,40.0898438 47.5406098,39.7822266 47.5406098,39.3208008 L47.5406098,35.8051758 C47.5406098,35.34375 47.8262543,35.0361328 48.3096527,35.0361328 L51.9571137,35.0361328 C52.4185395,35.0361328 52.7261566,35.34375 52.7261566,35.8051758 L52.7261566,39.3208008 C52.7261566,39.7822266 52.4185395,40.0898438 51.9571137,40.0898438 Z M30.5996918,52.0429688 L15.1968598,52.0429688 L15.1968598,44.9018555 C15.1968598,43.8911133 15.8560395,43.2319336 16.8667816,43.2319336 L28.9297699,43.2319336 C29.9405121,43.2319336 30.5996918,43.8911133 30.5996918,44.9018555 L30.5996918,52.0429688 Z M51.9571137,48.7470703 L48.3096527,48.7470703 C47.8262543,48.7470703 47.5406098,48.4394531 47.5406098,47.9780273 L47.5406098,44.4624023 C47.5406098,44.0009766 47.8262543,43.6713867 48.3096527,43.6713867 L51.9571137,43.6713867 C52.4185395,43.6713867 52.7261566,44.0009766 52.7261566,44.4624023 L52.7261566,47.9780273 C52.7261566,48.4394531 52.4185395,48.7470703 51.9571137,48.7470703 Z" id="ô€“" fill="#B82B00" fill-rule="nonzero"></path>
            </g>
        </g>
    </g>
</svg>