<?xml version="1.0" encoding="UTF-8"?>
<svg width="48px" height="48px" viewBox="0 0 48 48" version="1.1" xmlns="http://www.w3.org/2000/svg" xmlns:xlink="http://www.w3.org/1999/xlink">
    <title>relationshipIcon</title>
    <g id="Home-Revamp-2021-V3" stroke="none" stroke-width="1" fill="none" fill-rule="evenodd">
        <g id="Home-Assets" transform="translate(-804.000000, -8689.000000)">
            <g id="relationshipIcon" transform="translate(804.000000, 8689.000000)">
                <rect id="Rectangle" x="0" y="0" width="48" height="48"></rect>
                <path d="M30.4534063,24.3339844 C33.8030156,24.3339844 36.5100469,21.4082031 36.5100469,17.7851562 C36.5100469,14.2304688 33.7893438,11.3730469 30.4534063,11.3730469 C27.1311406,11.3730469 24.3967656,14.2578125 24.3967656,17.7988281 C24.4104375,21.4082031 27.1037969,24.3339844 30.4534063,24.3339844 Z M14.5256719,24.6484375 C17.4377812,24.6484375 19.8030156,22.0644531 19.8030156,18.8789062 C19.8030156,15.7753906 17.4377812,13.2460938 14.5256719,13.2460938 C11.6272344,13.2460938 9.23465625,15.8027344 9.24826982,18.8925781 C9.24826982,22.078125 11.6135625,24.6484375 14.5256719,24.6484375 Z M30.4534062,21.6953125 C28.6487187,21.6953125 27.1311406,20 27.1311406,17.7988281 C27.1174687,15.6660156 28.6487187,14.0117188 30.4534062,14.0117188 C32.2717656,14.0117188 33.7756719,15.6523438 33.7756719,17.7851562 C33.7756719,19.9726562 32.2717656,21.6953125 30.4534062,21.6953125 Z M14.5256719,22.0507812 C13.0764531,22.0507812 11.8459844,20.65625 11.8459844,18.8925781 C11.8323125,17.2109375 13.0764531,15.84375 14.5256719,15.84375 C15.9885625,15.84375 17.2190313,17.1835938 17.2190313,18.8789062 C17.2190313,20.65625 15.9885625,22.0507812 14.5256719,22.0507812 Z M17.6018438,37.2402344 C16.7815313,36.7480469 16.2756719,35.6269531 16.371375,34.6425781 L7.10184375,34.6425781 C6.85575,34.6425781 6.76004688,34.5332031 6.76004688,34.3144531 C6.76004688,31.3886719 10.2873906,28.5449219 14.512,28.5449219 C15.8928594,28.5449219 17.4241094,28.9003906 18.4905156,29.4746094 C18.9690313,28.7089844 19.5842656,28.0664062 20.4455938,27.5195312 C18.7502813,26.5214844 16.5491094,25.9609375 14.512,25.9609375 C8.68778125,25.9609375 3.98465625,30.0761719 3.98465625,34.6152344 C3.98465625,36.3378906 5.01004688,37.2402344 7.06082813,37.2402344 L17.6018438,37.2402344 Z M38.9162969,37.2265625 C41.3498906,37.2265625 42.5393438,36.4335938 42.5393438,34.7382812 C42.5393438,30.8417969 37.7131719,25.9746094 30.4534063,25.9746094 C23.1936406,25.9746094 18.3537969,30.8417969 18.3537969,34.7382812 C18.3537969,36.4335938 19.54325,37.2265625 21.9768438,37.2265625 L38.9162969,37.2265625 Z M39.1760625,34.5878906 L21.73075,34.5878906 C21.4299688,34.5878906 21.3205938,34.4921875 21.3205938,34.2597656 C21.3205938,32.2910156 24.6291875,28.6132812 30.4534063,28.6132812 C36.2639531,28.6132812 39.5725469,32.2910156 39.5725469,34.2597656 C39.5725469,34.4921875 39.4631719,34.5878906 39.1760625,34.5878906 Z" id="􀉫" fill="#0075A2" fill-rule="nonzero"></path>
            </g>
        </g>
    </g>
</svg>