<?xml version="1.0" encoding="UTF-8"?>
<svg width="28px" height="28px" viewBox="0 0 28 28" version="1.1" xmlns="http://www.w3.org/2000/svg" xmlns:xlink="http://www.w3.org/1999/xlink">
    <title>daylitehelps-icon</title>
    <g id="Desktop-Nav---Final" stroke="none" stroke-width="1" fill="none" fill-rule="evenodd">
        <g id="Nav-Assets" transform="translate(-31.000000, -34.000000)" fill="#FA6400" fill-rule="nonzero">
            <g id="Outlined-version" transform="translate(31.000000, 34.000000)">
                <path d="M14.3144531,7.06445312 C14.7832031,7.06445312 15.1738281,6.67382812 15.1738281,6.21484375 L15.1738281,4.1640625 C15.1738281,3.70507812 14.7832031,3.31445312 14.3144531,3.31445312 C13.8554688,3.31445312 13.4648438,3.70507812 13.4648438,4.1640625 L13.4648438,6.21484375 C13.4648438,6.67382812 13.8554688,7.06445312 14.3144531,7.06445312 Z M20.3496094,9.0859375 L21.8046875,7.63085938 C22.1367188,7.29882812 22.1367188,6.75195312 21.8046875,6.41992188 C21.4824219,6.09765625 20.9355469,6.09765625 20.6132812,6.41992188 L19.1386719,7.88476562 C18.8164062,8.21679688 18.8164062,8.76367188 19.1386719,9.0859375 C19.4707031,9.41796875 20.0175781,9.42773438 20.3496094,9.0859375 Z M9.48046875,9.0859375 C9.8125,8.7734375 9.8125,8.20703125 9.49023438,7.88476562 L8.03515625,6.41992188 C7.72265625,6.10742188 7.16601562,6.09765625 6.83398438,6.41992188 C6.51171875,6.7421875 6.51171875,7.29882812 6.82421875,7.62109375 L8.27929688,9.0859375 C8.61132812,9.41796875 9.15820312,9.41796875 9.48046875,9.0859375 Z M14.3144531,18.9003906 C17.0292969,18.9003906 19.2851562,16.6347656 19.2851562,13.9101562 C19.2851562,11.1855469 17.0292969,8.9296875 14.3144531,8.9296875 C11.5898438,8.9296875 9.33398438,11.1855469 9.33398438,13.9101562 C9.33398438,16.6347656 11.5898438,18.9003906 14.3144531,18.9003906 Z M24.03125,14.7597656 C24.5,14.7597656 24.890625,14.3691406 24.890625,13.9101562 C24.890625,13.4511719 24.5,13.0605469 24.03125,13.0605469 L21.9902344,13.0605469 C21.53125,13.0605469 21.140625,13.4511719 21.140625,13.9101562 C21.140625,14.3691406 21.53125,14.7597656 21.9902344,14.7597656 L24.03125,14.7597656 Z M6.63867188,14.7597656 C7.10742188,14.7597656 7.49804688,14.3691406 7.49804688,13.9101562 C7.49804688,13.4511719 7.10742188,13.0605469 6.63867188,13.0605469 L4.59765625,13.0605469 C4.13867188,13.0605469 3.74804688,13.4511719 3.74804688,13.9101562 C3.74804688,14.3691406 4.13867188,14.7597656 4.59765625,14.7597656 L6.63867188,14.7597656 Z M21.8046875,21.4003906 C22.1367188,21.078125 22.1367188,20.53125 21.8046875,20.1992188 L20.3398438,18.7441406 C20.0175781,18.421875 19.4707031,18.421875 19.1386719,18.7441406 C18.8164062,19.0664062 18.8164062,19.6132812 19.1386719,19.9453125 L20.6132812,21.4101563 C20.9355469,21.7324219 21.4824219,21.7226563 21.8046875,21.4003906 Z M8.02539062,21.4003906 L9.48046875,19.9453125 C9.8125,19.6230469 9.8125,19.0761719 9.49023438,18.7441406 C9.16796875,18.421875 8.61132812,18.421875 8.27929688,18.7441406 L6.82421875,20.1894531 C6.50195312,20.5117188 6.50195312,21.0683594 6.81445312,21.390625 C7.13671875,21.7128906 7.69335938,21.7226563 8.02539062,21.4003906 Z M14.3144531,24.5058594 C14.7832031,24.5058594 15.1738281,24.1152344 15.1738281,23.65625 L15.1738281,21.6054688 C15.1738281,21.1464844 14.7832031,20.7558594 14.3144531,20.7558594 C13.8554688,20.7558594 13.4648438,21.1464844 13.4648438,21.6054688 L13.4648438,23.65625 C13.4648438,24.1152344 13.8554688,24.5058594 14.3144531,24.5058594 Z"></path>
            </g>
        </g>
    </g>
</svg>