<svg xmlns="http://www.w3.org/2000/svg" xmlns:xlink="http://www.w3.org/1999/xlink" width="46" height="42" viewBox="0 0 46 42" version="1.1">
    <title>iconSection1</title>
    <g id="Final" stroke="none" stroke-width="1" fill="none" fill-rule="evenodd">
        <g id="CloseDeals-1281" transform="translate(-933.000000, -6082.000000)" fill="#00A33F" fill-rule="nonzero">
            <g id="􀓕" transform="translate(933.603027, 6082.437500)">
                <path d="M7.44873047,41.4404297 L37.8369141,41.4404297 C42.7148438,41.4404297 45.2856445,38.8916016 45.2856445,34.0795898 L45.2856445,7.3828125 C45.2856445,2.57080078 42.7148438,0 37.8369141,0 L7.44873047,0 C2.59277344,0 0,2.57080078 0,7.3828125 L0,34.0795898 C0,38.8916016 2.59277344,41.4404297 7.44873047,41.4404297 Z M7.60253906,36.5625 C5.84472656,36.5625 4.89990234,35.6835938 4.89990234,33.815918 L4.89990234,13.8647461 C4.89990234,12.019043 5.84472656,11.1401367 7.60253906,11.1401367 L37.6611328,11.1401367 C39.4189453,11.1401367 40.3857422,12.019043 40.3857422,13.8647461 L40.3857422,33.815918 C40.3857422,35.6835938 39.4189453,36.5625 37.6611328,36.5625 L7.60253906,36.5625 Z M11.3378906,18.8525391 L33.9916992,18.8525391 C34.8046875,18.8525391 35.3979492,18.215332 35.3979492,17.4243164 C35.3979492,16.6333008 34.8046875,16.0180664 33.9916992,16.0180664 L11.3378906,16.0180664 C10.5029297,16.0180664 9.90966797,16.6333008 9.90966797,17.4243164 C9.90966797,18.215332 10.5029297,18.8525391 11.3378906,18.8525391 Z M11.3378906,25.2685547 L33.9916992,25.2685547 C34.8046875,25.2685547 35.3979492,24.6533203 35.3979492,23.8623047 C35.3979492,23.0493164 34.8046875,22.434082 33.9916992,22.434082 L11.3378906,22.434082 C10.5029297,22.434082 9.90966797,23.0493164 9.90966797,23.8623047 C9.90966797,24.6533203 10.5029297,25.2685547 11.3378906,25.2685547 Z M11.3378906,31.6625977 L25.5761719,31.6625977 C26.3891602,31.6625977 27.0043945,31.0693359 27.0043945,30.2783203 C27.0043945,29.465332 26.3891602,28.828125 25.5761719,28.828125 L11.3378906,28.828125 C10.5029297,28.828125 9.90966797,29.465332 9.90966797,30.2783203 C9.90966797,31.0693359 10.5029297,31.6625977 11.3378906,31.6625977 Z" id="Shape"/>
            </g>
        </g>
    </g>
</svg>