<svg xmlns="http://www.w3.org/2000/svg" xmlns:xlink="http://www.w3.org/1999/xlink" width="47" height="47" viewBox="0 0 47 47" version="1.1">
    <title>iconSection4</title>
    <g id="Final" stroke="none" stroke-width="1" fill="none" fill-rule="evenodd">
        <g id="CloseDeals-1281" transform="translate(-291.000000, -964.000000)" fill="#00A33F" fill-rule="nonzero">
            <g id="ô€•" transform="translate(291.933105, 964.174316)">
                <path d="M22.9614258,45.9228516 C26.1108398,45.9228516 29.0698242,45.3259277 31.8383789,44.1320801 C34.6069336,42.9382324 37.0495605,41.2866211 39.1662598,39.1772461 C41.282959,37.0678711 42.9382324,34.6252441 44.1320801,31.8493652 C45.3259277,29.0734863 45.9228516,26.1108398 45.9228516,22.9614258 C45.9228516,19.8266602 45.3259277,16.8713379 44.1320801,14.095459 C42.9382324,11.3195801 41.282959,8.87695312 39.1662598,6.76757812 C37.0495605,4.65820312 34.6032715,3.00292969 31.8273926,1.80175781 C29.0515137,0.600585938 26.0888672,0 22.9394531,0 C19.8046875,0 16.8493652,0.600585938 14.0734863,1.80175781 C11.2976074,3.00292969 8.85498047,4.65820312 6.74560547,6.76757812 C4.63623047,8.87695312 2.98461914,11.3195801 1.79077148,14.095459 C0.596923828,16.8713379 0,19.8266602 0,22.9614258 C0,26.1108398 0.596923828,29.0734863 1.79077148,31.8493652 C2.98461914,34.6252441 4.63989258,37.0678711 6.7565918,39.1772461 C8.87329102,41.2866211 11.315918,42.9382324 14.0844727,44.1320801 C16.8530273,45.3259277 19.8120117,45.9228516 22.9614258,45.9228516 Z M22.9614258,40.78125 C20.5004883,40.78125 18.1933594,40.3198242 16.0400391,39.3969727 C13.8867188,38.4741211 11.9970703,37.199707 10.3710938,35.5737305 C8.74511719,33.9477539 7.47070312,32.0581055 6.54785156,29.9047852 C5.625,27.7514648 5.16357422,25.4370117 5.16357422,22.9614258 C5.16357422,20.5004883 5.625,18.1933594 6.54785156,16.0400391 C7.47070312,13.8867188 8.74145508,11.9934082 10.3601074,10.3601074 C11.9787598,8.72680664 13.8647461,7.45239258 16.0180664,6.53686523 C18.1713867,5.62133789 20.4785156,5.16357422 22.9394531,5.16357422 C25.4150391,5.16357422 27.7294922,5.62133789 29.8828125,6.53686523 C32.0361328,7.45239258 33.9294434,8.72680664 35.5627441,10.3601074 C37.1960449,11.9934082 38.470459,13.8867188 39.3859863,16.0400391 C40.3015137,18.1933594 40.7592773,20.5004883 40.7592773,22.9614258 C40.7592773,25.4370117 40.3015137,27.7514648 39.3859863,29.9047852 C38.470459,32.0581055 37.199707,33.9477539 35.5737305,35.5737305 C33.9477539,37.199707 32.0544434,38.4741211 29.8937988,39.3969727 C27.7331543,40.3198242 25.4223633,40.78125 22.9614258,40.78125 Z M22.9394531,35.1342773 C23.2177734,35.1342773 23.4448242,35.0463867 23.6206055,34.8706055 C23.7963867,34.6948242 23.8842773,34.4604492 23.8842773,34.1674805 L23.8842773,32.7392578 C25.7446289,32.578125 27.2753906,31.9958496 28.4765625,30.9924316 C29.6777344,29.9890137 30.2783203,28.6523438 30.2783203,26.9824219 C30.2783203,25.4882812 29.798584,24.2980957 28.8391113,23.4118652 C27.8796387,22.5256348 26.4477539,21.8994141 24.543457,21.5332031 L23.8842773,21.4013672 L23.8842773,16.4355469 C24.5288086,16.5527344 25.0708008,16.7944336 25.5102539,17.1606445 C25.949707,17.5268555 26.2719727,17.9956055 26.4770508,18.5668945 C26.8579102,19.3725586 27.4365234,19.7753906 28.2128906,19.7753906 C28.7109375,19.7753906 29.1101074,19.6325684 29.4104004,19.3469238 C29.7106934,19.0612793 29.8608398,18.684082 29.8608398,18.215332 C29.8608398,18.0834961 29.8498535,17.947998 29.8278809,17.8088379 C29.8059082,17.6696777 29.7729492,17.5341797 29.7290039,17.4023438 C29.4360352,16.3183594 28.7695312,15.402832 27.7294922,14.6557617 C26.6894531,13.9086914 25.4077148,13.4619141 23.8842773,13.3154297 L23.8842773,11.8652344 C23.8842773,11.5722656 23.7963867,11.3378906 23.6206055,11.1621094 C23.4448242,10.9863281 23.2177734,10.8984375 22.9394531,10.8984375 C22.2949219,10.8984375 21.9726562,11.2207031 21.9726562,11.8652344 L21.9726562,13.3154297 C20.1855469,13.4619141 18.7207031,14.0368652 17.578125,15.0402832 C16.4355469,16.0437012 15.8642578,17.3291016 15.8642578,18.8964844 C15.8642578,20.3320312 16.3366699,21.4855957 17.2814941,22.3571777 C18.2263184,23.2287598 19.6142578,23.8696289 21.4453125,24.2797852 L21.9726562,24.4116211 L21.9726562,29.6630859 C21.1523438,29.53125 20.5041504,29.263916 20.0280762,28.861084 C19.552002,28.458252 19.2333984,27.9711914 19.0722656,27.3999023 C18.8964844,27.0043945 18.6657715,26.6967773 18.380127,26.4770508 C18.0944824,26.2573242 17.746582,26.1474609 17.3364258,26.1474609 C16.8237305,26.1474609 16.4135742,26.3012695 16.105957,26.6088867 C15.7983398,26.9165039 15.6445312,27.3120117 15.6445312,27.7954102 C15.6445312,27.9272461 15.6591797,28.059082 15.6884766,28.190918 C15.7177734,28.3227539 15.7543945,28.4692383 15.7983398,28.6303711 C16.1206055,29.7143555 16.8200684,30.637207 17.8967285,31.3989258 C18.9733887,32.1606445 20.3320312,32.6000977 21.9726562,32.7172852 L21.9726562,34.1674805 C21.9726562,34.4604492 22.064209,34.6948242 22.2473145,34.8706055 C22.4304199,35.0463867 22.6611328,35.1342773 22.9394531,35.1342773 Z M21.9726562,20.9179688 L21.8188477,20.8740234 C21.0131836,20.6542969 20.4162598,20.3613281 20.0280762,19.9951172 C19.6398926,19.6289062 19.4458008,19.1821289 19.4458008,18.6547852 C19.4458008,18.0834961 19.6728516,17.5927734 20.1269531,17.1826172 C20.5810547,16.7724609 21.1962891,16.5087891 21.9726562,16.3916016 L21.9726562,20.9179688 Z M23.8842773,24.8730469 L24.2578125,24.9609375 C25.1367188,25.1806641 25.7592773,25.4772949 26.1254883,25.8508301 C26.4916992,26.2243652 26.6748047,26.7041016 26.6748047,27.2900391 C26.6748047,27.9199219 26.4404297,28.4436035 25.9716797,28.861084 C25.5029297,29.2785645 24.8071289,29.5458984 23.8842773,29.6630859 L23.8842773,24.8730469 Z" id="Shape"/>
            </g>
        </g>
    </g>
</svg>