<?xml version="1.0" encoding="UTF-8"?>
<svg width="28px" height="28px" viewBox="0 0 28 28" version="1.1" xmlns="http://www.w3.org/2000/svg" xmlns:xlink="http://www.w3.org/1999/xlink">
    <title>education-icon</title>
    <g id="Desktop-Nav---Final" stroke="none" stroke-width="1" fill="none" fill-rule="evenodd">
        <g id="Nav-Assets" transform="translate(-31.000000, -82.000000)" fill="#FA6400" fill-rule="nonzero">
            <g id="Outlined-version" transform="translate(31.000000, 82.000000)">
                <path d="M13.3556083,16.4931641 C14.0851005,16.5019531 14.8145927,16.3261719 15.7110771,15.9130859 L24.3155693,11.9667969 C24.8780693,11.703125 25.1505302,11.2636719 25.1505302,10.8154297 C25.1505302,10.3671875 24.8780693,9.91894531 24.3155693,9.6640625 L15.7110771,5.7265625 C14.8145927,5.32226562 14.0851005,5.12890625 13.3556083,5.14648438 C12.6349052,5.12890625 11.905413,5.32226562 11.0001396,5.7265625 L2.40443645,9.6640625 C1.84193645,9.91894531 1.56947551,10.3671875 1.56947551,10.8154297 C1.56947551,11.2636719 1.84193645,11.703125 2.40443645,11.9667969 L6.0255302,13.6191406 L11.5890068,11.0087891 C11.5362724,10.9472656 11.5186943,10.8769531 11.5186943,10.8154297 C11.5186943,10.2617188 12.4503349,9.83984375 13.3907646,9.83984375 C14.3399833,9.83984375 15.2540458,10.2617188 15.2540458,10.8154297 C15.2540458,11.3867188 14.3399833,11.8173828 13.3907646,11.8173828 C13.1007255,11.8173828 12.8106865,11.7734375 12.5558036,11.703125 L7.24720989,14.1904297 L11.0001396,15.9130859 C11.905413,16.3261719 12.6349052,16.5019531 13.3556083,16.4931641 Z M13.3556083,22.2763672 C18.5411552,22.2763672 21.880999,20.0527344 21.880999,17.4248047 L21.880999,14.4013672 L16.2120536,16.9941406 C15.1837333,17.46875 14.2520927,17.7060547 13.3556083,17.6972656 C12.467913,17.7060547 11.5274833,17.46875 10.499163,16.9941406 L7.21205364,15.4912109 L7.21205364,20.8349609 C8.68861614,21.7314453 10.7979911,22.2763672 13.3556083,22.2763672 Z M6.06947551,19.9472656 L6.06947551,14.9726562 L4.83900676,14.4013672 L4.83900676,17.4248047 C4.83900676,18.1894531 5.27845989,19.1386719 6.06947551,19.9472656 Z M6.75502239,26.3896484 C7.44935833,26.3896484 7.89760051,25.9414062 7.89760051,25.2470703 L7.89760051,22.9355469 C7.89760051,22.4082031 7.63392864,22.0302734 7.21205364,21.8720703 L7.21205364,20.8349609 C6.77260051,20.5712891 6.38588176,20.2724609 6.06947551,19.9472656 L6.06947551,21.8720703 C5.63881145,22.0214844 5.37513958,22.4082031 5.37513958,22.9355469 L5.37513958,25.2470703 C5.37513958,25.9414062 5.82338176,26.3896484 6.5177177,26.3896484 L6.75502239,26.3896484 Z"></path>
            </g>
        </g>
    </g>
</svg>