<svg xmlns="http://www.w3.org/2000/svg" width="69" height="64" viewBox="0 0 69 64">
    <g fill="none" fill-rule="evenodd">
        <g fill="#0096C6" fill-rule="nonzero">
            <g>
                <path d="M44.516 52.691c2.197 0 3.907-.626 5.13-1.878 1.223-1.253 1.835-3.087 1.835-5.504V21.007c0-2.403-.63-4.23-1.89-5.482-1.26-1.253-3.112-1.879-5.559-1.879H8.568c-2.197 0-3.907.626-5.13 1.879-1.223 1.252-1.835 3.08-1.835 5.482v24.302c0 2.417.634 4.251 1.9 5.504 1.268 1.252 3.117 1.878 5.549 1.878h35.464zm-17.952-17.71c-.38 0-.762-.106-1.143-.318-.38-.213-.798-.531-1.252-.956L8.557 18.295l.118-.014c.149-.014.304-.02.465-.02h34.826c.159 0 .312.006.458.02l.145.018-15.588 15.408c-.454.44-.872.762-1.252.967-.381.205-.77.307-1.165.307zM6.151 44.446V21.677l11.533 11.346L6.151 44.446zm40.781-.043l-11.489-11.38 11.489-11.302v22.682zm-2.966 3.674H9.14c-.242 0-.47-.015-.683-.046l-.067-.011L20.609 35.9l1.055 1.037c.806.806 1.611 1.388 2.417 1.747.806.359 1.633.538 2.483.538.85 0 1.677-.18 2.483-.538.806-.359 1.611-.941 2.417-1.747l1.065-1.047 12.205 12.125-.095.016c-.21.03-.435.046-.673.046z" transform="translate(-928.000000, -4414.000000) translate(928.000000, 4414.000000)"/>
            </g>
        </g>
    </g>
</svg>
