<svg xmlns="http://www.w3.org/2000/svg" xmlns:xlink="http://www.w3.org/1999/xlink" width="54" height="41" viewBox="0 0 54 41" version="1.1">
    <title>iconSection3</title>
    <g id="Final" stroke="none" stroke-width="1" fill="none" fill-rule="evenodd">
        <g id="CloseDeals-1281" transform="translate(-828.000000, -4006.000000)" fill="#00A33F" fill-rule="nonzero">
            <g id="􀈣" transform="translate(828.603027, 4006.151611)">
                <path d="M7.84423828,40.0341797 L44.6594238,40.0341797 C47.1936035,40.0341797 49.1345215,39.3621826 50.4821777,38.0181885 C51.829834,36.6741943 52.5036621,34.7460938 52.5036621,32.2338867 L52.5036621,19.1821289 C52.5036621,18.1054688 52.4523926,17.2009277 52.3498535,16.4685059 C52.2473145,15.736084 52.0587158,15.0805664 51.7840576,14.5019531 C51.5093994,13.9233398 51.1193848,13.3300781 50.6140137,12.722168 L44.0991211,4.73510742 C43.1103516,3.53393555 42.2479248,2.58911133 41.5118408,1.90063477 C40.7757568,1.2121582 39.9719238,0.723266602 39.1003418,0.433959961 C38.2287598,0.14465332 37.1044922,0 35.7275391,0 L16.776123,0 C15.3991699,0 14.2785645,0.14465332 13.4143066,0.433959961 C12.5500488,0.723266602 11.7462158,1.2121582 11.0028076,1.90063477 C10.2593994,2.58911133 9.39697266,3.53393555 8.41552734,4.73510742 L1.88964844,12.722168 C1.39160156,13.3374023 1.00524902,13.9324951 0.73059082,14.5074463 C0.455932617,15.0823975 0.26550293,15.736084 0.159301758,16.4685059 C0.0531005859,17.2009277 0,18.1054688 0,19.1821289 L0,32.2338867 C0,34.7460938 0.67565918,36.6741943 2.02697754,38.0181885 C3.3782959,39.3621826 5.31738281,40.0341797 7.84423828,40.0341797 Z M8.34960938,34.1455078 C7.48535156,34.1455078 6.82983398,33.9312744 6.38305664,33.5028076 C5.9362793,33.0743408 5.71289062,32.4023438 5.71289062,31.4868164 L5.71289062,21.5771484 L17.5012207,21.5771484 C17.8381348,22.7783203 18.4185791,23.8494873 19.2425537,24.7906494 C20.0665283,25.7318115 21.0754395,26.4715576 22.2692871,27.0098877 C23.4631348,27.5482178 24.7924805,27.8173828 26.2573242,27.8173828 C27.722168,27.8173828 29.0533447,27.5463867 30.2508545,27.0043945 C31.4483643,26.4624023 32.4572754,25.7208252 33.2775879,24.7796631 C34.0979004,23.838501 34.6728516,22.7709961 35.0024414,21.5771484 L46.7907715,21.5771484 L46.7907715,31.4868164 C46.7907715,32.4023438 46.5655518,33.0743408 46.1151123,33.5028076 C45.6646729,33.9312744 45.0109863,34.1455078 44.1540527,34.1455078 L8.34960938,34.1455078 Z M26.2573242,22.4450684 C25.3564453,22.4450684 24.5892334,22.2271729 23.9556885,21.7913818 C23.3221436,21.3555908 22.8369141,20.8062744 22.5,20.1434326 C22.1630859,19.4805908 21.9946289,18.8049316 21.9946289,18.1164551 L21.9946289,18.0505371 C21.9946289,17.6623535 21.864624,17.3181152 21.6046143,17.0178223 C21.3446045,16.7175293 20.9179688,16.5673828 20.324707,16.5673828 L6.87744141,16.5673828 C6.52587891,16.5673828 6.31164551,16.4483643 6.23474121,16.2103271 C6.15783691,15.97229 6.21459961,15.736084 6.4050293,15.501709 L13.9416504,6.15234375 C14.3444824,5.65429688 14.7839355,5.27893066 15.2600098,5.02624512 C15.736084,4.77355957 16.2890625,4.6472168 16.9189453,4.6472168 L35.5847168,4.6472168 C36.2219238,4.6472168 36.7767334,4.77355957 37.2491455,5.02624512 C37.7215576,5.27893066 38.1591797,5.65429688 38.5620117,6.15234375 L46.1206055,15.501709 C46.2963867,15.736084 46.3458252,15.97229 46.2689209,16.2103271 C46.1920166,16.4483643 45.9814453,16.5673828 45.637207,16.5673828 L32.1789551,16.5673828 C31.5856934,16.5673828 31.1608887,16.7175293 30.904541,17.0178223 C30.6481934,17.3181152 30.5200195,17.6623535 30.5200195,18.0505371 L30.5200195,18.1164551 C30.5200195,18.8049316 30.3497314,19.4805908 30.0091553,20.1434326 C29.6685791,20.8062744 29.1815186,21.3555908 28.5479736,21.7913818 C27.9144287,22.2271729 27.1508789,22.4450684 26.2573242,22.4450684 Z" id="Shape"/>
            </g>
        </g>
    </g>
</svg>