<?xml version="1.0" encoding="UTF-8"?>
<svg width="64px" height="64px" viewBox="0 0 64 64" version="1.1" xmlns="http://www.w3.org/2000/svg" xmlns:xlink="http://www.w3.org/1999/xlink">
    <title>industrySub3</title>
    <g id="Home-Revamp-2021-V3" stroke="none" stroke-width="1" fill="none" fill-rule="evenodd">
        <g id="Desktop-HD" transform="translate(-1590.000000, -6736.000000)">
            <g id="industrySub3" transform="translate(1590.000000, 6736.000000)">
                <rect id="Rectangle" x="0" y="0" width="64" height="64"></rect>
                <path d="M31.3452148,53.5478516 C43.605957,53.5478516 53.7573242,43.3745117 53.7573242,31.1357422 C53.7573242,18.875 43.5839844,8.72363281 31.3232422,8.72363281 C19.0844727,8.72363281 8.93310547,18.875 8.93310547,31.1357422 C8.93310547,43.3745117 19.1064453,53.5478516 31.3452148,53.5478516 Z M31.3232422,44.0776367 C30.7080078,44.0776367 30.246582,43.6381836 30.246582,43.0009766 L30.246582,41.375 C27.2143555,41.0893555 24.6875,39.4194336 24.050293,36.8046875 C23.984375,36.5849609 23.9404297,36.3432617 23.9404297,36.1015625 C23.9404297,35.3105469 24.4897461,34.7612305 25.2587891,34.7612305 C25.9399414,34.7612305 26.4013672,35.112793 26.6650391,35.9038086 C27.0385742,37.3979492 28.2250977,38.5405273 30.246582,38.8261719 L30.246582,32.1464844 L30.0927734,32.1025391 C26.3134766,31.2016602 24.3579102,29.487793 24.3579102,26.609375 C24.3579102,23.5112305 26.8188477,21.3579102 30.246582,20.984375 L30.246582,19.4243164 C30.246582,18.7871094 30.7080078,18.3476562 31.3232422,18.3476562 C31.9384766,18.3476562 32.3999023,18.7871094 32.3999023,19.4243164 L32.3999023,20.984375 C35.300293,21.3139648 37.6293945,23.0058594 38.2226562,25.4448242 C38.2666016,25.6865234 38.3325195,25.9282227 38.3325195,26.1479492 C38.3325195,26.9389648 37.7612305,27.4882812 36.9921875,27.4882812 C36.2670898,27.4882812 35.8276367,27.0488281 35.6079102,26.3676758 C35.1464844,24.8515625 34.0258789,23.8847656 32.3999023,23.5991211 L32.3999023,29.9052734 L32.7075195,29.9711914 C36.640625,30.6743164 38.6401367,32.5419922 38.6401367,35.6181641 C38.6401367,39.0458984 35.8935547,41.0893555 32.3999023,41.4189453 L32.3999023,43.0009766 C32.3999023,43.6381836 31.9384766,44.0776367 31.3232422,44.0776367 Z M30.246582,29.3339844 L30.246582,23.5991211 C28.3349609,23.9287109 27.1704102,25.0932617 27.1704102,26.4555664 C27.1704102,27.7958984 28.0712891,28.6967773 30.0927734,29.2900391 L30.246582,29.3339844 Z M32.3999023,38.8261719 C34.7070312,38.5625 35.8276367,37.3540039 35.8276367,35.7719727 C35.8276367,34.34375 35.0805664,33.3989258 32.8833008,32.8056641 L32.3999023,32.6738281 L32.3999023,38.8261719 Z" id="􀖘" fill="#005E66" fill-rule="nonzero"></path>
            </g>
        </g>
    </g>
</svg>