<?xml version="1.0" encoding="UTF-8"?>
<svg width="60px" height="42px" viewBox="0 0 60 42" version="1.1" xmlns="http://www.w3.org/2000/svg" xmlns:xlink="http://www.w3.org/1999/xlink">
    <title>relationshipsSub1</title>
    <g id="Home-Revamp-2021-V3" stroke="none" stroke-width="1" fill="none" fill-rule="evenodd">
        <g id="Home-Assets" transform="translate(-840.000000, -7417.000000)" fill="#0096C6" fill-rule="nonzero">
            <g id="relationshipsSub1" transform="translate(840.603027, 7417.195801)">
                <path d="M47.9223633,22.3242188 C53.9648438,22.3242188 59.0844727,17.2705078 59.0844727,11.1621094 C59.0844727,5.05371094 54.0307617,0 47.9223633,0 C41.7919922,0 36.7602539,5.05371094 36.7602539,11.1621094 C36.7602539,17.3144531 41.7919922,22.3242188 47.9223633,22.3242188 Z M43.659668,40.9130859 C47.5927734,40.9130859 49.8999023,38.6279297 49.8999023,34.1015625 L49.8999023,25.2246094 C49.0209961,25.378418 47.5048828,25.4003906 46.3623047,25.2246094 L46.3623047,33.9477539 C46.3623047,36.2109375 45.1098633,37.3754883 42.9345703,37.3754883 L6.94335937,37.3754883 C4.74609375,37.3754883 3.53759766,36.2109375 3.53759766,33.9257812 L3.53759766,16.3037109 L34.6289062,16.3037109 C34.2333984,15.2490234 33.9477539,14.128418 33.8378906,12.9858398 L3.53759766,12.9858398 L3.53759766,7.51464844 C3.53759766,5.33935547 4.68017578,4.21875 6.78955078,4.21875 L11.4257812,4.21875 C12.8759766,4.21875 13.7548828,4.59228516 14.8754883,5.53710938 L16.2158203,6.65771484 C17.644043,7.84423828 18.8085938,8.26171875 20.9838867,8.26171875 L34.0136719,8.26171875 C34.2773438,7.00927734 34.5849609,5.95458984 35.2001953,4.72412109 L21.9067383,4.72412109 C20.4125977,4.72412109 19.5117188,4.37255859 18.4130859,3.42773438 L17.0727539,2.32910156 C15.6225586,1.09863281 14.5019531,0.703125 12.3266602,0.703125 L6.06445312,0.703125 C2.21923828,0.703125 0,2.90039062 0,7.31689453 L0,34.1015625 C0,38.6499023 2.30712891,40.9130859 6.89941406,40.9130859 L43.659668,40.9130859 Z M47.9003906,11.8212891 C45.8789062,11.8212891 44.3408203,10.1513672 44.3408203,7.86621094 C44.3408203,5.82275391 45.9008789,4.08691406 47.9003906,4.08691406 C49.921875,4.08691406 51.5039062,5.82275391 51.5039062,7.86621094 C51.5039062,10.1513672 49.921875,11.8212891 47.9003906,11.8212891 Z M47.9223633,19.753418 C44.7143555,19.753418 42.1875,18.1054688 41.4624023,16.5893555 L41.4624023,16.4794922 C42.1875,15.1171875 44.4287109,13.6010742 47.9223633,13.6010742 C51.4160156,13.6010742 53.6572266,15.1171875 54.3603516,16.5014648 L54.3603516,16.5893555 C53.6352539,18.1274414 51.1303711,19.753418 47.9223633,19.753418 Z" id="ô€ˆ"></path>
            </g>
        </g>
    </g>
</svg>