<svg xmlns="http://www.w3.org/2000/svg" xmlns:xlink="http://www.w3.org/1999/xlink" width="61" height="49" viewBox="0 0 61 49" version="1.1">
    <title>iconSection4.3</title>
    <g id="Final" stroke="none" stroke-width="1" fill="none" fill-rule="evenodd">
        <g id="CloseDeals-1281" transform="translate(-1006.000000, -2188.000000)" fill="#00A33F" fill-rule="nonzero">
            <g id="Group-5" transform="translate(1005.000000, 2188.251465)">
                <g id="􀥎" transform="translate(1.471016, 0.000000)">
                    <path d="M15.6665039,34.519043 L18.8745117,34.519043 C20.2587891,34.519043 21.3354492,33.684082 21.6430664,32.3657227 L22.2583008,29.5751953 C22.3242188,29.5532227 22.4121094,29.5092773 22.4780273,29.4873047 L24.9609375,30.9814453 C26.081543,31.640625 27.4658203,31.5087891 28.4106445,30.5639648 L30.6518555,28.3007812 C31.640625,27.3120117 31.7724609,25.949707 31.0693359,24.8291016 L29.5532227,22.434082 C29.5751953,22.3461914 29.6191406,22.2802734 29.6411133,22.1923828 L32.3876953,21.5332031 C33.684082,21.2255859 34.5410156,20.1269531 34.5410156,18.7426758 L34.5410156,15.7543945 C34.5410156,14.3920898 33.7060547,13.293457 32.3876953,12.9638672 L29.6411133,12.3046875 C29.6191406,12.2167969 29.5751953,12.1508789 29.5532227,12.0629883 L31.0693359,9.66796875 C31.7724609,8.54736328 31.640625,7.20703125 30.6518555,6.19628906 L28.4106445,3.95507812 C27.4658203,3.01025391 26.081543,2.85644531 24.9609375,3.53759766 L22.4780273,5.00976562 C22.3901367,4.98779297 22.3242188,4.96582031 22.2363281,4.94384766 L21.6430664,2.13134766 C21.3574219,0.834960937 20.2587891,0 18.8745117,0 L15.6665039,0 C14.2822266,0 13.2055664,0.834960937 12.8979492,2.13134766 L12.2827148,4.94384766 C12.1948242,4.96582031 12.1289062,4.98779297 12.0410156,5.00976562 L9.58007812,3.53759766 C8.45947266,2.85644531 7.07519531,3.01025391 6.13037109,3.95507812 L3.88916016,6.19628906 C2.90039062,7.20703125 2.79052734,8.56933594 3.47167969,9.66796875 L4.98779297,12.0629883 C4.96582031,12.1508789 4.921875,12.2167969 4.89990234,12.3046875 L2.13134766,12.9638672 C0.834960938,13.293457 0,14.3920898 0,15.7543945 L0,18.7426758 C0,20.1269531 0.834960938,21.2255859 2.13134766,21.5332031 L4.89990234,22.1923828 C4.921875,22.2802734 4.96582031,22.3461914 4.98779297,22.434082 L3.47167969,24.8291016 C2.76855469,25.949707 2.90039062,27.3120117 3.88916016,28.3007812 L6.13037109,30.5639648 C7.07519531,31.5087891 8.4375,31.640625 9.55810547,30.9814453 L12.0629883,29.4873047 C12.1289062,29.5092773 12.2167969,29.5532227 12.2827148,29.5751953 L12.8979492,32.3657227 C13.2055664,33.684082 14.2822266,34.519043 15.6665039,34.519043 Z M16.0839844,31.4428711 C15.8642578,31.4428711 15.7543945,31.3330078 15.6884766,31.1132812 L14.7436523,27.1801758 C13.6889648,26.9384766 12.722168,26.4550781 11.953125,26.0375977 L8.52539062,28.125 C8.30566406,28.2568359 8.15185547,28.2348633 7.99804688,28.0810547 L6.328125,26.4331055 C6.17431641,26.2792969 6.15234375,26.1474609 6.28417969,25.9277344 L8.34960938,22.5219727 C8.0859375,21.862793 7.51464844,20.8740234 7.25097656,19.7314453 L3.38378906,18.8085938 C3.1640625,18.7646484 3.05419922,18.6328125 3.05419922,18.4130859 L3.05419922,16.0839844 C3.05419922,15.8642578 3.1640625,15.7543945 3.38378906,15.7104492 L7.25097656,14.7875977 C7.51464844,13.6230469 8.0859375,12.65625 8.34960938,11.9750977 L6.28417969,8.56933594 C6.15234375,8.37158203 6.17431641,8.23974609 6.328125,8.06396484 L7.99804688,6.43798828 C8.15185547,6.28417969 8.30566406,6.26220703 8.52539062,6.37207031 L11.953125,8.45947266 C12.722168,8.04199219 13.6889648,7.55859375 14.7436523,7.31689453 L15.6884766,3.40576172 C15.7543945,3.18603516 15.8642578,3.07617188 16.0839844,3.07617188 L18.4570312,3.07617188 C18.6767578,3.07617188 18.7866211,3.18603516 18.8525391,3.40576172 L19.7973633,7.31689453 C20.8520508,7.55859375 21.8188477,8.04199219 22.5878906,8.45947266 L26.015625,6.37207031 C26.2133789,6.26220703 26.3891602,6.28417969 26.5429688,6.43798828 L28.2128906,8.06396484 C28.3666992,8.23974609 28.3886719,8.37158203 28.2568359,8.56933594 L26.1914062,11.9750977 C26.4550781,12.65625 27.0263672,13.6230469 27.2900391,14.7875977 L31.1572266,15.7104492 C31.3769531,15.7543945 31.4868164,15.8642578 31.4868164,16.0839844 L31.4868164,18.4130859 C31.4868164,18.6328125 31.3769531,18.7646484 31.1572266,18.8085938 L27.2900391,19.7314453 C27.0263672,20.8740234 26.4550781,21.862793 26.1914062,22.5219727 L28.2568359,25.9277344 C28.3886719,26.1474609 28.3666992,26.2792969 28.2128906,26.4331055 L26.5429688,28.0810547 C26.3891602,28.2348633 26.2133789,28.2568359 26.015625,28.125 L22.5878906,26.0375977 C21.8188477,26.4550781 20.8520508,26.9384766 19.7973633,27.1801758 L18.8525391,31.1132812 C18.7866211,31.3330078 18.6767578,31.4428711 18.4570312,31.4428711 L16.0839844,31.4428711 Z M17.2705078,23.9282227 C20.8959961,23.9282227 23.8842773,20.9179688 23.8842773,17.2485352 C23.8842773,13.6230469 20.8959961,10.6347656 17.2705078,10.6347656 C13.5791016,10.6347656 10.612793,13.6230469 10.612793,17.2485352 C10.612793,20.8959961 13.5791016,23.9282227 17.2705078,23.9282227 Z M17.2705078,20.6762695 C15.402832,20.6762695 13.8427734,19.1601562 13.8427734,17.2485352 C13.8427734,15.402832 15.402832,13.8647461 17.2705078,13.8647461 C19.1162109,13.8647461 20.6323242,15.402832 20.6323242,17.2485352 C20.6323242,19.1381836 19.1162109,20.6762695 17.2705078,20.6762695 Z M44.4946289,47.7685547 L47.0214844,47.7685547 C48.2739258,47.7685547 49.3286133,47.043457 49.5263672,45.9008789 L49.9438477,43.6816406 C50.0537109,43.659668 50.1196289,43.6376953 50.1855469,43.6157227 L52.0532227,44.7802734 C53.0639648,45.4174805 54.3164062,45.2856445 55.1953125,44.362793 L56.9750977,42.5830078 C57.8540039,41.6821289 58.0297852,40.4296875 57.3486328,39.4189453 L56.1621094,37.6171875 C56.184082,37.5292969 56.2060547,37.4853516 56.25,37.3974609 L58.425293,36.9360352 C59.5458984,36.6943359 60.2929688,35.6835938 60.2929688,34.4311523 L60.2929688,31.9702148 C60.2929688,30.7397461 59.5458984,29.7070312 58.425293,29.465332 L56.25,29.0258789 C56.2060547,28.9379883 56.184082,28.8720703 56.1621094,28.7841797 L57.3486328,26.9824219 C58.0297852,25.9716797 57.8540039,24.7412109 56.9750977,23.840332 L55.1953125,22.0385742 C54.3164062,21.1376953 53.0639648,20.9838867 52.0532227,21.6210938 L50.1855469,22.7856445 C50.1196289,22.7636719 50.0537109,22.7416992 49.9438477,22.7197266 L49.5263672,20.5224609 C49.3286133,19.3579102 48.2739258,18.6328125 47.0214844,18.6328125 L44.4946289,18.6328125 C43.2421875,18.6328125 42.1875,19.3579102 41.9677734,20.5224609 L41.550293,22.7197266 C41.4624023,22.7416992 41.3964844,22.7636719 41.3085938,22.7856445 L39.440918,21.6210938 C38.4301758,20.9838867 37.199707,21.1376953 36.3208008,22.0385742 L34.5410156,23.840332 C33.6621094,24.7412109 33.4863281,25.9716797 34.1455078,26.9824219 L35.3320312,28.7841797 C35.3100586,28.8720703 35.2880859,28.9379883 35.2661133,29.0258789 L33.0908203,29.465332 C31.9482422,29.7070312 31.2011719,30.7397461 31.2011719,31.9702148 L31.2011719,34.4311523 C31.2011719,35.6835938 31.9482422,36.6943359 33.0908203,36.9360352 L35.2661133,37.3974609 C35.2880859,37.4853516 35.3100586,37.5292969 35.3320312,37.6171875 L34.1455078,39.4189453 C33.4863281,40.4296875 33.6621094,41.6821289 34.5410156,42.5830078 L36.3208008,44.362793 C37.199707,45.2856445 38.4301758,45.4174805 39.440918,44.7802734 L41.3085938,43.6157227 C41.3964844,43.6376953 41.4624023,43.659668 41.550293,43.6816406 L41.9677734,45.9008789 C42.1875,47.043457 43.2421875,47.7685547 44.4946289,47.7685547 Z M45.065918,44.8461914 C44.8022461,44.8461914 44.6704102,44.7143555 44.6044922,44.4946289 L43.8354492,41.3305664 C42.956543,41.1328125 42.1655273,40.8251953 41.3305664,40.2758789 L38.5620117,42.0117188 C38.3862305,42.121582 38.1665039,42.0996094 37.9907227,41.9458008 L37.0019531,40.9130859 C36.8041992,40.715332 36.7822266,40.5395508 36.9140625,40.3417969 L38.5839844,37.6391602 C38.4082031,37.1118164 37.8149414,36.1669922 37.5952148,35.090332 L34.453125,34.3652344 C34.2333984,34.3212891 34.1015625,34.1455078 34.1015625,33.9257812 L34.1015625,32.4755859 C34.1015625,32.2558594 34.2333984,32.0800781 34.453125,32.0361328 L37.5952148,31.3110352 C37.8149414,30.234375 38.4082031,29.3115234 38.5839844,28.762207 L36.9140625,26.0595703 C36.7822266,25.8837891 36.8041992,25.6860352 37.0019531,25.4882812 L37.9907227,24.4775391 C38.1665039,24.3017578 38.3862305,24.2797852 38.5620117,24.4116211 L41.3305664,26.1254883 C42.1655273,25.5981445 42.956543,25.2685547 43.8354492,25.0708008 L44.6044922,21.9067383 C44.6704102,21.6870117 44.8022461,21.5551758 45.065918,21.5551758 L46.4282227,21.5551758 C46.6918945,21.5551758 46.8237305,21.6870117 46.8896484,21.9067383 L47.6586914,25.0708008 C48.5375977,25.2685547 49.3286133,25.5981445 50.1635742,26.1254883 L52.9321289,24.4116211 C53.1298828,24.2797852 53.3276367,24.3017578 53.503418,24.4775391 L54.5141602,25.4882812 C54.6899414,25.6860352 54.7119141,25.8837891 54.6020508,26.0595703 L52.9101562,28.762207 C53.1079102,29.3115234 53.6791992,30.234375 53.8989258,31.3110352 L57.0410156,32.0361328 C57.2607422,32.0800781 57.3925781,32.2558594 57.3925781,32.4755859 L57.3925781,33.9257812 C57.3925781,34.1455078 57.2607422,34.3212891 57.0410156,34.3652344 L53.8989258,35.090332 C53.6791992,36.1669922 53.1079102,37.1118164 52.9101562,37.6391602 L54.6020508,40.3417969 C54.7119141,40.5395508 54.6899414,40.715332 54.5141602,40.9130859 L53.503418,41.9458008 C53.3276367,42.0996094 53.1298828,42.121582 52.9321289,42.0117188 L50.1635742,40.2758789 C49.3286133,40.8251953 48.5375977,41.1328125 47.6586914,41.3305664 L46.8896484,44.4946289 C46.8237305,44.7143555 46.6918945,44.8461914 46.4282227,44.8461914 L45.065918,44.8461914 Z M45.7470703,38.3642578 C48.5595703,38.3642578 50.8886719,36.0351562 50.8886719,33.2006836 C50.8886719,30.3881836 48.5595703,28.0810547 45.7470703,28.0810547 C42.890625,28.0810547 40.5834961,30.3881836 40.5834961,33.2006836 C40.5834961,36.0131836 42.890625,38.3642578 45.7470703,38.3642578 Z M45.7470703,35.5957031 C44.4287109,35.5957031 43.3740234,34.519043 43.3740234,33.2006836 C43.3740234,31.9042969 44.4287109,30.871582 45.7470703,30.871582 C46.9995117,30.871582 48.0761719,31.9042969 48.0761719,33.2006836 C48.0761719,34.4970703 46.9995117,35.5957031 45.7470703,35.5957031 Z" id="Shape"/>
                </g>
            </g>
        </g>
    </g>
</svg>