<svg xmlns="http://www.w3.org/2000/svg" xmlns:xlink="http://www.w3.org/1999/xlink" width="50" height="41" viewBox="0 0 50 41" version="1.1">
    <title>iconSection1</title>
    <g id="Final" stroke="none" stroke-width="1" fill="none" fill-rule="evenodd">
        <g id="CloseDeals-1281" transform="translate(-287.000000, -9397.000000)" fill="#00A33F" fill-rule="nonzero">
            <g id="􀣉" transform="translate(287.603027, 9397.876465)">
                <path d="M14.0625,29.0478516 C14.0625,30.4101562 14.9414062,31.2670898 16.3256836,31.2670898 L20.8959961,31.2670898 C22.2802734,31.2670898 23.1591797,30.4101562 23.1591797,29.0478516 L23.1591797,2.24121094 C23.1591797,0.856933594 22.2802734,0 20.8959961,0 L16.3256836,0 C14.9414062,0 14.0625,0.856933594 14.0625,2.24121094 L14.0625,29.0478516 Z M25.6420898,29.0478516 C25.6420898,30.4101562 26.5209961,31.2670898 27.9052734,31.2670898 L32.4755859,31.2670898 C33.8598633,31.2670898 34.7607422,30.4101562 34.7607422,29.0478516 L34.7607422,7.29492188 C34.7607422,5.91064453 33.8598633,5.05371094 32.4755859,5.05371094 L27.9052734,5.05371094 C26.5209961,5.05371094 25.6420898,5.91064453 25.6420898,7.29492188 L25.6420898,29.0478516 Z M2.4609375,29.0478516 C2.4609375,30.4101562 3.36181641,31.2670898 4.74609375,31.2670898 L9.31640625,31.2670898 C10.6787109,31.2670898 11.5795898,30.4101562 11.5795898,29.0478516 L11.5795898,11.7333984 C11.5795898,10.3491211 10.6787109,9.4921875 9.31640625,9.4921875 L4.74609375,9.4921875 C3.36181641,9.4921875 2.4609375,10.3491211 2.4609375,11.7333984 L2.4609375,29.0478516 Z M37.2216797,29.0478516 C37.2216797,30.4101562 38.1225586,31.2670898 39.5068359,31.2670898 L44.0771484,31.2670898 C45.4394531,31.2670898 46.340332,30.4101562 46.340332,29.0478516 L46.340332,16.0400391 C46.340332,14.6777344 45.4394531,13.7988281 44.0771484,13.7988281 L39.5068359,13.7988281 C38.1225586,13.7988281 37.2216797,14.6777344 37.2216797,16.0400391 L37.2216797,29.0478516 Z M0,37.0458984 C0,38.4521484 1.09863281,39.4848633 2.48291016,39.4848633 L46.340332,39.4848633 C47.7246094,39.4848633 48.8232422,38.4521484 48.8232422,37.0458984 C48.8232422,35.6176758 47.7246094,34.5849609 46.340332,34.5849609 L2.48291016,34.5849609 C1.09863281,34.5849609 0,35.6176758 0,37.0458984 Z" id="Shape"/>
            </g>
        </g>
    </g>
</svg>