<?xml version="1.0" encoding="UTF-8"?>
<svg width="47px" height="39px" viewBox="0 0 47 39" version="1.1" xmlns="http://www.w3.org/2000/svg" xmlns:xlink="http://www.w3.org/1999/xlink">
    <title>dealsSub3</title>
    <g id="Home-Revamp-2021-V3" stroke="none" stroke-width="1" fill="none" fill-rule="evenodd">
        <g id="Home-Assets" transform="translate(-1696.000000, -8380.000000)" fill="#00A33F" fill-rule="nonzero">
            <g id="dealsSub3" transform="translate(1696.603027, 8380.557617)">
                <path d="M19.6875,31.3330078 C20.8740234,31.3330078 21.6210938,30.6518555 21.6210938,29.5092773 L21.6210938,1.82373047 C21.6210938,0.681152344 20.8740234,0 19.6875,0 L14.8974609,0 C13.7109375,0 12.9638672,0.681152344 12.9638672,1.82373047 L12.9638672,29.5092773 C12.9638672,30.6518555 13.7109375,31.3330078 14.8974609,31.3330078 L19.6875,31.3330078 Z M30.9155273,31.3330078 C32.0800781,31.3330078 32.8271484,30.6518555 32.8271484,29.5092773 L32.8271484,6.56982422 C32.8271484,5.40527344 32.0800781,4.72412109 30.9155273,4.72412109 L26.1035156,4.72412109 C24.9169922,4.72412109 24.1918945,5.40527344 24.1918945,6.56982422 L24.1918945,29.5092773 C24.1918945,30.6518555 24.9169922,31.3330078 26.1035156,31.3330078 L30.9155273,31.3330078 Z M8.48144531,31.3330078 C9.64599609,31.3330078 10.3930664,30.6518555 10.3930664,29.5092773 L10.3930664,11.3378906 C10.3930664,10.2172852 9.64599609,9.4921875 8.48144531,9.4921875 L3.69140625,9.4921875 C2.48291016,9.4921875 1.7578125,10.2172852 1.7578125,11.3378906 L1.7578125,29.5092773 C1.7578125,30.6518555 2.48291016,31.3330078 3.69140625,31.3330078 L8.48144531,31.3330078 Z M42.121582,31.3330078 C43.3081055,31.3330078 44.0551758,30.6518555 44.0551758,29.5092773 L44.0551758,15.9521484 C44.0551758,14.8095703 43.3081055,14.1064453 42.121582,14.1064453 L37.331543,14.1064453 C36.1230469,14.1064453 35.3979492,14.8095703 35.3979492,15.9521484 L35.3979492,29.5092773 C35.3979492,30.6518555 36.1230469,31.3330078 37.331543,31.3330078 L42.121582,31.3330078 Z M44.0551758,38.034668 C45.0219727,38.034668 45.8349609,37.265625 45.8349609,36.2768555 C45.8349609,35.3100586 45.0219727,34.519043 44.0551758,34.519043 L1.7578125,34.519043 C0.812988281,34.519043 0,35.3100586 0,36.2768555 C0,37.265625 0.812988281,38.034668 1.7578125,38.034668 L44.0551758,38.034668 Z" id="􀣉"></path>
            </g>
        </g>
    </g>
</svg>