<?xml version="1.0" encoding="UTF-8"?>
<svg width="70px" height="64px" viewBox="0 0 70 64" version="1.1" xmlns="http://www.w3.org/2000/svg" xmlns:xlink="http://www.w3.org/1999/xlink">
    <title>industrySub2</title>
    <g id="Home-Revamp-2021-V3" stroke="none" stroke-width="1" fill="none" fill-rule="evenodd">
        <g id="Desktop-HD" transform="translate(-1333.000000, -6736.000000)">
            <g id="industrySub2" transform="translate(1333.000000, 6736.000000)">
                <rect id="Rectangle" x="3" y="0" width="64" height="64"></rect>
                <path d="M53.5473633,55.800293 L60.7543945,54.7675781 C62.4902344,54.5478516 63.3032227,53.4931641 63.1274414,51.7792969 L58.9086914,15.3266602 C58.7109375,13.5908203 57.6782227,12.6899414 55.9204102,12.9316406 L48.7133789,13.9643555 C47.878418,14.0742188 47.2412109,14.3818359 46.8457031,14.8652344 L46.8457031,9.78955078 C46.8457031,8.05371094 45.8789062,7.06494141 44.1430664,7.06494141 L37.8808594,7.06494141 C36.1230469,7.06494141 35.15625,8.05371094 35.15625,9.78955078 L35.15625,52.987793 C35.15625,54.7016602 36.1230469,55.6904297 37.8808594,55.6904297 L44.1430664,55.6904297 C45.8789062,55.6904297 46.8457031,54.7016602 46.8457031,52.987793 L46.8457031,21.215332 L50.559082,53.4052734 C50.7568359,55.1191406 51.7895508,56.0200195 53.5473633,55.800293 Z M12.4584961,55.6904297 C14.1943359,55.6904297 15.1611328,54.7016602 15.1611328,52.987793 L15.1611328,15.8759766 C15.1611328,14.1401367 14.1943359,13.1513672 12.4584961,13.1513672 L8.30566406,13.1513672 C6.54785156,13.1513672 5.60302734,14.1401367 5.60302734,15.8759766 L5.60302734,52.987793 C5.60302734,54.7016602 6.54785156,55.6904297 8.30566406,55.6904297 L12.4584961,55.6904297 Z M29.9047852,55.6904297 C31.6625977,55.6904297 32.6074219,54.7016602 32.6074219,52.987793 L32.6074219,23.3686523 C32.6074219,21.6547852 31.6625977,20.6660156 29.9047852,20.6660156 L20.4345703,20.6660156 C18.6767578,20.6660156 17.7099609,21.6547852 17.7099609,23.3686523 L17.7099609,52.987793 C17.7099609,54.7016602 18.6767578,55.6904297 20.4345703,55.6904297 L29.9047852,55.6904297 Z M27.8393555,28.5102539 L22.5219727,28.5102539 C21.730957,28.5102539 21.1376953,27.9169922 21.1376953,27.1479492 C21.1376953,26.4008789 21.730957,25.8076172 22.5219727,25.8076172 L27.8393555,25.8076172 C28.6083984,25.8076172 29.2016602,26.4008789 29.2016602,27.1479492 C29.2016602,27.9169922 28.6083984,28.5102539 27.8393555,28.5102539 Z M27.8393555,50.5708008 L22.5219727,50.5708008 C21.730957,50.5708008 21.1376953,49.9775391 21.1376953,49.2084961 C21.1376953,48.4614258 21.730957,47.8681641 22.5219727,47.8681641 L27.8393555,47.8681641 C28.6083984,47.8681641 29.2016602,48.4614258 29.2016602,49.2084961 C29.2016602,49.9775391 28.6083984,50.5708008 27.8393555,50.5708008 Z" id="􀬓" fill="#005E66" fill-rule="nonzero"></path>
            </g>
        </g>
    </g>
</svg>