<svg xmlns="http://www.w3.org/2000/svg" width="69" height="64" viewBox="0 0 69 64">
    <g fill="none" fill-rule="evenodd">
        <g fill="#0096C6" fill-rule="nonzero">
            <g>
                <path d="M28.024 54.823c1.729 0 3.022-.443 3.879-1.33.857-.886 1.285-2.274 1.285-4.163V33.443c0-1.86-.428-3.237-1.285-4.13-.643-.67-1.53-1.09-2.664-1.257l-.16-.02v-5.03c0-2.08-.319-3.903-.956-5.47-.637-1.568-1.501-2.865-2.592-3.89-1.092-1.025-2.33-1.794-3.714-2.307-1.384-.513-2.809-.77-4.274-.77-1.479 0-2.904.257-4.273.77-1.37.513-2.604 1.282-3.703 2.307-1.098 1.025-1.97 2.322-2.614 3.89-.645 1.567-.967 3.39-.967 5.47l-.001 5.033-.137.017c-1.133.167-2.021.586-2.664 1.256-.857.894-1.285 2.271-1.285 4.131V49.33c0 1.89.428 3.277 1.285 4.163.857.887 2.15 1.33 3.878 1.33h20.962zm-3.582-26.85H10.644v-5.34c0-1.626.311-3.007.934-4.142.622-1.135 1.457-1.996 2.505-2.582 1.047-.586 2.2-.879 3.46-.879 1.275 0 2.432.293 3.472.88 1.04.585 1.871 1.446 2.494 2.581.623 1.135.934 2.516.934 4.142l-.001 5.34zm2.572 22.477H8.095c-.469 0-.82-.12-1.054-.362-.235-.242-.352-.641-.352-1.198V33.905c0-.557.117-.952.352-1.187.234-.234.585-.351 1.054-.351h18.919c.468 0 .813.117 1.032.351.22.235.33.63.33 1.187V48.89c0 .557-.11.956-.33 1.198-.22.241-.564.362-1.032.362z" transform="translate(-181.000000, -9127.000000) translate(181.000000, 9127.000000)"/>
            </g>
        </g>
    </g>
</svg>
