<svg xmlns="http://www.w3.org/2000/svg" xmlns:xlink="http://www.w3.org/1999/xlink" width="33" height="45" viewBox="0 0 33 45" version="1.1">
    <title>􀎠</title>
    <g id="Final" stroke="none" stroke-width="1" fill="none" fill-rule="evenodd">
        <g id="CloseDeals-1281" transform="translate(-182.000000, -7154.000000)" fill="#00A33F" fill-rule="nonzero">
            <g id="iconSection8" transform="translate(174.000000, 7154.569824)">
                <path d="M35.0244141,44.2529297 C36.7529297,44.2529297 38.0456543,43.8098145 38.9025879,42.923584 C39.7595215,42.0373535 40.1879883,40.6494141 40.1879883,38.7597656 L40.1879883,22.8735352 C40.1879883,21.0131836 39.7595215,19.6362305 38.9025879,18.7426758 C38.2598877,18.0725098 37.3720551,17.653656 36.23909,17.4861145 L36.079,17.4661758 L36.0791016,12.4365234 C36.0791016,10.3564453 35.760498,8.53271484 35.123291,6.96533203 C34.486084,5.39794922 33.6218262,4.1015625 32.5305176,3.07617188 C31.439209,2.05078125 30.201416,1.28173828 28.8171387,0.769042969 C27.4328613,0.256347656 26.0083008,0 24.543457,0 C23.0639648,0 21.6394043,0.256347656 20.2697754,0.769042969 C18.9001465,1.28173828 17.6660156,2.05078125 16.5673828,3.07617188 C15.46875,4.1015625 14.597168,5.39794922 13.9526367,6.96533203 C13.3081055,8.53271484 12.9858398,10.3564453 12.9858398,12.4365234 L12.985,17.4691758 L12.8478241,17.4861145 C11.714859,17.653656 10.8270264,18.0725098 10.1843262,18.7426758 C9.32739258,19.6362305 8.89892578,21.0131836 8.89892578,22.8735352 L8.89892578,38.7597656 C8.89892578,40.6494141 9.32739258,42.0373535 10.1843262,42.923584 C11.0412598,43.8098145 12.3339844,44.2529297 14.0625,44.2529297 L35.0244141,44.2529297 Z M31.442,17.4031758 L17.644,17.4031758 L17.644,12.0629883 C17.644,10.4370117 17.9553223,9.05639648 18.5778809,7.92114258 C19.2004395,6.78588867 20.0354004,5.92529297 21.0827637,5.33935547 C22.130127,4.75341797 23.2836914,4.46044922 24.543457,4.46044922 C25.8178711,4.46044922 26.9750977,4.75341797 28.0151367,5.33935547 C29.0551758,5.92529297 29.8864746,6.78588867 30.5090332,7.92114258 C31.1315918,9.05639648 31.4428711,10.4370117 31.4428711,12.0629883 L31.442,17.4031758 Z M34.0136719,39.8803711 L15.0952148,39.8803711 C14.6264648,39.8803711 14.2749023,39.7595215 14.0405273,39.5178223 C13.8061523,39.276123 13.6889648,38.8769531 13.6889648,38.3203125 L13.6889648,23.3349609 C13.6889648,22.7783203 13.8061523,22.3828125 14.0405273,22.1484375 C14.2749023,21.9140625 14.6264648,21.796875 15.0952148,21.796875 L34.0136719,21.796875 C34.4824219,21.796875 34.8266602,21.9140625 35.0463867,22.1484375 C35.2661133,22.3828125 35.3759766,22.7783203 35.3759766,23.3349609 L35.3759766,38.3203125 C35.3759766,38.8769531 35.2661133,39.276123 35.0463867,39.5178223 C34.8266602,39.7595215 34.4824219,39.8803711 34.0136719,39.8803711 Z" id="􀎠"/>
            </g>
        </g>
    </g>
</svg>