<?xml version="1.0" encoding="UTF-8"?>
<svg width="65px" height="65px" viewBox="0 0 65 65" version="1.1" xmlns="http://www.w3.org/2000/svg" xmlns:xlink="http://www.w3.org/1999/xlink">
    <title>industrySub7</title>
    <g id="Home-Revamp-2021-V3" stroke="none" stroke-width="1" fill="none" fill-rule="evenodd">
        <g id="Desktop-HD" transform="translate(-1077.000000, -7169.000000)">
            <g id="industrySub7" transform="translate(1077.933594, 7169.873535)">
                <rect id="Rectangle" x="0" y="0" width="64" height="64"></rect>
                <path d="M44.3417969,23.0717773 L52.6035156,18.3696289 C52.2739258,18.0400391 51.878418,17.7763672 51.3950195,17.5126953 L35.8823242,8.6796875 C34.5419922,7.91064453 33.2016602,7.49316406 31.9052734,7.49316406 C30.5869141,7.49316406 29.246582,7.91064453 27.90625,8.6796875 L23.4458008,11.206543 L44.3417969,23.0717773 Z M31.9052734,30.125 L41.2875977,24.8076172 L20.4794922,12.9204102 L12.4155273,17.5126953 C11.9321289,17.7763672 11.5366211,18.0400391 11.1850586,18.3696289 L31.9052734,30.125 Z M33.3994141,55.3056641 C33.5532227,55.2617188 33.6850586,55.1958008 33.8388672,55.1079102 L51.043457,45.3081055 C53.0869141,44.1435547 54.1855469,42.9570312 54.1855469,39.7709961 L54.1855469,22.6542969 C54.1855469,21.9951172 54.1416016,21.4677734 54.0097656,20.984375 L33.3994141,32.7617188 L33.3994141,55.3056641 Z M30.3891602,55.3056641 L30.3891602,32.7617188 L9.77880859,20.984375 C9.64697266,21.4677734 9.60302734,21.9951172 9.60302734,22.6542969 L9.60302734,39.7709961 C9.60302734,42.9570312 10.7236328,44.1435547 12.7451172,45.3081055 L29.9716797,55.1079102 C30.1035156,55.1958008 30.2353516,55.2617188 30.3891602,55.3056641 Z" id="ô€›" fill="#3B22BB" fill-rule="nonzero"></path>
            </g>
        </g>
    </g>
</svg>