<?xml version="1.0" encoding="UTF-8"?>
<svg width="64px" height="64px" viewBox="0 0 64 64" version="1.1" xmlns="http://www.w3.org/2000/svg" xmlns:xlink="http://www.w3.org/1999/xlink">
    <title>industrySub6</title>
    <g id="Home-Revamp-2021-V3" stroke="none" stroke-width="1" fill="none" fill-rule="evenodd">
        <g id="Desktop-HD" transform="translate(-1590.000000, -6969.000000)">
            <g id="industrySub6" transform="translate(1590.000000, 6969.000000)">
                <rect id="Rectangle" x="0" y="0" width="64" height="64"></rect>
                <path d="M52.435141,52.3945312 C55.1817231,52.3945312 57.0274262,50.5488281 57.0274262,47.8242188 L57.0274262,12.5361328 C57.0274262,9.78955078 55.1817231,7.94384766 52.435141,7.94384766 C49.7325043,7.94384766 47.8868012,9.78955078 47.8868012,12.5361328 L47.8868012,47.8242188 C47.8868012,50.5488281 49.7325043,52.3945312 52.435141,52.3945312 Z M44.8765473,46.9453125 L44.8765473,13.5688477 C38.7022309,16.7329102 31.407309,18.7324219 25.4527191,19.3916016 L25.4527191,41.1225586 C31.9785981,41.8916016 38.7461762,43.8032227 44.8765473,46.9453125 Z M22.4424652,41.1005859 L22.4424652,19.3916016 L17.3228363,19.3916016 C11.1045746,19.3916016 7.80867618,22.5996094 7.80867618,28.5761719 L7.80867618,31.9160156 C7.80867618,37.8925781 11.1045746,41.1005859 17.3228363,41.1005859 L22.4424652,41.1005859 Z M26.419516,56.5913086 C29.2100434,56.5913086 31.2535004,54.6577148 30.5284027,51.2080078 L29.0782074,44.3525391 C27.957602,43.9130859 24.4859223,43.6713867 22.7940277,43.6494141 L17.1470551,43.6494141 L21.2998871,52.6582031 C22.4644379,55.1630859 23.8047699,56.5913086 26.419516,56.5913086 Z" id="􀬳" fill="#B82B00" fill-rule="nonzero"></path>
            </g>
        </g>
    </g>
</svg>