<?xml version="1.0" encoding="UTF-8"?>
<svg width="28px" height="28px" viewBox="0 0 28 28" version="1.1" xmlns="http://www.w3.org/2000/svg" xmlns:xlink="http://www.w3.org/1999/xlink">
    <title>more-icon</title>
    <g id="Desktop-Nav---Final" stroke="none" stroke-width="1" fill="none" fill-rule="evenodd">
        <g id="Nav-Assets" transform="translate(-69.000000, -34.000000)" fill="#0096C6" fill-rule="nonzero">
            <g id="Outlined-version" transform="translate(69.000000, 34.000000)">
                <path d="M13.7578125,22.8476562 C18.7939453,22.8476562 22.9423828,18.6904297 22.9423828,13.6542969 C22.9423828,8.61816406 18.7851562,4.46972656 13.7578125,4.46972656 C8.72167969,4.46972656 4.57324219,8.61816406 4.57324219,13.6542969 C4.57324219,18.6904297 8.72167969,22.8476562 13.7578125,22.8476562 Z M9.49511719,15.0869141 C8.6953125,15.0869141 8.05371094,14.4453125 8.05371094,13.6455078 C8.05371094,12.8544922 8.6953125,12.2128906 9.49511719,12.2128906 C10.2773438,12.2128906 10.9189453,12.8544922 10.9189453,13.6455078 C10.9189453,14.4453125 10.2861328,15.0869141 9.49511719,15.0869141 Z M13.7490234,15.0869141 C12.9580078,15.0869141 12.3076172,14.4453125 12.3076172,13.6455078 C12.3076172,12.8544922 12.9580078,12.2128906 13.7490234,12.2128906 C14.5400391,12.2128906 15.1816406,12.8544922 15.1816406,13.6455078 C15.1816406,14.4453125 14.5400391,15.0869141 13.7490234,15.0869141 Z M18.0029297,15.0869141 C17.2119141,15.0869141 16.5703125,14.4453125 16.5703125,13.6455078 C16.5703125,12.8544922 17.2119141,12.2128906 18.0029297,12.2128906 C18.7939453,12.2128906 19.4443359,12.8544922 19.4443359,13.6455078 C19.4443359,14.4453125 18.7939453,15.0869141 18.0029297,15.0869141 Z"></path>
            </g>
        </g>
    </g>
</svg>