<?xml version="1.0" encoding="UTF-8"?>
<svg width="64px" height="64px" viewBox="0 0 64 64" version="1.1" xmlns="http://www.w3.org/2000/svg" xmlns:xlink="http://www.w3.org/1999/xlink">
    <title>industrySub4</title>
    <g id="Home-Revamp-2021-V3" stroke="none" stroke-width="1" fill="none" fill-rule="evenodd">
        <g id="Desktop-HD" transform="translate(-1076.000000, -6969.000000)">
            <g id="industrySub4" transform="translate(1076.000000, 6969.000000)">
                <rect id="Rectangle" x="0" y="0" width="64" height="64"></rect>
                <path d="M49.3111035,43.5395508 C52.4312207,43.5395508 53.9693066,42.0454102 53.9693066,38.859375 L53.9693066,19.1938477 C53.9693066,16.0078125 52.4312207,14.5356445 49.3111035,14.5356445 L14.9238965,14.5356445 C11.825752,14.5356445 10.2656934,16.0078125 10.2656934,19.1938477 L10.2656934,38.859375 C10.2656934,42.0454102 11.825752,43.5395508 14.9238965,43.5395508 L49.3111035,43.5395508 Z M28.3272168,38.3759766 C26.4375684,38.3759766 25.2510449,37.2333984 25.2510449,35.6293945 C25.2510449,33.7836914 26.6792676,32.7729492 28.3711621,32.3334961 L30.0850293,31.894043 C30.9566113,31.6657715 31.0638298,31.4962972 31.0730528,30.7747825 L31.0737988,22.4458008 C31.0737988,21.3251953 31.2935254,21.1713867 32.216377,20.9296875 L37.7315137,19.5454102 C38.7422559,19.2817383 38.9839551,19.6113281 38.9839551,20.3144531 L38.9839551,24.0498047 C38.9839551,25.1264648 38.7202832,25.3242188 37.7974316,25.5439453 L33.4468457,26.6206055 C33.0073926,26.7084961 32.853584,26.8842773 32.853584,27.5874023 L32.853584,33.7397461 C32.853584,36.4643555 31.0078809,38.3759766 28.3272168,38.3759766 Z M40.8955762,49.7138672 C41.7525098,49.7138672 42.4776074,49.0107422 42.4776074,48.1318359 C42.4776074,47.2529297 41.7525098,46.527832 40.8955762,46.527832 L23.3613965,46.527832 C22.4824902,46.527832 21.7793652,47.2529297 21.7793652,48.1318359 C21.7793652,49.0107422 22.4824902,49.7138672 23.3613965,49.7138672 L40.8955762,49.7138672 Z" id="􀒷" fill="#B82B00" fill-rule="nonzero"></path>
            </g>
        </g>
    </g>
</svg>