<svg xmlns="http://www.w3.org/2000/svg" width="81" height="64" viewBox="0 0 81 64">
    <g fill="none" fill-rule="evenodd">
        <g fill="#0096C6" fill-rule="nonzero">
            <g>
                <path d="M67.719 16.568l1.758-1.801c.454-.484.692-1.026.714-1.626.022-.601-.194-1.128-.649-1.582l-.615-.638c-.395-.41-.893-.586-1.494-.527-.6.059-1.12.308-1.56.747L64.071 12.9l3.648 3.67zM42.846 38.673l4.746-1.978 18.545-18.523-3.67-3.647-18.5 18.523-2.088 4.636c-.132.308-.073.582.176.824s.512.297.79.165zm12.612 15.161c2.08 0 3.684-.553 4.812-1.659 1.128-1.106 1.692-2.692 1.692-4.757V28.082l-4.966 4.966v13.645c0 .82-.227 1.457-.681 1.911-.454.455-1.091.682-1.912.682H9.162c-.82 0-1.458-.227-1.912-.682-.454-.454-.681-1.09-.681-1.911V28.478c0-1.714.864-2.571 2.593-2.571h36.1l4.571-4.549H8.107c-2.08 0-3.684.55-4.812 1.648-1.128 1.099-1.692 2.688-1.692 4.768v19.644c0 2.065.564 3.651 1.692 4.757 1.128 1.106 2.732 1.659 4.812 1.659h47.351zM14.677 40.936c.923 0 1.714-.326 2.373-.978.659-.652.989-1.446.989-2.384 0-.923-.33-1.71-.99-2.362-.658-.652-1.45-.978-2.372-.978-.923 0-1.714.326-2.373.978-.66.652-.99 1.44-.99 2.362 0 .938.33 1.732.99 2.384.659.652 1.45.978 2.373.978zm9.865 0c.923 0 1.714-.326 2.374-.978.659-.652.988-1.446.988-2.384 0-.923-.33-1.71-.988-2.362-.66-.652-1.45-.978-2.374-.978-.922 0-1.71.326-2.362.978-.651.652-.977 1.44-.977 2.362 0 .938.326 1.732.977 2.384.652.652 1.44.978 2.362.978zm9.888 0c.923 0 1.714-.326 2.373-.978.66-.652.989-1.446.989-2.384 0-.923-.33-1.71-.989-2.362-.659-.652-1.45-.978-2.373-.978-.923 0-1.714.326-2.373.978-.66.652-.989 1.44-.989 2.362 0 .938.33 1.732.99 2.384.658.652 1.45.978 2.372.978z" transform="translate(-74.000000, -5763.000000) translate(74.000000, 5763.000000)"/>
            </g>
        </g>
    </g>
</svg>
