<?xml version="1.0" encoding="UTF-8"?>
<svg width="64px" height="64px" viewBox="0 0 64 64" version="1.1" xmlns="http://www.w3.org/2000/svg" xmlns:xlink="http://www.w3.org/1999/xlink">
    <title>industrySub8</title>
    <g id="Home-Revamp-2021-V3" stroke="none" stroke-width="1" fill="none" fill-rule="evenodd">
        <g id="Desktop-HD" transform="translate(-1336.000000, -7170.000000)">
            <g id="industrySub8" transform="translate(1336.000000, 7170.000000)">
                <rect id="Rectangle" x="0" y="0" width="64" height="64"></rect>
                <path d="M49.5798828,49.1953125 C53.7302734,49.1953125 55.8054688,47.1445312 55.8054688,43.0429688 L55.8054688,23.0722656 C55.8054688,18.9707031 53.7302734,16.9443359 49.5798828,16.9443359 L44.184375,16.9443359 C42.6951172,16.9443359 42.23125,16.578125 41.4011719,15.6748047 L39.9119141,13.9902344 C38.9597656,12.9648438 37.934375,12.3300781 35.9324219,12.3300781 L28.1931641,12.3300781 C26.1667969,12.3300781 25.1414062,12.9648438 24.2136719,13.9902344 L22.7,15.6748047 C21.8943359,16.578125 21.4060547,16.9443359 19.9412109,16.9443359 L14.5701172,16.9443359 C10.4197266,16.9443359 8.34453125,18.9707031 8.34453125,23.0722656 L8.34453125,43.0429688 C8.34453125,47.1445312 10.4197266,49.1953125 14.5701172,49.1953125 L49.5798828,49.1953125 Z M32.075,43.3359375 C26.3132812,43.3359375 21.6746094,38.7216797 21.6746094,32.9355469 C21.6746094,27.125 26.3132812,22.5107422 32.075,22.5107422 C37.8367188,22.5107422 42.4509766,27.125 42.4509766,32.9355469 C42.4509766,38.7216797 37.8367188,43.3359375 32.075,43.3359375 Z M46.2839844,28.3701172 C44.9167969,28.3945312 43.7449219,27.2714844 43.7449219,25.8554688 C43.7449219,24.5126953 44.9167969,23.3408203 46.2839844,23.3408203 C47.6511719,23.3408203 48.7986328,24.5126953 48.7986328,25.8554688 C48.7986328,27.2714844 47.6511719,28.3457031 46.2839844,28.3701172 Z M32.075,40.0400391 C36.0056641,40.0400391 39.1794922,36.890625 39.1794922,32.9355469 C39.1794922,28.9804688 36.0056641,25.8066406 32.075,25.8066406 C28.1443359,25.8066406 24.9460937,28.9804688 24.9460937,32.9355469 C24.9460937,36.890625 28.16875,40.0400391 32.075,40.0400391 Z" id="􀌟" fill="#3B22BB" fill-rule="nonzero"></path>
            </g>
        </g>
    </g>
</svg>