<?xml version="1.0" encoding="UTF-8"?>
<svg width="48px" height="49px" viewBox="0 0 48 49" version="1.1" xmlns="http://www.w3.org/2000/svg" xmlns:xlink="http://www.w3.org/1999/xlink">
    <title>projectsIcon</title>
    <g id="Home-Revamp-2021-V3" stroke="none" stroke-width="1" fill="none" fill-rule="evenodd">
        <g id="Home-Assets" transform="translate(-1203.000000, -8693.000000)">
            <g id="projectsIcon" transform="translate(1203.000000, 8693.949219)">
                <rect id="Rectangle" x="0" y="0" width="48" height="48"></rect>
                <path d="M32.5283203,37.0761719 C35.5771484,37.0761719 37.2041016,35.4492188 37.2041016,32.4414062 L37.2041016,15.84375 C37.2041016,12.8359375 35.5771484,11.2226562 32.5283203,11.2226562 L16.0126953,11.2226562 C12.9775391,11.2226562 11.3505859,12.8359375 11.3505859,15.84375 L11.3505859,32.4414062 C11.3505859,35.4628906 12.9775391,37.0761719 16.0126953,37.0761719 L32.5283203,37.0761719 Z M32.2548828,33.9453125 L16.2998047,33.9453125 C15.1103516,33.9453125 14.4814453,33.34375 14.4814453,32.0996094 L14.4814453,16.1855469 C14.4814453,14.9414062 15.1103516,14.3535156 16.2998047,14.3535156 L32.2548828,14.3535156 C33.4169922,14.3535156 34.0732422,14.9414062 34.0732422,16.1855469 L34.0732422,32.0996094 C34.0732422,33.34375 33.4169922,33.9453125 32.2548828,33.9453125 Z M22.8349609,30.6367188 C23.3681641,30.6367188 23.8193359,30.3632812 24.1337891,29.8984375 L30.2451172,20.4785156 C30.4365234,20.1777344 30.5869141,19.8359375 30.5869141,19.5214844 C30.5869141,18.7832031 29.9306641,18.2773438 29.2333984,18.2773438 C28.7685547,18.2773438 28.3720703,18.5234375 28.0576172,19.0292969 L22.7939453,27.4101562 L20.3876953,24.3886719 C20.0458984,23.9785156 19.7041016,23.8144531 19.2802734,23.8144531 C18.5419922,23.8144531 17.9541016,24.4023438 17.9541016,25.140625 C17.9541016,25.4824219 18.0771484,25.796875 18.3369141,26.125 L21.4814453,29.9121094 C21.8642578,30.390625 22.3017578,30.6367188 22.8349609,30.6367188 Z" id="􀃲" fill="#CF4700" fill-rule="nonzero"></path>
            </g>
        </g>
    </g>
</svg>