<svg xmlns="http://www.w3.org/2000/svg" xmlns:xlink="http://www.w3.org/1999/xlink" width="56" height="44" viewBox="0 0 56 44" version="1.1">
    <title>iconSection1</title>
    <g id="Final" stroke="none" stroke-width="1" fill="none" fill-rule="evenodd">
        <g id="CloseDeals-1281" transform="translate(-287.000000, -10837.000000)" fill="#00A33F" fill-rule="nonzero">
            <g id="􀥭" transform="translate(287.603027, 10837.360840)">
                <path d="M0,36.4746094 C0,40.9570312 2.59277344,43.4838867 7.14111328,43.4838867 L34.2993164,43.4838867 C38.8476562,43.4838867 41.4404297,40.9570312 41.4404297,36.4746094 L41.4404297,29.4213867 C41.4404297,29.0698242 41.6821289,28.9160156 42.0996094,29.1577148 C43.3300781,29.9707031 44.7802734,30.4980469 46.4282227,30.4980469 C50.7568359,30.4980469 54.777832,27.0922852 54.777832,21.796875 C54.777832,16.5234375 50.7568359,13.0957031 46.4282227,13.0957031 C44.7802734,13.0957031 43.3300781,13.6450195 42.0996094,14.4580078 C41.6821289,14.699707 41.4404297,14.5458984 41.4404297,14.1723633 L41.4404297,7.00927734 C41.4404297,2.52685547 38.8476562,0 34.2993164,0 L7.14111328,0 C2.59277344,0 0,2.52685547 0,7.00927734 L0,16.6772461 C0,18.7646484 1.40625,20.1269531 3.22998047,20.1269531 C4.26269531,20.1269531 5.14160156,19.7314453 5.99853516,19.0063477 C7.00927734,18.1713867 8.0859375,17.578125 9.33837891,17.578125 C11.6235352,17.578125 13.4692383,19.2260742 13.4692383,21.7529297 C13.4692383,24.3017578 11.6235352,25.949707 9.33837891,25.949707 C8.0859375,25.949707 7.00927734,25.3564453 5.99853516,24.5214844 C5.14160156,23.7963867 4.26269531,23.4008789 3.22998047,23.4008789 C1.40625,23.4008789 0,24.7631836 0,26.8505859 L0,36.4746094 Z M4.5703125,36.2768555 L4.5703125,29.6191406 C4.5703125,28.762207 5.03173828,29.0039062 5.44921875,29.2675781 C6.63574219,29.9707031 7.99804688,30.4541016 9.58007812,30.4541016 C13.9086914,30.4541016 17.9077148,27.0483398 17.9077148,21.7529297 C17.9077148,16.4794922 13.9086914,13.0737305 9.58007812,13.0737305 C7.99804688,13.0737305 6.63574219,13.5571289 5.44921875,14.2602539 C5.03173828,14.5239258 4.5703125,14.765625 4.5703125,13.9086914 L4.5703125,7.20703125 C4.5703125,5.51513672 5.55908203,4.5703125 7.18505859,4.5703125 L34.2553711,4.5703125 C35.8813477,4.5703125 36.8701172,5.51513672 36.8701172,7.20703125 L36.8701172,16.6772461 C36.8701172,18.7646484 38.2763672,20.1708984 40.078125,20.1708984 C41.1328125,20.1708984 42.0117188,19.753418 42.8686523,19.050293 C43.8793945,18.1933594 44.9560547,17.6000977 46.2084961,17.6000977 C48.4936523,17.6000977 50.3393555,19.2700195 50.3393555,21.796875 C50.3393555,24.3237305 48.4936523,25.9936523 46.2084961,25.9936523 C44.9560547,25.9936523 43.8793945,25.4003906 42.8686523,24.5654297 C42.0117188,23.840332 41.1328125,23.4448242 40.078125,23.4448242 C38.2763672,23.4448242 36.8701172,24.8510742 36.8701172,26.9384766 L36.8701172,36.2768555 C36.8701172,37.96875 35.8813477,38.9135742 34.2553711,38.9135742 L7.18505859,38.9135742 C5.55908203,38.9135742 4.5703125,37.96875 4.5703125,36.2768555 Z" id="Shape"/>
            </g>
        </g>
    </g>
</svg>