<?xml version="1.0" encoding="UTF-8"?>
<svg width="64px" height="64px" viewBox="0 0 64 64" version="1.1" xmlns="http://www.w3.org/2000/svg" xmlns:xlink="http://www.w3.org/1999/xlink">
    <title>industrySub1</title>
    <g id="Home-Revamp-2021-V3" stroke="none" stroke-width="1" fill="none" fill-rule="evenodd">
        <g id="Desktop-HD" transform="translate(-1081.000000, -6736.000000)">
            <g id="industrySub1" transform="translate(1081.000000, 6736.000000)">
                <rect id="Rectangle" x="0" y="0" width="64" height="64"></rect>
                <path d="M56.2747406,32.6630859 C57.3074555,32.6630859 58.1424164,32.0258789 58.1424164,30.9711914 C58.1424164,30.3120117 57.9226898,29.8725586 57.4612641,29.4770508 L51.3089203,24.2915039 L51.3089203,15.5024414 C51.3089203,14.5356445 50.6936859,13.9204102 49.7268891,13.9204102 L47.3758148,13.9204102 C46.4309906,13.9204102 45.7937836,14.5356445 45.7937836,15.5024414 L45.7937836,19.6552734 L34.5877289,10.2509766 C32.9617523,8.86669922 30.940268,8.86669922 29.2923188,10.2509766 L6.39681094,29.4770508 C5.91341251,29.8725586 5.69368594,30.3999023 5.69368594,30.9052734 C5.69368594,31.8061523 6.39681094,32.6630859 7.58333438,32.6630859 C8.19856876,32.6630859 8.70393985,32.3334961 9.16536563,31.9599609 L31.1599945,13.5029297 C31.643393,13.0634766 32.2366547,13.0634766 32.7200531,13.5029297 L54.714682,31.9599609 C55.1541352,32.3334961 55.6595063,32.6630859 56.2747406,32.6630859 Z M46.3870453,55.3608398 C49.4851898,55.3608398 51.3089203,53.559082 51.3089203,50.5268555 L51.3089203,33.1025391 L33.2473969,17.9633789 C32.4124359,17.2602539 31.4236664,17.2822266 30.6106781,17.9633789 L12.5491547,33.1025391 L12.5491547,50.5268555 C12.5491547,53.559082 14.3948578,55.3608398 17.4930023,55.3608398 L46.3870453,55.3608398 Z M37.5979828,51.8232422 L26.2600922,51.8232422 L26.2600922,37.2993164 C26.2600922,36.2885742 26.9412445,35.6293945 27.9519867,35.6293945 L35.9280609,35.6293945 C36.9388031,35.6293945 37.5979828,36.2885742 37.5979828,37.2993164 L37.5979828,51.8232422 Z" id="ô€Ÿ" fill="#005E66" fill-rule="nonzero"></path>
            </g>
        </g>
    </g>
</svg>