<?xml version="1.0" encoding="UTF-8"?>
<svg width="42px" height="42px" viewBox="0 0 42 42" version="1.1" xmlns="http://www.w3.org/2000/svg" xmlns:xlink="http://www.w3.org/1999/xlink">
    <title>dealsSub1</title>
    <g id="Home-Revamp-2021-V3" stroke="none" stroke-width="1" fill="none" fill-rule="evenodd">
        <g id="Home-Assets" transform="translate(-849.000000, -8379.000000)" fill="#00A33F" fill-rule="nonzero">
            <g id="dealsSub1" transform="translate(849.603027, 8379.942871)">
                <path d="M33.5522461,40.4516602 C38.1665039,40.4516602 40.4516602,38.1665039 40.4516602,33.6401367 L40.4516602,6.81152344 C40.4516602,2.28515625 38.1665039,0 33.5522461,0 L6.89941406,0 C2.30712891,0 0,2.26318359 0,6.81152344 L0,33.6401367 C0,38.1884766 2.30712891,40.4516602 6.89941406,40.4516602 L33.5522461,40.4516602 Z M33.5083008,36.9140625 L6.94335938,36.9140625 C4.74609375,36.9140625 3.53759766,35.7495117 3.53759766,33.4643555 L3.53759766,6.98730469 C3.53759766,4.70214844 4.74609375,3.53759766 6.94335938,3.53759766 L33.5083008,3.53759766 C35.6835938,3.53759766 36.9140625,4.70214844 36.9140625,6.98730469 L36.9140625,33.4643555 C36.9140625,35.7495117 35.6835938,36.9140625 33.5083008,36.9140625 Z M22.3461914,29.3554688 C22.8076172,29.3554688 23.203125,29.1796875 23.4887695,28.894043 L30.9155273,21.4453125 C31.3330078,21.0498047 31.5527344,20.6542969 31.5527344,20.1708984 C31.5527344,19.6875 31.3549805,19.3359375 30.9155273,18.8964844 L23.4887695,11.4257812 C23.203125,11.1401367 22.8076172,10.9863281 22.3461914,10.9863281 C21.4453125,10.9863281 20.7641602,11.6674805 20.7641602,12.5683594 C20.7641602,13.0517578 20.9619141,13.4472656 21.2475586,13.7548828 L24.0161133,16.4794922 L26.652832,18.6987305 L22.0166016,18.5229492 L10.546875,18.5229492 C9.60205078,18.5229492 8.92089844,19.2041016 8.92089844,20.1708984 C8.92089844,21.1157227 9.60205078,21.796875 10.546875,21.796875 L22.0166016,21.796875 L26.652832,21.6430664 L24.0161133,23.8623047 L21.2475586,26.5869141 C20.9399414,26.8725586 20.7641602,27.2680664 20.7641602,27.7514648 C20.7641602,28.6523438 21.4453125,29.3554688 22.3461914,29.3554688 Z" id="􀄌"></path>
            </g>
        </g>
    </g>
</svg>