<?xml version="1.0" encoding="UTF-8"?>
<svg width="49px" height="49px" viewBox="0 0 49 49" version="1.1" xmlns="http://www.w3.org/2000/svg" xmlns:xlink="http://www.w3.org/1999/xlink">
    <title>closedealsIcon</title>
    <g id="Home-Revamp-2021-V3" stroke="none" stroke-width="1" fill="none" fill-rule="evenodd">
        <g id="Home-Assets" transform="translate(-1002.000000, -8693.000000)">
            <g id="closedealsIcon" transform="translate(1002.913363, 8693.949219)">
                <rect id="Rectangle" x="0" y="0" width="48" height="48"></rect>
                <path d="M24.2773438,38.4296875 C32.1113281,38.4296875 38.5644531,31.9628906 38.5644531,24.1289062 C38.5644531,16.2949219 32.0976563,9.84179688 24.2773438,9.84179688 C16.4433594,9.84179688 9.99023438,16.2949219 9.99023438,24.1289062 C9.99023438,31.9628906 16.4433594,38.4296875 24.2773438,38.4296875 Z M24.2773438,35.2167969 C18.1386719,35.2167969 13.2167969,30.2675781 13.2167969,24.1289062 C13.2167969,17.9902344 18.125,13.0546875 24.2773438,13.0546875 C30.4160156,13.0546875 35.3515625,17.9902344 35.3652344,24.1289062 C35.3652344,30.2675781 30.4160156,35.2167969 24.2773438,35.2167969 Z M24.2636719,31.703125 C24.6191406,31.703125 24.8652344,31.4570312 24.8652344,31.0878906 L24.8652344,30.2128906 C27.1757813,30.0078125 28.84375,28.7089844 28.84375,26.6308594 C28.84375,24.7578125 27.6542969,23.6914062 25.2617188,23.2402344 L24.8652344,23.1582031 L24.8652344,20.0683594 C25.6582031,20.2050781 26.21875,20.6699219 26.4648438,21.3945312 C26.6972656,21.8730469 27.0390625,22.1328125 27.5585938,22.1328125 C28.1738281,22.1328125 28.5839844,21.75 28.5839844,21.1757812 C28.5839844,21.0117188 28.5429688,20.8476562 28.5019531,20.6699219 C28.1328125,19.3164062 26.765625,18.3046875 24.8652344,18.1132812 L24.8652344,17.2246094 C24.8652344,16.8554688 24.6191406,16.609375 24.2636719,16.609375 C23.921875,16.609375 23.6621094,16.8554688 23.6621094,17.2246094 L23.6621094,18.1132812 C21.4472656,18.3183594 19.875,19.6445312 19.875,21.5996094 C19.875,23.390625 21.0644531,24.4433594 23.3339844,24.9492188 L23.6621094,25.03125 L23.6621094,28.2851562 C22.6640625,28.1347656 22.0761719,27.6152344 21.8710938,26.890625 C21.6523438,26.3847656 21.3105469,26.1113281 20.7910156,26.1113281 C20.1347656,26.1113281 19.7382813,26.5351562 19.7382813,27.1367188 C19.7382813,27.3007812 19.765625,27.4648438 19.8339844,27.65625 C20.2167969,28.9960938 21.625,30.0488281 23.6621094,30.1992188 L23.6621094,31.0878906 C23.6621094,31.4570312 23.921875,31.703125 24.2636719,31.703125 Z M23.6621094,22.8574219 L23.5800781,22.8300781 C22.5683594,22.5429688 22.1035156,22.1054688 22.1035156,21.4355469 C22.1035156,20.7382812 22.7050781,20.1914062 23.6621094,20.0410156 L23.6621094,22.8574219 Z M24.8652344,28.2851562 L24.8652344,25.3183594 L25.0976563,25.3730469 C26.1914063,25.6601562 26.6015625,26.0976562 26.6015625,26.8085938 C26.6015625,27.6015625 26.0136719,28.1621094 24.8652344,28.2851562 Z" id="􀖗" fill="#007E56" fill-rule="nonzero"></path>
            </g>
        </g>
    </g>
</svg>