<?xml version="1.0" encoding="UTF-8"?>
<svg width="46px" height="46px" viewBox="0 0 46 46" version="1.1" xmlns="http://www.w3.org/2000/svg" xmlns:xlink="http://www.w3.org/1999/xlink">
    <title>projectsSub1</title>
    <g id="Home-Revamp-2021-V3" stroke="none" stroke-width="1" fill="none" fill-rule="evenodd">
        <g id="Home-Assets" transform="translate(-846.000000, -7807.000000)" fill="#FF9F0A" fill-rule="nonzero">
            <g id="projectsSub1" transform="translate(846.363339, 7807.723633)">
                <path d="M22.4121094,44.8242188 C34.6728516,44.8242188 44.8242188,34.6508789 44.8242188,22.4121094 C44.8242188,10.1513672 34.6508789,0 22.3901367,0 C10.1513672,0 0,10.1513672 0,22.4121094 C0,34.6508789 10.1733398,44.8242188 22.4121094,44.8242188 Z M22.4121094,41.0888672 C12.0410156,41.0888672 3.75732422,32.7832031 3.75732422,22.4121094 C3.75732422,12.0410156 12.019043,3.73535156 22.3901367,3.73535156 C32.7612305,3.73535156 41.0668945,12.0410156 41.0889106,22.4121094 C41.1108398,32.7832031 32.7832031,41.0888672 22.4121094,41.0888672 Z M16.0400391,20.4125977 C17.3364258,20.4125977 18.4130859,19.2700195 18.4130859,17.6660156 C18.4130859,16.0620117 17.3364258,14.9194336 16.0400391,14.9194336 C14.7436523,14.9194336 13.6889648,16.0620117 13.6889648,17.6660156 C13.6889648,19.2700195 14.7436523,20.4125977 16.0400391,20.4125977 Z M28.8720703,20.4125977 C30.168457,20.4125977 31.2451172,19.2700195 31.2451172,17.6660156 C31.2451172,16.0620117 30.168457,14.9194336 28.8720703,14.9194336 C27.5976562,14.9194336 26.5209961,16.0620117 26.5209961,17.6660156 C26.5209961,19.2700195 27.5976562,20.4125977 28.8720703,20.4125977 Z M22.3901367,33.4204102 C26.9824219,33.4204102 30.0585938,30.3662109 30.0585938,28.9160156 C30.0585938,28.3886719 29.5532227,28.1469727 29.0917969,28.3666992 C27.487793,29.2456055 25.5761719,30.234375 22.3901367,30.234375 C19.2041016,30.234375 17.2924805,29.2236328 15.7104492,28.3666992 C15.2270508,28.1469727 14.7216797,28.3886719 14.7216797,28.9160156 C14.7216797,30.3662109 17.7978516,33.4204102 22.3901367,33.4204102 Z" id="􀎸"></path>
            </g>
        </g>
    </g>
</svg>