<?xml version="1.0" encoding="UTF-8"?>
<svg width="64px" height="64px" viewBox="0 0 64 64" version="1.1" xmlns="http://www.w3.org/2000/svg" xmlns:xlink="http://www.w3.org/1999/xlink">
    <title>industrySub9</title>
    <g id="Home-Revamp-2021-V3" stroke="none" stroke-width="1" fill="none" fill-rule="evenodd">
        <g id="Desktop-HD" transform="translate(-1590.000000, -7168.000000)">
            <g id="industrySub9" transform="translate(1590.000000, 7168.000000)">
                <rect id="Rectangle" x="0" y="0" width="64" height="64"></rect>
                <path d="M41.8057465,54.262207 C42.794516,54.262207 43.5855316,53.4711914 43.5855316,52.5043945 C43.5855316,51.515625 42.794516,50.7026367 41.8057465,50.7026367 L39.3228363,50.7026367 L38.707602,46.4619141 L52.4624848,46.4619141 C56.219809,46.4619141 58.1094574,44.6601562 58.1094574,40.8149414 L58.1094574,15.6342773 C58.1094574,11.7890625 56.219809,9.98730469 52.4624848,9.98730469 L11.3736176,9.98730469 C7.61629337,9.98730469 5.72664493,11.7890625 5.72664493,15.6342773 L5.72664493,40.8149414 C5.72664493,44.6601562 7.61629337,46.4619141 11.3736176,46.4619141 L25.1285004,46.4619141 L24.4912934,50.7026367 L22.0083832,50.7026367 C21.0415863,50.7026367 20.2505707,51.515625 20.2505707,52.5043945 C20.2505707,53.4711914 21.0415863,54.262207 22.0083832,54.262207 L41.8057465,54.262207 Z M53.6050629,36.7939453 L10.2090668,36.7939453 C9.54988712,36.7939453 9.26424258,36.5302734 9.26424258,35.8491211 L9.26424258,15.7001953 C9.26424258,14.1401367 9.92342227,13.5249023 11.4395356,13.5249023 L52.3965668,13.5249023 C53.8907074,13.5249023 54.5718598,14.1401367 54.5718598,15.7001953 L54.5718598,35.8491211 C54.5718598,36.5302734 54.2642426,36.7939453 53.6050629,36.7939453 Z M31.9180512,44.2866211 C30.7974457,44.2866211 29.8745941,43.3637695 29.8745941,42.2431641 C29.8745941,41.1665039 30.7974457,40.2216797 31.9180512,40.2216797 C33.016684,40.2216797 33.9395356,41.1665039 33.9395356,42.2431641 C33.9395356,43.3637695 33.016684,44.2866211 31.9180512,44.2866211 Z" id="􀙗" fill="#3B22BB" fill-rule="nonzero"></path>
            </g>
        </g>
    </g>
</svg>