<svg xmlns="http://www.w3.org/2000/svg" width="69" height="64" viewBox="0 0 69 64">
    <g fill="none" fill-rule="evenodd">
        <g fill="#0096C6" fill-rule="nonzero">
            <g>
                <path d="M10.447 30.28c1.802 0 3.442-.444 4.922-1.33 1.48-.886 2.67-2.073 3.57-3.56.901-1.486 1.352-3.13 1.352-4.932 0-1.788-.447-3.428-1.34-4.922-.894-1.494-2.085-2.688-3.571-3.582-1.487-.893-3.131-1.34-4.933-1.34s-3.45.447-4.944 1.34c-1.494.894-2.684 2.088-3.57 3.582-.887 1.494-1.33 3.134-1.33 4.922 0 1.801.447 3.446 1.34 4.932.894 1.487 2.088 2.674 3.582 3.56 1.494.886 3.135 1.33 4.922 1.33zM8.59 25.587c-.198-.124-.377-.29-.538-.494L5.59 22.149c-.235-.278-.352-.586-.352-.922 0-.367.121-.674.363-.923.242-.25.538-.374.89-.374.234 0 .432.048.593.143.161.095.322.238.483.428l1.67 2.066 3.911-6.262c.293-.47.674-.703 1.143-.703.352 0 .656.117.912.351.256.235.384.513.384.835 0 .322-.102.645-.307.967l-4.746 7.317c-.308.469-.725.696-1.253.68-.263.016-.494-.04-.692-.164zm41.1-2.977c.6 0 1.113-.209 1.538-.626.425-.418.637-.927.637-1.527 0-.586-.212-1.084-.637-1.495-.425-.41-.937-.615-1.538-.615H27.563c-.6 0-1.11.205-1.527.615-.417.41-.626.909-.626 1.495 0 .6.209 1.11.626 1.527.418.417.927.626 1.527.626H49.69zM10.447 55.68c1.802 0 3.446-.45 4.933-1.352 1.486-.9 2.677-2.094 3.57-3.581.894-1.487 1.34-3.124 1.34-4.911 0-1.816-.446-3.468-1.34-4.955-.893-1.487-2.084-2.677-3.57-3.57-1.487-.894-3.131-1.34-4.933-1.34s-3.45.446-4.944 1.34c-1.494.893-2.684 2.087-3.57 3.581-.887 1.494-1.33 3.142-1.33 4.944 0 1.787.447 3.424 1.34 4.91.894 1.488 2.088 2.681 3.582 3.582 1.494.901 3.135 1.352 4.922 1.352zm0-4.131c-1.04 0-1.992-.26-2.857-.78-.864-.52-1.556-1.212-2.076-2.077-.52-.864-.78-1.816-.78-2.856 0-1.04.26-1.996.78-2.867.52-.872 1.212-1.568 2.076-2.088.865-.52 1.817-.78 2.857-.78 1.04 0 1.992.26 2.856.78.864.52 1.557 1.216 2.077 2.088.52.871.78 1.827.78 2.867s-.26 1.992-.78 2.856c-.52.865-1.213 1.557-2.077 2.077-.864.52-1.816.78-2.856.78zm39.243-3.516c.6 0 1.113-.209 1.538-.626.425-.417.637-.92.637-1.505 0-.6-.212-1.11-.637-1.527-.425-.418-.937-.626-1.538-.626H27.563c-.6 0-1.11.208-1.527.626-.417.417-.626.926-.626 1.527 0 .586.209 1.088.626 1.505.418.417.927.626 1.527.626H49.69z" transform="translate(-928.000000, -6804.000000) translate(928.000000, 6804.000000)"/>
            </g>
        </g>
    </g>
</svg>
