<?xml version="1.0" encoding="UTF-8"?>
<svg width="28px" height="28px" viewBox="0 0 28 28" version="1.1" xmlns="http://www.w3.org/2000/svg" xmlns:xlink="http://www.w3.org/1999/xlink">
    <title>support-icon</title>
    <g id="Desktop-Nav---Final" stroke="none" stroke-width="1" fill="none" fill-rule="evenodd">
        <g id="Nav-Assets" transform="translate(-107.000000, -82.000000)" fill="#AC3EF5" fill-rule="nonzero">
            <g id="Outlined-version" transform="translate(107.000000, 82.000000)">
                <path d="M13.9422783,23.6850586 C19.1695732,23.6850586 23.4923272,19.3718262 23.4923272,14.1350098 C23.4923272,8.90771484 19.1695732,4.58496094 13.9327568,4.58496094 C8.70546192,4.58496094 4.3922295,8.90771484 4.3922295,14.1350098 C4.3922295,19.3718262 8.7149834,23.6850586 13.9422783,23.6850586 Z M9.46718067,11.1643066 L7.36293262,9.06958008 C7.79139942,8.48876953 8.30555958,7.96508789 8.87684864,7.53662109 L10.9906182,9.65039062 C10.3907647,10.0407715 9.86708301,10.5644531 9.46718067,11.1643066 Z M18.4078545,11.2023926 C18.0174736,10.5930176 17.493792,10.0788574 16.884417,9.67895508 L18.9981865,7.56518555 C19.5789971,8.00317383 20.0836357,8.51733398 20.5121025,9.09814453 L18.4078545,11.2023926 Z M13.9422783,18.0292969 C11.7809014,18.0292969 10.0384697,16.2868652 10.0384697,14.1254883 C10.0384697,11.9641113 11.7809014,10.2216797 13.9422783,10.2216797 C16.1036553,10.2216797 17.8460869,11.9641113 17.8460869,14.1254883 C17.8460869,16.2868652 16.1036553,18.0292969 13.9422783,18.0292969 Z M19.007708,20.6762695 L16.90346,18.5625 C17.5033135,18.1721191 18.0269951,17.6484375 18.417376,17.0390625 L20.5311455,19.1433105 C20.1026787,19.7241211 19.5885186,20.2382812 19.007708,20.6762695 Z M8.89589161,20.704834 C8.31508106,20.2763672 7.8009209,19.7526855 7.37245411,19.171875 L9.48622364,17.0771484 C9.8766045,17.677002 10.4002861,18.2006836 11.0001397,18.5910645 L8.89589161,20.704834 Z"></path>
            </g>
        </g>
    </g>
</svg>