<?xml version="1.0" encoding="UTF-8"?>
<svg width="46px" height="46px" viewBox="0 0 46 46" version="1.1" xmlns="http://www.w3.org/2000/svg" xmlns:xlink="http://www.w3.org/1999/xlink">
    <title>dealsSub2</title>
    <g id="Home-Revamp-2021-V3" stroke="none" stroke-width="1" fill="none" fill-rule="evenodd">
        <g id="Home-Assets" transform="translate(-1271.000000, -8377.000000)" fill="#00A33F" fill-rule="nonzero">
            <g id="dealsSub2" transform="translate(1271.933105, 8377.723633)">
                <path d="M22.4121094,44.8242188 C34.6728516,44.8242188 44.8242188,34.6508789 44.8242188,22.4121094 C44.8242188,10.1513672 34.6508789,0 22.3901367,0 C10.1513672,0 0,10.1513672 0,22.4121094 C0,34.6508789 10.1733398,44.8242188 22.4121094,44.8242188 Z M22.4121094,41.0888672 C12.0410156,41.0888672 3.75732422,32.7832031 3.75732422,22.4121094 C3.75732422,12.0410156 12.019043,3.73535156 22.3901367,3.73535156 C32.7612305,3.73535156 41.0668945,12.0410156 41.0889106,22.4121094 C41.1108398,32.7832031 32.7832031,41.0888672 22.4121094,41.0888672 Z M22.4121094,36.3427734 C30.0366211,36.3427734 36.3427734,30.0146484 36.3427734,22.4121094 C36.3427734,14.7875977 30.0146484,8.45947266 22.4121094,8.45947266 C14.7875977,8.45947266 8.48144531,14.7875977 8.48144531,22.4121094 C8.48144531,30.0146484 14.8095703,36.3427734 22.4121094,36.3427734 Z M22.4121094,32.8051758 C16.7651367,32.8051758 12.019043,28.059082 12.019043,22.4121094 C12.019043,16.7211914 16.7431641,11.9970703 22.4121094,11.9970703 C28.059082,11.9970703 32.8051758,16.7431641 32.8051758,22.4121094 C32.8051758,28.0810547 28.0810547,32.8051758 22.4121094,32.8051758 Z M22.434082,28.1030273 C25.5541992,28.1030273 28.125,25.5541992 28.125,22.3901367 C28.125,19.2700195 25.5541992,16.7211914 22.434082,16.7211914 C19.2919922,16.7211914 16.7211914,19.2700195 16.7211914,22.3901367 C16.7211914,25.5541992 19.2919922,28.1030273 22.434082,28.1030273 Z" id="􀢊"></path>
            </g>
        </g>
    </g>
</svg>