<?xml version="1.0" encoding="UTF-8"?>
<svg width="42px" height="42px" viewBox="0 0 42 42" xmlns="http://www.w3.org/2000/svg" xmlns:xlink="http://www.w3.org/1999/xlink" version="1.1">
 <!-- Generated by Pixelmator Pro 2.1.2 -->
 <g id="group">
  <g id="group-1">
   <g id="group-2">
    <path id="Path" d="M34.155 41.395 C38.77 41.395 41.055 39.109 41.055 34.583 L41.055 7.754 C41.055 3.228 38.77 0.943 34.155 0.943 L7.502 0.943 C2.91 0.943 0.603 3.206 0.603 7.754 L0.603 34.583 C0.603 39.131 2.91 41.395 7.503 41.395 Z M34.111 37.857 L7.546 37.857 C5.349 37.857 4.141 36.692 4.141 34.407 L4.141 7.93 C4.141 5.645 5.349 4.48 7.546 4.48 L34.111 4.48 C36.287 4.48 37.517 5.645 37.517 7.93 L37.517 34.407 C37.517 36.692 36.287 37.857 34.111 37.857 Z M18.445 31.573 C19.17 31.573 19.785 31.221 20.225 30.54 L30.266 14.742 C30.53 14.302 30.793 13.819 30.793 13.335 30.793 12.347 29.915 11.709 29.013 11.709 28.443 11.709 27.893 12.061 27.476 12.699 L18.356 27.332 14.028 21.729 C13.501 21.026 13.018 20.85 12.424 20.85 11.458 20.85 10.71 21.62 10.71 22.586 10.71 23.069 10.908 23.531 11.216 23.948 L16.577 30.54 C17.127 31.265 17.72 31.573 18.445 31.573 Z" fill="#0096c6" fill-opacity="1" stroke="none"/>
   </g>
  </g>
 </g>
</svg>
