<?xml version="1.0" encoding="UTF-8"?>
<svg width="69px" height="64px" viewBox="0 0 69 64" version="1.1" xmlns="http://www.w3.org/2000/svg" xmlns:xlink="http://www.w3.org/1999/xlink">
    <title>iconSection2</title>
    <g id="iconSection2" stroke="none" stroke-width="1" fill="none" fill-rule="evenodd">
        <path d="M19.7197266,21.4023438 C20.0419922,21.4023438 20.2397461,21.2192383 20.3129883,20.8530273 C20.503418,19.9301758 20.6682129,19.201416 20.807373,18.666748 C20.9465332,18.1320801 21.1479492,17.7255859 21.4116211,17.4472656 C21.675293,17.1689453 22.078125,16.9528809 22.6201172,16.7990723 C23.1621094,16.6452637 23.9091797,16.4731445 24.8613281,16.2827148 C25.2568359,16.2241211 25.4545898,16.0336914 25.4545898,15.7114258 C25.4545898,15.3745117 25.2714844,15.1694336 24.9052734,15.0961914 C23.9238281,14.8911133 23.1584473,14.7080078 22.6091309,14.546875 C22.0598145,14.3857422 21.6496582,14.1660156 21.3786621,13.8876953 C21.107666,13.609375 20.9025879,13.2102051 20.7634277,12.6901855 C20.6242676,12.170166 20.4741211,11.4560547 20.3129883,10.5478516 C20.2543945,10.1669922 20.0566406,9.9765625 19.7197266,9.9765625 C19.3828125,9.9765625 19.1850586,10.159668 19.1264648,10.5258789 C18.9360352,11.4633789 18.7712402,12.1994629 18.6320801,12.7341309 C18.4929199,13.2687988 18.2915039,13.6789551 18.027832,13.9645996 C17.7641602,14.2502441 17.3649902,14.4663086 16.8303223,14.612793 C16.2956543,14.7592773 15.5375977,14.9204102 14.5561523,15.0961914 C14.175293,15.1547852 13.9848633,15.3598633 13.9848633,15.7114258 C13.9848633,16.0336914 14.1679688,16.2241211 14.5341797,16.2827148 C15.515625,16.487793 16.2773438,16.6708984 16.8193359,16.8320312 C17.3613281,16.9931641 17.7678223,17.2128906 18.0388184,17.4912109 C18.3098145,17.7695312 18.5185547,18.1723633 18.6650391,18.699707 C18.8115234,19.2270508 18.965332,19.9521484 19.1264648,20.875 C19.1850586,21.2265625 19.3828125,21.4023438 19.7197266,21.4023438 Z M38.9238281,29.2685547 C39.3046875,29.2685547 39.5390625,29.0561523 39.6269531,28.6313477 C39.8173828,27.5473633 39.9931641,26.6940918 40.1542969,26.0715332 C40.3154297,25.4489746 40.5498047,24.9765625 40.8574219,24.6542969 C41.1650391,24.3320312 41.6337891,24.0793457 42.2636719,23.8962402 C42.8935547,23.7131348 43.7724609,23.5263672 44.9003906,23.3359375 C45.3544922,23.2626953 45.581543,23.0356445 45.581543,22.6547852 C45.581543,22.2592773 45.3691406,22.0249023 44.9443359,21.9516602 C43.8017578,21.746582 42.904541,21.5524902 42.2526855,21.3693848 C41.6008301,21.1862793 41.1174316,20.9335938 40.8024902,20.6113281 C40.4875488,20.2890625 40.2531738,19.8203125 40.0993652,19.2050781 C39.9455566,18.5898438 39.7880859,17.7475586 39.6269531,16.6782227 C39.5683594,16.2387695 39.3339844,16.019043 38.9238281,16.019043 C38.5429688,16.019043 38.315918,16.2314453 38.2426758,16.65625 C38.0522461,17.7402344 37.880127,18.6008301 37.7263184,19.2380371 C37.5725098,19.8752441 37.3381348,20.3586426 37.0231934,20.6882324 C36.708252,21.0178223 36.2358398,21.2668457 35.605957,21.4353027 C34.9760742,21.6037598 34.0898438,21.7758789 32.9472656,21.9516602 C32.7568359,21.980957 32.5993652,22.0578613 32.4748535,22.182373 C32.3503418,22.3068848 32.2954102,22.4643555 32.3100586,22.6547852 C32.3100586,23.0356445 32.5224609,23.2626953 32.9472656,23.3359375 C34.0751953,23.5410156 34.9614258,23.7351074 35.605957,23.9182129 C36.2504883,24.1013184 36.7302246,24.3540039 37.045166,24.6762695 C37.3601074,24.9985352 37.5944824,25.4709473 37.748291,26.0935059 C37.9020996,26.7160645 38.0668945,27.5693359 38.2426758,28.6533203 C38.3012695,29.0634766 38.5283203,29.2685547 38.9238281,29.2685547 Z M7.56884766,36.0361328 C7.96435547,36.0361328 8.19140625,35.8237305 8.25,35.3989258 C8.41113281,34.3149414 8.56860352,33.4616699 8.72241211,32.8391113 C8.8762207,32.2165527 9.11425781,31.7404785 9.43652344,31.4108887 C9.75878906,31.0812988 10.2385254,30.8322754 10.8757324,30.6638184 C11.5129395,30.4953613 12.402832,30.3085938 13.5454102,30.1035156 C13.9848633,30.0302734 14.2045898,29.8032227 14.2045898,29.4223633 C14.2045898,29.0415039 13.9921875,28.8071289 13.5673828,28.7192383 C12.4248047,28.5141602 11.53125,28.3200684 10.8867188,28.1369629 C10.2421875,27.9538574 9.76245117,27.7011719 9.44750977,27.3789062 C9.13256836,27.0566406 8.89819336,26.5878906 8.74438477,25.9726562 C8.59057617,25.3574219 8.42578125,24.5078125 8.25,23.4238281 C8.17675781,22.9990234 7.94970703,22.7866211 7.56884766,22.7866211 C7.15869141,22.7866211 6.92431641,22.9990234 6.86572266,23.4238281 C6.70458984,24.5224609 6.54711914,25.3867188 6.39331055,26.0166016 C6.23950195,26.6464844 6.00146484,27.1225586 5.67919922,27.4448242 C5.35693359,27.7670898 4.87719727,28.0124512 4.23999023,28.1809082 C3.6027832,28.3493652 2.71289062,28.5288086 1.5703125,28.7192383 C1.14550781,28.7924805 0.933105469,29.0268555 0.933105469,29.4223633 C0.933105469,29.8032227 1.14550781,30.0302734 1.5703125,30.1035156 C2.71289062,30.3085938 3.59912109,30.5026855 4.22900391,30.685791 C4.85888672,30.8688965 5.33129883,31.1252441 5.64624023,31.454834 C5.96118164,31.7844238 6.19555664,32.260498 6.34936523,32.8830566 C6.50317383,33.5056152 6.67529297,34.3515625 6.86572266,35.4208984 C6.90966797,35.5966797 6.99023438,35.7431641 7.10742188,35.8603516 C7.22460938,35.9775391 7.37841797,36.0361328 7.56884766,36.0361328 Z M47.4052734,55.7895508 C48.2695312,55.7895508 48.9873047,55.496582 49.5585938,54.9106445 C50.1298828,54.3100586 50.4155273,53.588623 50.4155273,52.7463379 C50.4155273,51.9040527 50.1298828,51.1899414 49.5585938,50.6040039 L28.6845703,29.5981445 C28.0986328,29.012207 27.3771973,28.7192383 26.5202637,28.7192383 C25.6633301,28.7192383 24.9492188,29.012207 24.3779297,29.5981445 C23.7919922,30.1987305 23.4990234,30.920166 23.4990234,31.7624512 C23.4990234,32.6047363 23.7919922,33.3261719 24.3779297,33.9267578 L45.2299805,54.9106445 C45.815918,55.496582 46.5410156,55.7895508 47.4052734,55.7895508 Z M33.0571289,39.6176758 L26.3554688,32.894043 C26.1064453,32.659668 25.9562988,32.4033203 25.9050293,32.125 C25.8537598,31.8466797 25.9453125,31.590332 26.1796875,31.355957 C26.3994141,31.1362305 26.6484375,31.052002 26.9267578,31.1032715 C27.2050781,31.154541 27.46875,31.3046875 27.7177734,31.5537109 L34.4194336,38.2553711 L33.0571289,39.6176758 Z M18.2475586,55.6137695 C18.8041992,55.6137695 19.1118164,55.3208008 19.1704102,54.7348633 C19.3461914,53.2407227 19.532959,52.0688477 19.7307129,51.2192383 C19.9284668,50.3696289 20.2470703,49.7287598 20.6865234,49.2966309 C21.1259766,48.864502 21.777832,48.5385742 22.6420898,48.3188477 C23.5063477,48.0991211 24.7001953,47.8720703 26.2236328,47.6376953 C26.8535156,47.5351562 27.168457,47.2275391 27.168457,46.7148438 C27.168457,46.2021484 26.8901367,45.887207 26.3334961,45.7700195 C24.7954102,45.4770508 23.583252,45.2133789 22.6970215,44.9790039 C21.810791,44.7446289 21.1442871,44.4223633 20.6975098,44.012207 C20.2507324,43.6020508 19.9284668,42.9831543 19.7307129,42.1555176 C19.532959,41.3278809 19.3461914,40.1669922 19.1704102,38.6728516 C19.1118164,38.1015625 18.8041992,37.815918 18.2475586,37.815918 C17.690918,37.815918 17.3833008,38.0942383 17.324707,38.6508789 C17.1342773,40.1743164 16.9365234,41.3681641 16.7314453,42.2324219 C16.5263672,43.0966797 16.2041016,43.744873 15.7646484,44.177002 C15.3251953,44.6091309 14.6623535,44.9313965 13.776123,45.1437988 C12.8898926,45.3562012 11.6777344,45.5649414 10.1396484,45.7700195 C9.90527344,45.7993164 9.70751953,45.9018555 9.54638672,46.0776367 C9.38525391,46.253418 9.3046875,46.4658203 9.3046875,46.7148438 C9.3046875,47.2275391 9.58300781,47.5351562 10.1396484,47.6376953 C11.6923828,47.9306641 12.9118652,48.197998 13.7980957,48.4396973 C14.6843262,48.6813965 15.347168,49.0109863 15.7866211,49.4284668 C16.2260742,49.8459473 16.5410156,50.472168 16.7314453,51.3071289 C16.921875,52.1420898 17.1196289,53.2993164 17.324707,54.7788086 C17.3393555,55.027832 17.4345703,55.229248 17.6103516,55.3830566 C17.7861328,55.5368652 17.9985352,55.6137695 18.2475586,55.6137695 Z" id="ô€œ" fill="#0096C6" fill-rule="nonzero"></path>
    </g>
</svg>