<?xml version="1.0" encoding="UTF-8"?>
<svg width="111px" height="22px" viewBox="0 0 111 22" version="1.1" xmlns="http://www.w3.org/2000/svg" xmlns:xlink="http://www.w3.org/1999/xlink">
    <!-- Generator: Sketch 62 (91390) - https://sketch.com -->
    <title>entrepreneur</title>
    <desc>Created with Sketch.</desc>
    <g id="Dec-2019" stroke="none" stroke-width="1" fill="none" fill-rule="evenodd">
        <g id="Footer-1065" transform="translate(-186.000000, -60.000000)" fill="#4F4F4F">
            <g id="As-seen-on" transform="translate(1.000000, 0.000000)">
                <g id="entrepreneur" transform="translate(185.000000, 60.000000)">
                    <polygon id="Fill-1" points="0.0808080808 0 0 1.38347598 1.55575758 1.58397975 1.55575758 14.3560696 0.161616162 14.5766238 0.101212121 16 10 16 9.83838384 11.9702753 7.79818182 11.9099237 7.51535354 14.5563729 4.48505051 14.5563729 4.48505051 8.46125891 5.79818182 8.46125891 6.12121212 9.82468452 7.47474747 9.82468452 7.47474747 5.85491046 6.12121212 5.81460921 5.81818182 7.13793406 4.50525253 7.13793406 4.50525253 1.38347598 7.51535354 1.38347598 7.63636364 3.80957155 9.5759596 3.86972268 9.81818182 0"></polygon>
                    <g id="Group-25" transform="translate(11.000000, 3.000000)">
                        <path d="M0.202839757,13.5022085 L0.263691684,12.3096553 L1.35902637,12.0873149 L1.35902637,3.96178298 L0.0811359026,3.84050638 L0.0811359026,2.62774043 L3.28600406,2.16264468 L3.52941176,2.85008085 L3.52941176,3.31497447 C4.30020284,2.50646383 5.23326572,2.02135745 6.43002028,2.02135745 C8.17444219,2.02135745 9.47261663,3.07221915 9.47261663,5.15433617 L9.47261663,12.0669 L10.6288032,12.2894426 L10.5679513,13.4817936 L6.75456389,13.4817936 L6.75456389,5.76071915 C6.75456389,4.64901702 6.34888438,4.02242128 5.3346856,4.02242128 C4.98985801,4.02242128 4.7464503,4.08285745 4.48275862,4.18392128 C4.32048682,4.32561277 4.15821501,4.52774043 4.01622718,4.70965532 L4.01622718,12.1075277 L5.17241379,12.329666 L5.09127789,13.5224213 L0.202839757,13.5224213 L0.202839757,13.5022085 Z" id="Fill-2"></path>
                        <path d="M61.4806491,13.5022085 L61.521217,12.3096553 L62.6167546,12.0873149 L62.6167546,3.96178298 L61.3388641,3.84050638 L61.3388641,2.62774043 L64.5437323,2.16264468 L64.78714,2.85008085 L64.78714,3.31497447 C65.557931,2.50646383 66.4907911,2.02135745 67.6877485,2.02135745 C69.4319675,2.02135745 70.7303448,3.07221915 70.7303448,5.15433617 L70.7303448,12.0669 L71.8865314,12.2894426 L71.8254767,13.4817936 L68.0325761,13.4817936 L68.0325761,5.76071915 C68.0325761,4.64901702 67.6268966,4.02242128 66.6126978,4.02242128 C66.2678702,4.02242128 66.0242596,4.08285745 65.7607708,4.18392128 C65.598499,4.32561277 65.4360243,4.52774043 65.2942394,4.70965532 L65.2942394,12.1075277 L66.4502231,12.329666 L66.3692901,13.5224213 L61.4806491,13.5224213 L61.4806491,13.5022085 Z" id="Fill-4"></path>
                        <path d="M16.6734686,13.2797468 C16.2272211,13.4616617 15.436146,13.6637894 14.4016633,13.6637894 C13.0426369,13.6637894 11.7850304,13.0574064 11.7850304,11.0767574 L11.7850304,3.9616617 L10.486856,3.75953404 L10.5477079,2.34464043 L12.0081542,2.28400213 L12.6369574,0.12123617 L14.5030832,0.0403851064 L14.5030832,2.36485319 L16.5111968,2.36485319 L16.3692089,3.77974681 L14.5233671,3.98187447 L14.5233671,11.0967681 C14.5233671,11.6831404 14.8479108,12.0669809 15.45643,12.0669809 L16.5517647,12.0669809 L16.6734686,13.2797468 Z" id="Fill-6"></path>
                        <path d="M92.5963489,13.5022085 L92.6369168,12.329666 L93.6713996,12.0873149 L93.6713996,3.96178298 L92.4543611,3.84050638 L92.4543611,2.62774043 L95.7809331,2.16264468 L96.0040568,2.95114468 L96.0040568,3.21391064 C96.8762677,2.5669 98.0527383,2.14263404 99.4726166,2.14263404 L99.959432,2.5669 L99.6146045,5.63944255 L97.7890467,5.57880426 L97.6064909,3.94157021 C97.1805274,4.00220851 96.7748479,4.12348511 96.4300203,4.3660383 L96.4300203,12.1075277 L97.5862069,12.3500809 L97.505071,13.5224213 L92.5963489,13.5224213 L92.5963489,13.5022085 Z" id="Fill-8"></path>
                        <path d="M44.8275862,13.5022085 L44.8884381,12.329666 L45.9229209,12.0873149 L45.9229209,3.96178298 L44.7058824,3.84050638 L44.7058824,2.62774043 L48.0324544,2.16264468 L48.2555781,2.95114468 L48.2555781,3.21391064 C49.127789,2.5669 50.3042596,2.14263404 51.7241379,2.14263404 L52.2109533,2.5669 L51.8255578,5.63944255 L50,5.57880426 L49.8174442,3.94157021 C49.3914807,4.00220851 48.9858012,4.12348511 48.6409736,4.3660383 L48.6409736,12.1075277 L49.7971602,12.3500809 L49.7160243,13.5224213 L44.8275862,13.5224213 L44.8275862,13.5022085 Z" id="Fill-10"></path>
                        <path d="M17.4848276,13.5022085 L17.5456795,12.329666 L18.5801623,12.0873149 L18.5801623,3.96178298 L17.3631237,3.84050638 L17.3631237,2.62774043 L20.6896957,2.16264468 L20.9128195,2.95114468 L20.9128195,3.21391064 C21.7850304,2.5669 22.961501,2.14263404 24.3610953,2.14263404 L24.8479108,2.5669 L24.5030832,5.63944255 L22.6775254,5.57880426 L22.4949696,3.94157021 C22.0690061,4.00220851 21.6633266,4.12348511 21.318499,4.3660383 L21.318499,12.1075277 L22.4746856,12.3500809 L22.3935497,13.5224213 L17.4848276,13.5224213 L17.4848276,13.5022085 Z" id="Fill-12"></path>
                        <path d="M27.9512779,7.25638298 L31.3589858,7.09468085 C31.2981339,5.74042553 31.0141582,3.59787234 29.6754158,3.59787234 C29.3508722,3.59787234 29.1277485,3.65851064 28.722069,3.8606383 C28.1744016,4.79042553 27.9512779,6.46808511 27.9512779,7.25638298 L27.9512779,7.25638298 Z M27.9918458,8.55 C27.9918458,10.4904255 28.8437728,11.9861702 30.5273428,11.9861702 C31.3995538,11.9861702 32.0892089,11.8042553 32.900568,11.4202128 L33.3670994,12.4914894 C32.5354564,13.1585106 31.3184178,13.6638298 29.7971197,13.6638298 C26.8356592,13.6638298 25.1318053,11.1170213 25.1318053,7.84255319 C25.1318053,5.05319149 26.3691278,2.00106383 29.7565517,2.00106383 C32.7180122,2.00106383 33.8336308,4.72978723 33.8336308,7.76170213 L33.5496552,8.4893617 L27.9918458,8.55 Z" id="Fill-14"></path>
                        <path d="M75.0913185,7.25638298 L78.4990264,7.09468085 C78.4381744,5.74042553 78.1541988,3.59787234 76.8154564,3.59787234 C76.4907099,3.59787234 76.267789,3.65851064 75.8621095,3.8606383 C75.3144422,4.79042553 75.0913185,6.46808511 75.0913185,7.25638298 L75.0913185,7.25638298 Z M75.1318864,8.55 C75.1318864,10.4904255 75.9836105,11.9861702 77.6673834,11.9861702 C78.5395943,11.9861702 79.2290467,11.8042553 80.0404057,11.4202128 L80.50714,12.4914894 C79.675497,13.1585106 78.4584584,13.6638298 76.9371602,13.6638298 C73.9756998,13.6638298 72.2718458,11.1170213 72.2718458,7.84255319 C72.2718458,5.05319149 73.5091684,2.00106383 76.8963895,2.00106383 C79.8580527,2.00106383 80.9736714,4.72978723 80.9736714,7.76170213 L80.6896957,8.4893617 L75.1318864,8.55 Z" id="Fill-16"></path>
                        <path d="M55.2940365,7.25638298 L58.7019473,7.09468085 C58.6408925,5.74042553 58.3571197,3.59787234 57.0181744,3.59787234 C56.6936308,3.59787234 56.4707099,3.65851064 56.0650304,3.8606383 C55.5173631,4.79042553 55.2737525,6.46808511 55.2940365,7.25638298 L55.2940365,7.25638298 Z M55.3346045,8.55 C55.3346045,10.4904255 56.1865314,11.9861702 57.8701014,11.9861702 C58.7423124,11.9861702 59.4319675,11.8042553 60.2433266,11.4202128 L60.709858,12.4914894 C59.8784178,13.1585106 58.6613793,13.6638298 57.1400811,13.6638298 C54.1784178,13.6638298 52.4747667,11.1170213 52.4747667,7.84255319 C52.4747667,5.05319149 53.7118864,2.00106383 57.0993103,2.00106383 C60.0607708,2.00106383 61.1763895,4.72978723 61.1763895,7.76170213 L60.8926166,8.4893617 L55.3346045,8.55 Z" id="Fill-18"></path>
                        <path d="M88.6409736,13.5022085 L88.356998,12.5317936 C87.6064909,13.2392404 86.8762677,13.6639106 85.7403651,13.6639106 C83.9959432,13.6639106 82.4340771,12.7947617 82.4340771,10.3894426 L82.4340771,3.67860213 L81.1561866,3.55752766 L81.1561866,2.48625106 L84.8478702,2.06158085 L85.1318458,3.03199574 L85.1318458,10.0660383 C85.1318458,11.299017 85.6389452,11.9458255 86.63286,11.9458255 C86.9168357,11.9458255 87.2819473,11.9054 87.6064909,11.7841234 C87.7890467,11.6022085 87.9716024,11.3798681 88.1135903,11.1573255 L88.1135903,3.67860213 L86.7951318,3.55752766 L86.7951318,2.48625106 L90.5273834,2.06158085 L90.811359,3.03199574 L90.811359,12.0873149 L91.9675456,12.3096553 L91.8255578,13.5022085 L88.6409736,13.5022085 Z" id="Fill-20"></path>
                        <path d="M43.9148073,7.57980745 C43.9148073,4.16385 42.9006085,2.02129681 40.3651116,2.02129681 C38.6815416,2.02129681 37.8904665,2.99150957 37.5659229,3.39576489 L37.5659229,3.01172234 L37.2819473,2.04150957 L33.9756592,2.50640319 L33.9756592,3.67874362 L35.2535497,3.84044574 L35.2535497,17.6255521 L34.158215,17.8478926 L34.0973631,19.0000202 L38.9858012,19.0000202 L39.0669371,17.8478926 L37.9107505,17.6255521 L37.9107505,13.2595947 C38.3772819,13.5223606 39.0263692,13.6840628 39.7363083,13.6840628 C43.8742394,13.6840628 43.9148073,9.50002021 43.9148073,7.57980745 M39.3711968,12.0468287 C38.7829615,12.0468287 38.31643,11.9457649 37.9513185,11.7436372 L37.9513185,4.60853085 C38.1135903,4.36597766 38.296146,4.14363723 38.4787018,3.94150957 C38.8235294,3.82023298 39.127789,3.77980745 39.4929006,3.77980745 C41.0141988,3.77980745 41.2778905,5.31597766 41.2778905,8.06491383 C41.2778905,10.7127862 40.872211,11.4404457 40.7707911,11.7436372 C40.3448276,11.9457649 39.8985801,12.0468287 39.3711968,12.0468287" id="Fill-22"></path>
                    </g>
                </g>
            </g>
        </g>
    </g>
</svg>