<?xml version="1.0" encoding="UTF-8"?>
<svg width="64px" height="64px" viewBox="0 0 64 64" version="1.1" xmlns="http://www.w3.org/2000/svg" xmlns:xlink="http://www.w3.org/1999/xlink">
    <title>appleOffline</title>
    <g id="Home-Revamp-2021-V3" stroke="none" stroke-width="1" fill="none" fill-rule="evenodd">
        <g id="Home-Assets" transform="translate(-1255.000000, -8128.000000)">
            <g id="appleOffline" transform="translate(1255.000000, 8128.000000)">
                <rect id="Rectangle" x="0" y="0" width="64" height="64"></rect>
                <path d="M23.7218898,54.5039062 C24.3810695,54.5039062 24.9523586,54.2182617 25.4137844,53.7128906 L40.1794094,37.5849609 C40.904507,36.7719727 41.3659328,36.5742188 42.5964016,36.5742188 L51.451382,36.5742188 C55.6481594,36.5742188 59.1418117,34.6845703 59.1637844,32.1357422 C59.1418117,29.5649414 55.6481594,27.6972656 51.451382,27.6972656 L42.5964016,27.6972656 C41.3659328,27.6972656 40.904507,27.4995117 40.1794094,26.6645508 L25.4137844,10.5585938 C24.9523586,10.03125 24.3810695,9.76757812 23.7218898,9.76757812 L21.1730617,9.76757812 C20.6017727,9.76757812 20.2721828,10.2729492 20.5578273,10.8881836 L28.1603664,27.6972656 L16.998257,28.9716797 L13.0212063,21.6767578 C12.7355617,21.1274414 12.2521633,20.8857422 11.5270656,20.8857422 L10.5822414,20.8857422 C10.0109523,20.8857422 9.63741719,21.2592773 9.63741719,21.8305664 L9.63741719,42.440918 C9.63741719,43.012207 10.0109523,43.3637695 10.5822414,43.3637695 L11.5270656,43.3637695 C12.2521633,43.3637695 12.7355617,43.1220703 13.0212063,42.5947266 L16.998257,35.2998047 L28.1603664,36.5742188 L20.5578273,53.3833008 C20.2721828,53.9765625 20.6017727,54.5039062 21.1730617,54.5039062 L23.7218898,54.5039062 Z" id="􀑓" fill="#FF9F0A" fill-rule="nonzero"></path>
            </g>
        </g>
    </g>
</svg>