<svg xmlns="http://www.w3.org/2000/svg" width="121" height="186" viewBox="0 0 121 186">
    <g fill="none" fill-rule="evenodd">
        <g>
            <g>
                <g>
                    <path fill="#65C8F3" fill-rule="nonzero" d="M3.479 81.849L3.479 79.913 5.409 79.913 5.409 78.824 3.479 78.824 3.479 76.888 2.463 76.888 2.463 78.824.538 78.824.538 79.913 2.463 79.913 2.463 81.849zM55.016 34.513L55.016 32.576 56.946 32.576 56.946 31.488 55.016 31.488 55.016 29.551 54 29.551 54 31.488 52.075 31.488 52.075 32.576 54 32.576 54 34.513z" transform="translate(-270.000000, -6163.000000) translate(0.000000, 6063.000000) translate(270.000000, 100.000000)"/>
                    <path fill="#0096C6" fill-rule="nonzero" d="M17.673 5.036L17.673 3.929 18.776 3.929 18.776 3.307 17.673 3.307 17.673 2.2 17.093 2.2 17.093 3.307 15.992 3.307 15.992 3.929 17.093 3.929 17.093 5.036zM50.836 111.185L50.836 110.078 51.939 110.078 51.939 109.456 50.836 109.456 50.836 108.349 50.256 108.349 50.256 109.456 49.155 109.456 49.155 110.078 50.256 110.078 50.256 111.185zM89.825 10.773L89.825 9.667 90.928 9.667 90.928 9.045 89.825 9.045 89.825 7.938 89.245 7.938 89.245 9.045 88.144 9.045 88.144 9.667 89.245 9.667 89.245 10.773zM101.925 147.524L101.925 146.417 103.028 146.417 103.028 145.795 101.925 145.795 101.925 144.689 101.345 144.689 101.345 145.795 100.244 145.795 100.244 146.417 101.345 146.417 101.345 147.524z" transform="translate(-270.000000, -6163.000000) translate(0.000000, 6063.000000) translate(270.000000, 100.000000)"/>
                    <path fill="#65C8F3" fill-rule="nonzero" d="M117.308 103.844L117.308 101.908 119.238 101.908 119.238 100.819 117.308 100.819 117.308 98.883 116.293 98.883 116.293 100.819 114.367 100.819 114.367 101.908 116.293 101.908 116.293 103.844z" transform="translate(-270.000000, -6163.000000) translate(0.000000, 6063.000000) translate(270.000000, 100.000000)"/>
                    <g>
                        <path fill="#9FD1AF" fill-rule="nonzero" d="M43.427 178.059c.346.915-.688 1.787-1.47 1.197-9.522-7.315-42.32-33.805-29.842-42.678 12.48-8.872 27.274 30.1 31.312 41.48zM43.186 135.658c-.999.617-2.156-.56-1.63-1.627 4.312-8.92 15.669-30.407 21.926-23.282 6.204 7.069-12.409 19.916-20.296 24.909z" transform="translate(-270.000000, -6163.000000) translate(0.000000, 6063.000000) translate(270.000000, 100.000000) translate(21.062963, 0.478149)"/>
                        <path fill="#65B798" fill-rule="nonzero" d="M42.372 141.42c.417 1.059-.731 2.006-1.567 1.393-2.836-2.101-7.267-5.557-11.086-9.266-5.604-5.442-9.89-11.43-5.885-14.48 3.798-2.881 8.784 1.596 11.317 6.435 2.668 5.096 5.823 12.403 7.22 15.917zM36.936 105.932c.969.407 1.799-.816 1.153-1.733-4.934-7.134-17.616-24.155-21.904-16.817-4.243 7.237 13.373 15.441 20.751 18.55z" transform="translate(-270.000000, -6163.000000) translate(0.000000, 6063.000000) translate(270.000000, 100.000000) translate(21.062963, 0.478149)"/>
                        <path fill="#9FD1AF" fill-rule="nonzero" d="M32.608 84.1c-.512.756-1.614.294-1.535-.63.63-7.356 2.756-25.388 8.898-22.404 6.025 2.985-3.307 17.275-7.363 23.034z" transform="translate(-270.000000, -6163.000000) translate(0.000000, 6063.000000) translate(270.000000, 100.000000) translate(21.062963, 0.478149)"/>
                        <path fill="#65B798" fill-rule="nonzero" d="M42.367 118.467c-.652.624-1.671-.043-1.421-.916 1.99-6.943 7.451-23.847 13.054-19.738 5.485 4.086-6.505 15.938-11.633 20.654z" transform="translate(-270.000000, -6163.000000) translate(0.000000, 6063.000000) translate(270.000000, 100.000000) translate(21.062963, 0.478149)"/>
                        <path fill="#9FD1AF" fill-rule="nonzero" d="M37.282 182.209S84.442 149.65 70.4 138.91c-14.043-10.797-33.117 43.299-33.117 43.299z" transform="translate(-270.000000, -6163.000000) translate(0.000000, 6063.000000) translate(270.000000, 100.000000) translate(21.062963, 0.478149)"/>
                        <path fill="#9FD1AF" fill-rule="nonzero" d="M12.597 47.485c3.175 4.97 6.243 9.998 9.1 15.139 1.428 2.599 2.856 5.197 4.232 7.796 1.375 2.598 2.698 5.253 3.967 7.965 5.08 10.677 9.523 21.862 11.85 33.781.53 2.994.953 5.988 1.112 9.095.158 2.994.264 5.988.37 8.982l.74 18.02c.265 5.989.53 12.033.9 18.021l.53 9.039.317 4.519.37 4.576-11.163-.678c.265-1.413.53-2.938.794-4.407l.687-4.406c.424-2.937.794-5.931 1.165-8.925.687-5.932 1.216-11.92 1.64-17.851.423-5.988.74-11.92.899-17.908.053-1.469.053-2.994.106-4.462 0-1.47.052-2.994.052-4.463 0-2.938-.264-5.819-.687-8.756-.423-2.938-1.005-5.819-1.693-8.7-.74-2.88-1.534-5.705-2.434-8.53-1.798-5.649-4.02-11.129-6.454-16.495-2.433-5.367-5.078-10.62-7.935-15.761-2.857-5.14-5.872-10.168-9.152-15.027l.687-.564z" transform="translate(-270.000000, -6163.000000) translate(0.000000, 6063.000000) translate(270.000000, 100.000000) translate(21.062963, 0.478149)"/>
                        <path fill="#713965" fill-rule="nonzero" d="M13.347 53.03l.267.055c1.819.166 3.103 1.825 2.942 3.705l-.428 4.203c-.16 1.88-1.765 3.208-3.584 3.042l-.268-.055c-1.819-.166-3.102-1.825-2.942-3.706l.428-4.203c.16-1.88 1.766-3.263 3.585-3.041zM13.337 48.59h-.265c-1.802 0-3.234-1.507-3.234-3.403v-4.239c0-1.896 1.432-3.402 3.234-3.402h.265c1.802 0 3.233 1.506 3.233 3.402v4.239c0 1.84-1.484 3.402-3.233 3.402z" transform="translate(-270.000000, -6163.000000) translate(0.000000, 6063.000000) translate(270.000000, 100.000000) translate(21.062963, 0.478149)"/>
                        <path fill="#713965" fill-rule="nonzero" d="M15.107 49.206l-.218-.223c-1.255-1.338-1.2-3.512.11-4.794l3-2.954c1.31-1.283 3.439-1.227 4.694.111l.218.223c1.255 1.338 1.2 3.512-.11 4.794l-3 2.955c-1.31 1.282-3.438 1.226-4.694-.112z" transform="translate(-270.000000, -6163.000000) translate(0.000000, 6063.000000) translate(270.000000, 100.000000) translate(21.062963, 0.478149)"/>
                        <path fill="#713965" fill-rule="nonzero" d="M15.54 51.203v-.295c.104-2.003 1.568-3.535 3.344-3.417l3.97.236c1.777.117 3.135 1.767 3.03 3.77v.294c-.104 2.003-1.567 3.535-3.343 3.418l-3.97-.236c-1.777-.06-3.135-1.767-3.031-3.77z" transform="translate(-270.000000, -6163.000000) translate(0.000000, 6063.000000) translate(270.000000, 100.000000) translate(21.062963, 0.478149)"/>
                        <path fill="#713965" fill-rule="nonzero" d="M14.601 52.423l.212-.228c1.374-1.257 3.383-1.086 4.546.343l2.643 3.314c1.163 1.486 1.004 3.658-.317 4.915l-.212.228c-1.374 1.258-3.383 1.086-4.546-.342l-2.643-3.315c-1.216-1.486-1.057-3.657.317-4.915zM11.581 52.168l.159.229c1.11 1.542.846 3.713-.582 4.912l-3.174 2.685c-1.428 1.2-3.438.914-4.549-.628l-.158-.229c-1.111-1.542-.847-3.713.581-4.912l3.174-2.685c1.428-1.2 3.438-.914 4.55.628z" transform="translate(-270.000000, -6163.000000) translate(0.000000, 6063.000000) translate(270.000000, 100.000000) translate(21.062963, 0.478149)"/>
                        <path fill="#713965" fill-rule="nonzero" d="M10.32 51.496l-.052.28c-.26 1.843-1.88 3.128-3.654 2.849l-3.916-.615C.976 53.73-.225 52 .036 50.1l.052-.28c.261-1.844 1.88-3.129 3.654-2.85l3.916.615c1.723.335 2.924 2.067 2.662 3.911z" transform="translate(-270.000000, -6163.000000) translate(0.000000, 6063.000000) translate(270.000000, 100.000000) translate(21.062963, 0.478149)"/>
                        <path fill="#713965" fill-rule="nonzero" d="M11.453 49.044l-.21.233c-1.254 1.338-3.293 1.28-4.495-.116l-2.771-3.2c-1.202-1.397-1.15-3.667.104-5.005l.21-.233c1.254-1.338 3.293-1.28 4.496.116l2.77 3.2c1.203 1.398 1.15 3.667-.104 5.005z" transform="translate(-270.000000, -6163.000000) translate(0.000000, 6063.000000) translate(270.000000, 100.000000) translate(21.062963, 0.478149)"/>
                        <path fill="#F97171" fill-rule="nonzero" d="M13.463 55.215c2.288 0 4.142-1.978 4.142-4.418 0-2.439-1.854-4.417-4.142-4.417-2.288 0-4.142 1.978-4.142 4.417 0 2.44 1.854 4.418 4.142 4.418z" transform="translate(-270.000000, -6163.000000) translate(0.000000, 6063.000000) translate(270.000000, 100.000000) translate(21.062963, 0.478149)"/>
                        <path fill="#005E66" fill-rule="nonzero" d="M48.062 184.97c-.106 0-.211-.057-.264-.171-.052-.172 0-.285.158-.343 4.27-1.654 8.647-2.795 13.128-3.423 1.002-.114 2.057-.228 3.058-.342 4.007-.457 8.172-.913 11.758-2.967 1.37-.799 2.109-1.712 2.214-2.681.158-1.313-.949-2.51-2.109-2.91-1.265-.4-2.689-.172-3.901.057l-.106-.57c2.11-.685 3.902-2.169 5.167-4.109.21-.342.422-.684.475-1.084.052-.513-.159-.97-.37-1.198-.421-.513-1.107-.855-1.74-.798-1.054.057-2.003.684-2.846 1.312-.106.114-.211.171-.317.228l-.263-.456c.105-.057.21-.172.316-.229 1.002-.855 1.634-2.738 1.582-4.678-.053-1.597-.633-4.507-3.902-6.276-3.427-1.883-7.961 5.02-12.812 12.266-2.741 4.108-9.461 12.578-12.309 15.602-.105.115-.263.115-.368 0-.106-.114-.106-.285 0-.399 2.794-2.967 9.514-11.437 12.255-15.488 4.956-7.474 9.649-14.548 13.498-12.437 2.583 1.37 4.112 3.88 4.165 6.79.053 1.425-.264 2.795-.791 3.822.58-.286 1.16-.514 1.845-.57.739 0 1.635.342 2.11.969.421.513.58 1.084.526 1.654-.052.514-.316.97-.58 1.313-.949 1.483-2.161 2.681-3.585 3.48.739-.057 1.477 0 2.162.228 1.318.457 2.636 1.826 2.478 3.48-.106 1.199-.949 2.225-2.478 3.081-3.638 2.111-7.856 2.568-11.915 3.024-1.002.114-2.057.228-3.058.342-4.43.628-8.805 1.77-13.023 3.424-.106.057-.105.057-.158.057zM19.062 180.042c-6.495-2.073-12.264-6.483-15.17-11.79-1.957-3.603-2.37-7.18-1.077-10.328.568-1.396 1.402-2.18 2.57-2.391 2.155-.364 4.974 1.587 6.407 3.154.363-.877.307-2.996.221-5.009-.154-3.32-.278-6.745 1.278-7.533.91-.468 1.916-.498 2.834-.03 3.145 1.588 5.18 8.194 5.794 10.492l3.29-8.175c.41-1.038.87-2.059 1.881-2.495 1.129-.457 2.3.092 3.305.646 1.14.657 2.282 1.313 3.23 2.257.774.773 2.765.592 3.845-.465 1.359-1.26 3.072-1.822 4.508-1.422 1.487.416 2.733 1.865 3.251 3.723.392 1.527 2.308 2.956 3.45 3.612 1.394.737 2.04 2.345 2.306 3.54.608 2.704.215 5.615-1.147 8.04-.097.145-.214.166-.366.117-.137-.101-.157-.225-.11-.385 1.264-2.282 1.678-5.07 1.074-7.598-.19-.878-.77-2.523-2.013-3.211-1.055-.57-3.21-2.134-3.692-3.923-.388-1.35-1.318-2.932-2.856-3.364-1.538-.433-3.058.425-4.026 1.284-1.292 1.222-3.584 1.483-4.566.469-.897-.928-2.003-1.515-3.093-2.155-.903-.522-1.973-1.038-2.868-.623-.762.34-1.191 1.254-1.57 2.184l-3.904 9.731-.19-.878c-.291-1.494-2.542-9.278-5.722-10.935-.766-.42-1.553-.38-2.331.015-1.24.655-1.102 4.027-.972 7.046.084 2.596.21 4.856-.522 5.672l-.179.235-.207-.241c-1.23-1.502-4.07-3.576-6.158-3.25-.985.153-1.688.862-2.194 2.044-1.195 3.005-.838 6.388 1.048 9.851 3.523 6.438 11.372 11.513 19.485 12.584.152.05.238.135.243.312-.046.16-.128.25-.295.256-1.65-.235-3.219-.56-4.792-1.063z" transform="translate(-270.000000, -6163.000000) translate(0.000000, 6063.000000) translate(270.000000, 100.000000) translate(21.062963, 0.478149)"/>
                        <path fill="#005E66" fill-rule="nonzero" d="M36.135 172.822c-.105 0-.157-.056-.209-.112-.104-.113-.052-.282.052-.395 10.855-8.62 14.874-25.633 9.237-38.817-1.043-2.366-2.348-4.732-3.653-7.042-2.818-4.957-5.793-10.14-5.584-16 .209-5.859 3.497-10.76 6.628-15.549 1.044-1.577 2.192-3.267 3.131-4.902 9.08-15.661 6.732-34.028 4.54-43.549-3.392-14.704-10.385-28.112-17.117-41.07-.052-.113 0-.282.105-.395.104-.056.26 0 .365.113 6.784 13.014 13.725 26.423 17.17 41.183 3.81 16.62 2.191 32.226-4.593 43.944-.992 1.69-2.088 3.324-3.131 4.958-3.131 4.676-6.367 9.577-6.524 15.267-.208 5.69 2.557 10.535 5.48 15.662 1.305 2.31 2.662 4.676 3.705 7.099 5.741 13.408 1.618 30.76-9.393 39.493-.105.112-.157.112-.21.112z" transform="translate(-270.000000, -6163.000000) translate(0.000000, 6063.000000) translate(270.000000, 100.000000) translate(21.062963, 0.478149)"/>
                        <path fill="#005E66" fill-rule="nonzero" d="M38.063 181.657c-.158 0-.263-.17-.263-.282.843-11.07 2.319-26.63 9.802-33.35 2.635-2.373 5.85-3.898 8.907-5.423 1.528-.734 3.11-1.469 4.585-2.316 14.282-8.133 22.398-27.055 18.867-43.943-.316-1.412-.685-2.88-1.054-4.236-.632-2.316-1.265-4.745-1.528-7.23-.316-2.711-.37-7.738 2.74-11.24 1.581-1.75 3.69-2.768 5.745-3.784.843-.396 1.686-.791 2.477-1.3 6.64-3.783 11.067-11.748 11.014-19.768-.052-8.02-4.637-15.928-11.33-19.543-.106-.056-.158-.226-.106-.395.053-.113.211-.17.369-.113 6.904 3.728 11.542 11.805 11.647 20.051.105 8.246-4.48 16.436-11.278 20.277-.843.452-1.687.904-2.53 1.3-2.002.96-4.058 1.976-5.586 3.67-2.161 2.43-3.11 6.383-2.635 10.789.263 2.428.896 4.8 1.528 7.117.37 1.412.738 2.823 1.054 4.292 3.531 17.17-4.69 36.318-19.13 44.564-1.529.848-3.11 1.638-4.638 2.373-3.057 1.468-6.219 2.993-8.801 5.309-7.326 6.552-8.749 21.998-9.592 32.955 0 .113-.106.226-.264.226z" transform="translate(-270.000000, -6163.000000) translate(0.000000, 6063.000000) translate(270.000000, 100.000000) translate(21.062963, 0.478149)"/>
                        <path fill="#D64849" fill-rule="nonzero" d="M86.474 33.129c2.288 0 4.142-1.978 4.142-4.417 0-2.44-1.854-4.417-4.142-4.417-2.288 0-4.142 1.977-4.142 4.417 0 2.44 1.854 4.417 4.142 4.417zM32.622 8.834c2.288 0 4.142-1.977 4.142-4.417C36.764 1.977 34.91 0 32.622 0c-2.288 0-4.143 1.978-4.143 4.417 0 2.44 1.855 4.417 4.143 4.417z" transform="translate(-270.000000, -6163.000000) translate(0.000000, 6063.000000) translate(270.000000, 100.000000) translate(21.062963, 0.478149)"/>
                        <path fill="#713965" d="M34.176 8.827c1.998 0 3.618-1.727 3.618-3.858 0-2.13-1.62-3.858-3.618-3.858-1.999 0-3.619 1.728-3.619 3.858 0 2.131 1.62 3.858 3.619 3.858zm4.142-3.858c0 2.44-1.855 4.418-4.142 4.418-2.288 0-4.143-1.978-4.143-4.418 0-2.44 1.855-4.417 4.143-4.417 2.287 0 4.142 1.978 4.142 4.417z" transform="translate(-270.000000, -6163.000000) translate(0.000000, 6063.000000) translate(270.000000, 100.000000) translate(21.062963, 0.478149)"/>
                        <path fill="#D64849" fill-rule="nonzero" d="M68.869 59.632c2.287 0 4.142-1.978 4.142-4.417 0-2.44-1.855-4.417-4.142-4.417-2.288 0-4.143 1.977-4.143 4.417 0 2.44 1.855 4.417 4.143 4.417z" transform="translate(-270.000000, -6163.000000) translate(0.000000, 6063.000000) translate(270.000000, 100.000000) translate(21.062963, 0.478149)"/>
                        <path fill="#713965" fill-rule="nonzero" d="M76.001 126.456l.268.055c1.819.166 3.103 1.827 2.942 3.709l-.428 4.206c-.16 1.882-1.765 3.211-3.584 3.045l-.268-.055c-1.819-.167-3.103-1.827-2.942-3.709l.428-4.207c.16-1.882 1.765-3.21 3.584-3.044zM76.51 121.473h-.266c-1.802 0-3.233-1.506-3.233-3.402v-4.24c0-1.896 1.431-3.401 3.233-3.401h.265c1.802 0 3.234 1.505 3.234 3.402v4.239c0 1.896-1.432 3.402-3.234 3.402z" transform="translate(-270.000000, -6163.000000) translate(0.000000, 6063.000000) translate(270.000000, 100.000000) translate(21.062963, 0.478149)"/>
                        <path fill="#713965" fill-rule="nonzero" d="M77.762 122.605l-.218-.222c-1.255-1.333-1.2-3.498.109-4.774l3.001-2.942c1.31-1.277 3.438-1.222 4.694.11l.218.222c1.255 1.333 1.2 3.498-.11 4.775l-3 2.942c-1.31 1.332-3.439 1.277-4.694-.111z" transform="translate(-270.000000, -6163.000000) translate(0.000000, 6063.000000) translate(270.000000, 100.000000) translate(21.062963, 0.478149)"/>
                        <path fill="#713965" fill-rule="nonzero" d="M78.708 124.086v-.294c.105-2.003 1.568-3.535 3.345-3.417l3.973.235c1.777.118 3.136 1.768 3.031 3.77v.295c-.104 2.003-1.568 3.535-3.345 3.417l-3.972-.236c-1.725-.117-3.084-1.767-3.032-3.77z" transform="translate(-270.000000, -6163.000000) translate(0.000000, 6063.000000) translate(270.000000, 100.000000) translate(21.062963, 0.478149)"/>
                        <path fill="#713965" fill-rule="nonzero" d="M77.774 125.86l.211-.23c1.375-1.257 3.383-1.085 4.546.343l2.644 3.315c1.163 1.486 1.004 3.657-.318 4.915l-.211.228c-1.374 1.258-3.383 1.086-4.546-.343l-2.643-3.314c-1.216-1.429-1.058-3.658.317-4.915zM74.236 125.568l.159.23c1.11 1.548.846 3.728-.582 4.932l-3.174 2.697c-1.428 1.204-3.438.917-4.549-.631l-.159-.23c-1.11-1.549-.846-3.728.582-4.933l3.174-2.696c1.428-1.147 3.491-.86 4.549.631z" transform="translate(-270.000000, -6163.000000) translate(0.000000, 6063.000000) translate(270.000000, 100.000000) translate(21.062963, 0.478149)"/>
                        <path fill="#713965" fill-rule="nonzero" d="M72.975 124.38l-.052.279c-.261 1.844-1.88 3.128-3.654 2.85l-3.916-.616c-1.723-.279-2.924-2.01-2.663-3.91l.053-.28c.26-1.843 1.88-3.128 3.654-2.849l3.916.615c1.723.28 2.923 2.011 2.662 3.91z" transform="translate(-270.000000, -6163.000000) translate(0.000000, 6063.000000) translate(270.000000, 100.000000) translate(21.062963, 0.478149)"/>
                        <path fill="#713965" fill-rule="nonzero" d="M74.073 122.48l-.209.233c-1.249 1.338-3.28 1.28-4.477-.117l-2.759-3.2c-1.197-1.397-1.145-3.666.104-5.004l.208-.233c1.25-1.338 3.28-1.28 4.477.116l2.76 3.2c1.25 1.397 1.197 3.608-.104 5.005z" transform="translate(-270.000000, -6163.000000) translate(0.000000, 6063.000000) translate(270.000000, 100.000000) translate(21.062963, 0.478149)"/>
                        <path fill="#F97171" fill-rule="nonzero" d="M76.118 128.098c2.288 0 4.142-1.977 4.142-4.417 0-2.44-1.854-4.417-4.142-4.417-2.288 0-4.143 1.978-4.143 4.417 0 2.44 1.855 4.417 4.143 4.417z" transform="translate(-270.000000, -6163.000000) translate(0.000000, 6063.000000) translate(270.000000, 100.000000) translate(21.062963, 0.478149)"/>
                        <path fill="#65B798" fill-rule="nonzero" d="M67.523 185.522l-55.357-.789c-1.321 0-2.379-1.104-2.326-2.418 0-1.314 1.11-2.365 2.432-2.313l55.304.789c1.322 0 2.38 1.104 2.326 2.418 0 1.262-1.057 2.313-2.38 2.313z" transform="translate(-270.000000, -6163.000000) translate(0.000000, 6063.000000) translate(270.000000, 100.000000) translate(21.062963, 0.478149)"/>
                        <path fill="#005E66" d="M41.102 139.593c.414.303 1-.182.788-.718-1.393-3.504-4.54-10.79-7.194-15.862-1.236-2.36-3.06-4.61-5.006-5.912-1.943-1.3-3.895-1.598-5.552-.34-.886.674-1.28 1.474-1.341 2.37-.064.928.224 2.023.837 3.257 1.227 2.469 3.643 5.273 6.436 7.986 3.794 3.684 8.203 7.124 11.032 9.22zm-.297.46c.836.612 1.984-.335 1.567-1.394-1.398-3.515-4.553-10.822-7.22-15.918-2.534-4.84-7.52-9.316-11.318-6.434-4.005 3.05.28 9.037 5.885 14.479 3.819 3.709 8.25 7.165 11.086 9.266zM43.513 116.407l.004-.003c2.686-2.17 7.157-5.978 10.325-9.805 1.59-1.92 2.81-3.796 3.339-5.439.262-.815.343-1.54.238-2.17-.103-.618-.39-1.18-.929-1.677-.554-.502-1.095-.69-1.626-.672-.546.02-1.14.26-1.783.73-1.295.95-2.643 2.733-3.946 4.944-2.594 4.403-4.872 10.254-6.117 13.69-.062.17-.008.32.107.412.113.091.252.104.384-.007l.004-.003zm-.99-.606c-.314.865.628 1.631 1.315 1.054 5.38-4.346 18.028-15.346 12.998-19.972-5.144-4.66-11.82 12.037-14.314 18.918zM36.123 100.683C33.659 97.12 29.28 91.12 24.997 86.93c-2.15-2.104-4.225-3.7-5.99-4.337-.875-.317-1.634-.382-2.273-.196-.626.182-1.19.62-1.666 1.433-.469.8-.625 1.588-.549 2.373.078.798.4 1.632.953 2.498 1.11 1.74 3.074 3.493 5.455 5.154 4.749 3.311 10.956 6.123 14.641 7.676.48.202.878-.387.557-.843l-.002-.004zm-.74 1.384c-7.378-3.109-24.994-11.314-20.752-18.55 4.29-7.339 16.97 9.683 21.905 16.817.646.918-.185 2.14-1.153 1.733z" transform="translate(-270.000000, -6163.000000) translate(0.000000, 6063.000000) translate(270.000000, 100.000000) translate(21.062963, 0.478149)"/>
                    </g>
                </g>
            </g>
        </g>
    </g>
</svg>
