<svg xmlns="http://www.w3.org/2000/svg" xmlns:xlink="http://www.w3.org/1999/xlink" width="84" height="105" viewBox="0 0 84 105" version="1.1">
    <title>g2-usersloveus</title>
    <g id="Page-1" stroke="none" stroke-width="1" fill="none" fill-rule="evenodd">
        <g id="g2-usersloveus" fill-rule="nonzero">
            <g id="Group">
                <polygon id="Path" fill="#FFFFFF" points="3.1 81.9 42.6 102 80.6 81.9 80.6 3.3 3.1 3.3"/>
                <polygon id="Path" fill="#F2F3F2" points="81.4 3.6 2.3 83.3 43.3 103.6 81.4 84.1"/>
                <path d="M0.5,29.5 L0.5,83.6 L1.9,84.3 L41.4,104.4 L42.6,105 L43.8,104.4 L81.9,84.3 L83.3,83.6 L83.3,0.7 L0.5,0.7 L0.5,29.5 Z M3.1,82.1 L3.1,3.3 L80.7,3.3 L80.7,82.1 L42.6,102.2 L3.1,82.1 Z" id="Shape" fill="#DCDEDC"/>
                <path d="M41.9,4.6 C42.3,4.6 42.7,4.6 43.1,4.7 L41.9,7 C40.1,6.9 38.5,8.3 38.4,10.1 C38.3,11.9 39.7,13.5 41.5,13.6 L41.9,13.6 C42.7,13.6 43.5,13.3 44.1,12.8 L45.4,15 C44.4,15.7 43.2,16.1 41.9,16.1 C38.7,16.2 36,13.8 35.9,10.6 C35.8,7.4 38.2,4.7 41.4,4.6 L41.9,4.6 Z M46,9.5 L47.5,12 L46,14.4 L44.6,12 L41.7,12 L43.2,9.5 L46,9.5 Z M43.6,8.6 C43.6,8.2 43.7,7.8 43.9,7.5 C44.1,7.2 44.5,6.9 44.8,6.7 L45,6.6 C45.4,6.4 45.5,6.3 45.5,6.1 C45.5,5.9 45.2,5.7 45,5.7 C44.6,5.7 44.3,5.9 44.1,6.3 L43.6,5.8 C43.7,5.6 43.9,5.4 44.1,5.2 C44.4,5 44.7,5 45,5 C45.3,5 45.7,5.1 45.9,5.3 C46.1,5.5 46.3,5.8 46.3,6.1 C46.3,6.6 46,7 45.4,7.2 L45.1,7.4 C44.8,7.6 44.6,7.7 44.5,8 L46.3,8 L46.3,8.7 L43.6,8.6 L43.6,8.6 Z M41.9,21.1 L51.4,15.7 L51.4,0.7 L32.3,0.7 L32.3,15.6 L41.9,21.1 Z" id="Shape" fill="#FF492C"/>
            </g>
            <g id="Group" transform="translate(9.000000, 32.000000)">
                <path d="M9.3,9.1 L9.3,0.3 C9.3,0.2 9.4,0.1 9.5,0.1 L11.8,0.1 C11.9,0.1 12,0.2 12,0.3 L12,9.1 C12,10.4 12.9,11.4 14.3,11.4 C15.7,11.4 16.6,10.5 16.6,9.1 L16.6,0.3 C16.6,0.2 16.7,0.1 16.8,0.1 L19.1,0.1 C19.2,0.1 19.3,0.2 19.3,0.3 L19.3,9.1 C19.3,11.9 17.3,13.7 14.3,13.7 C11.3,13.7 9.3,11.8 9.3,9.1 Z M21,10.8 L21,10.6 C21,10.5 21.1,10.4 21.2,10.4 L23.3,10.4 C23.4,10.4 23.5,10.5 23.5,10.6 C23.5,11.2 24.2,11.6 25.2,11.6 C26.1,11.6 26.7,11.2 26.7,10.7 C26.7,9.9 25.2,9.9 23.8,9.4 C22.5,9 21.1,8.3 21.1,6.6 C21.1,4.7 22.7,3.5 25.2,3.5 C27.7,3.5 29.3,4.8 29.3,6.6 C29.3,6.7 29.2,6.8 29.1,6.8 L27,6.8 C26.9,6.8 26.8,6.7 26.8,6.6 C26.8,6 26.2,5.6 25.2,5.6 C24.4,5.6 23.8,5.9 23.8,6.5 C23.8,7.3 25.1,7.3 26.6,7.8 C28.1,8.2 29.6,8.9 29.6,10.7 C29.6,12.6 27.9,13.7 25.4,13.7 C22.7,13.7 21,12.5 21,10.8 Z M39.9,9.2 C39.9,9.4 39.8,9.4 39.6,9.4 L33.6,9.4 C33.5,9.4 33.5,9.4 33.5,9.5 C33.5,9.8 33.6,10 33.7,10.3 C34,11 34.6,11.4 35.7,11.4 C36.6,11.4 37.2,11 37.7,10.4 C37.8,10.3 37.9,10.2 38,10.4 L39.4,11.8 C39.5,11.9 39.5,12 39.4,12.1 C38.5,13.2 37.1,13.8 35.5,13.8 C33.3,13.8 31.8,12.7 31.1,10.9 C30.8,10.2 30.7,9.5 30.7,8.5 C30.7,7.8 30.8,7.1 31,6.5 C31.6,4.7 33.1,3.5 35.2,3.5 C37.8,3.5 39.4,5.2 39.7,7.6 C39.9,8.1 39.9,8.6 39.9,9.2 L39.9,9.2 Z M33.7,6.9 C33.6,7.1 33.6,7.3 33.6,7.5 C33.6,7.6 33.6,7.6 33.7,7.6 L37,7.6 C37.1,7.6 37.1,7.6 37.1,7.5 C37.1,7.3 37,7.1 37,7 C36.8,6.2 36.2,5.8 35.3,5.8 C34.5,5.8 34,6.2 33.7,6.9 L33.7,6.9 Z M47.7,3.8 C47.8,3.9 47.8,4 47.8,4.1 L47.4,6.3 C47.4,6.5 47.3,6.5 47.1,6.4 C46.8,6.3 46.4,6.3 46,6.3 C45.1,6.4 44.3,7 44.3,8 L44.3,13.3 C44.3,13.4 44.2,13.5 44.1,13.5 L41.8,13.5 C41.7,13.5 41.6,13.4 41.6,13.3 L41.6,3.9 C41.6,3.8 41.7,3.7 41.8,3.7 L44.1,3.7 C44.2,3.7 44.3,3.8 44.3,3.9 L44.3,4.6 C44.3,4.7 44.4,4.7 44.4,4.7 C44.9,4 45.6,3.5 46.5,3.5 C47.1,3.5 47.4,3.6 47.7,3.8 L47.7,3.8 Z M48.5,10.8 L48.5,10.6 C48.5,10.5 48.6,10.4 48.7,10.4 L50.8,10.4 C50.9,10.4 51,10.5 51,10.6 C51,11.2 51.7,11.6 52.7,11.6 C53.6,11.6 54.2,11.2 54.2,10.7 C54.2,9.9 52.7,9.9 51.3,9.4 C50,9 48.6,8.3 48.6,6.6 C48.6,4.7 50.2,3.5 52.7,3.5 C55.2,3.5 56.8,4.8 56.8,6.6 C56.8,6.7 56.7,6.8 56.6,6.8 L54.5,6.8 C54.4,6.8 54.3,6.7 54.3,6.6 C54.3,6 53.7,5.6 52.7,5.6 C51.9,5.6 51.3,5.9 51.3,6.5 C51.3,7.3 52.6,7.3 54.1,7.8 C55.6,8.2 57.1,8.9 57.1,10.7 C57.1,12.6 55.4,13.7 52.9,13.7 C50.2,13.7 48.5,12.5 48.5,10.8 Z M0.6,29.5 L0.6,16.5 C0.6,16.4 0.7,16.3 0.8,16.3 L3.1,16.3 C3.2,16.3 3.3,16.4 3.3,16.5 L3.3,27.3 C3.3,27.4 3.3,27.4 3.4,27.4 L9.7,27.4 C9.8,27.4 9.9,27.5 9.9,27.6 L9.9,29.5 C9.9,29.6 9.8,29.7 9.7,29.7 L0.8,29.7 C0.7,29.7 0.6,29.6 0.6,29.5 Z M11.5,26.7 C11.3,26.1 11.2,25.4 11.2,24.7 C11.2,24 11.3,23.2 11.5,22.7 C12.1,20.8 13.7,19.7 15.9,19.7 C18,19.7 19.6,20.9 20.2,22.7 C20.4,23.3 20.5,24 20.5,24.7 C20.5,25.4 20.4,26.1 20.2,26.6 C19.6,28.6 18,29.8 15.9,29.8 C13.7,29.9 12,28.7 11.5,26.7 L11.5,26.7 Z M17.6,26.1 C17.7,25.7 17.8,25.2 17.8,24.8 C17.8,24.3 17.7,23.8 17.6,23.4 C17.3,22.5 16.7,22 15.9,22 C15,22 14.4,22.5 14.2,23.4 C14,23.7 14,24.2 14,24.8 C14,25.3 14,25.8 14.1,26.1 C14.4,27 15,27.5 15.9,27.5 C16.7,27.6 17.3,27 17.6,26.1 L17.6,26.1 Z M24.2,29.5 L21.1,20 C21,19.8 21.1,19.7 21.3,19.7 L23.8,19.7 C23.9,19.7 24,19.8 24.1,19.9 L25.7,25.7 C25.7,25.8 25.8,25.8 25.8,25.7 L27.4,19.9 C27.4,19.8 27.5,19.7 27.7,19.7 L30.2,19.7 C30.4,19.7 30.5,19.8 30.4,20 L27.3,29.4 C27.3,29.5 27.2,29.6 27,29.6 L24.5,29.6 C24.3,29.7 24.2,29.7 24.2,29.5 Z M40,25.4 C40,25.6 39.9,25.6 39.7,25.6 L33.7,25.6 C33.6,25.6 33.6,25.6 33.6,25.7 C33.6,26 33.7,26.2 33.8,26.5 C34.1,27.2 34.7,27.6 35.8,27.6 C36.7,27.6 37.3,27.2 37.8,26.6 C37.9,26.5 38,26.4 38.1,26.6 L39.5,28 C39.6,28.1 39.6,28.2 39.5,28.3 C38.6,29.4 37.2,30 35.6,30 C33.4,30 31.9,28.9 31.2,27.1 C30.9,26.4 30.8,25.7 30.8,24.7 C30.8,24 30.9,23.3 31.1,22.7 C31.7,20.9 33.2,19.7 35.3,19.7 C37.9,19.7 39.5,21.4 39.8,23.8 C40,24.3 40,24.8 40,25.4 L40,25.4 Z M33.8,23.1 C33.7,23.3 33.7,23.5 33.7,23.7 C33.7,23.8 33.7,23.8 33.8,23.8 L37.1,23.8 C37.2,23.8 37.2,23.8 37.2,23.7 C37.2,23.5 37.1,23.3 37.1,23.2 C36.9,22.4 36.3,22 35.4,22 C34.5,22 34,22.4 33.8,23.1 L33.8,23.1 Z M45.6,25.3 L45.6,16.5 C45.6,16.4 45.7,16.3 45.8,16.3 L48.1,16.3 C48.2,16.3 48.3,16.4 48.3,16.5 L48.3,25.3 C48.3,26.6 49.2,27.6 50.6,27.6 C52,27.6 52.9,26.7 52.9,25.3 L52.9,16.5 C52.9,16.4 53,16.3 53.1,16.3 L55.4,16.3 C55.5,16.3 55.6,16.4 55.6,16.5 L55.6,25.3 C55.6,28.1 53.6,29.9 50.6,29.9 C47.6,29.9 45.6,28 45.6,25.3 Z M57.3,27 L57.3,26.8 C57.3,26.7 57.4,26.6 57.5,26.6 L59.6,26.6 C59.7,26.6 59.8,26.7 59.8,26.8 C59.8,27.4 60.5,27.8 61.5,27.8 C62.4,27.8 63,27.4 63,26.9 C63,26.1 61.5,26.1 60.1,25.6 C58.8,25.2 57.4,24.5 57.4,22.8 C57.4,20.9 59,19.7 61.5,19.7 C64,19.7 65.6,21 65.6,22.8 C65.6,22.9 65.5,23 65.4,23 L63.3,23 C63.2,23 63.1,22.9 63.1,22.8 C63.1,22.2 62.5,21.8 61.5,21.8 C60.7,21.8 60.1,22.1 60.1,22.7 C60.1,23.5 61.4,23.5 62.9,24 C64.4,24.4 65.9,25.1 65.9,26.9 C65.9,28.8 64.2,29.9 61.7,29.9 C59,29.9 57.3,28.7 57.3,27 L57.3,27 Z" id="Shape" fill="#252530"/>
                <path d="M5.3,41.2 L25.3,41.2 L25.3,42 L5.3,42 L5.3,41.2 Z M41.1,41.2 L61.1,41.2 L61.1,42 L41.1,42 L41.1,41.2 Z" id="Shape" fill="#DCDEDC"/>
                <g transform="translate(28.000000, 36.000000)" fill="#DCDEDC" id="Path">
                    <polygon points="0.4 4.3 3.5 3.8 5.1 0.7 6.6 3.7 9.9 4.3 7.6 6.6 8.1 9.9 5.1 8.5 2.1 9.9 2.5 6.6"/>
                </g>
            </g>
        </g>
    </g>
</svg>